<?xml version="1.0" standalone="no"?>
<!DOCTYPE svg PUBLIC "-//W3C//DTD SVG 1.1//EN" "http://www.w3.org/Graphics/SVG/1.1/DTD/svg11.dtd" >
<svg xmlns="http://www.w3.org/2000/svg">
<metadata></metadata>
<defs>
<font id="kittithada_medium_65_pregular" horiz-adv-x="0" >
<font-face units-per-em="2048" ascent="1638" descent="-410" />
<missing-glyph horiz-adv-x="512" />
<glyph />
<glyph unicode="&#xd;" horiz-adv-x="512" />
<glyph unicode=" "  horiz-adv-x="512" />
<glyph unicode="&#x09;" horiz-adv-x="512" />
<glyph unicode="&#xa0;" horiz-adv-x="512" />
<glyph unicode="!" horiz-adv-x="374" d="M98 0v168h181v-168h-181zM104 686v279h168v-279l-43 -418h-79z" />
<glyph unicode="&#x22;" horiz-adv-x="600" d="M113 584v381h137v-381h-137zM350 584v381h137v-381h-137z" />
<glyph unicode="#" horiz-adv-x="751" d="M45 285v100h143l25 176h-127v101h139l39 284h111l-41 -284h149l39 284h111l-41 -284h117v-101h-131l-23 -176h115v-100h-129l-41 -285h-109l41 285h-149l-41 -285h-109l39 285h-127zM297 385h149l25 176h-152z" />
<glyph unicode="$" horiz-adv-x="751" d="M23 293h153q0 -92 43 -143.5t131 -51.5v328q-182 51 -246 121q-61 70 -61 176q0 61 23.5 110.5t65.5 83t97.5 52t120.5 18.5v107h58v-107q129 0 213 -66.5t84 -195.5h-154q0 141 -143 141v-284q150 -41 221 -93q100 -75 100 -208q0 -147 -89 -221t-232 -74v-107h-58v107 q-150 0 -238.5 78.5t-88.5 228.5zM197 733q0 -49 26 -76q37 -38 127 -61v270q-78 0 -115.5 -30.5t-37.5 -102.5zM408 98q76 0 120.5 41t44.5 121q0 68 -51 107q-33 27 -114 47v-316z" />
<glyph unicode="%" horiz-adv-x="1351" d="M111 696q0 117 56 193t169 76q115 0 174 -80q53 -72 53 -189q0 -119 -51 -188q-59 -80 -176 -80t-171 72.5t-54 195.5zM233 696q0 -86 25 -134t78 -48t78.5 50t25.5 132q0 84 -20 123q-27 57 -84 58q-57 0 -80 -51.5t-23 -129.5zM352 -25l525 1004h102l-522 -1004h-105z M788 250q0 117 55.5 192.5t172.5 75.5q113 0 172 -80q53 -71 53 -188q0 -119 -51 -189q-59 -72 -174 -71q-117 0 -172.5 70.5t-55.5 189.5zM911 250q0 -82 25 -131t78 -49t78.5 49t25.5 131q0 80 -22.5 131t-81.5 51q-57 0 -80 -52t-23 -130z" />
<glyph unicode="&#x26;" horiz-adv-x="876" d="M43 268q0 90 68 168q55 61 153 111q-23 29 -39 53.5t-26 42.5q-31 57 -31 115q0 104 67.5 166.5t167.5 62.5q104 0 173 -58.5t69 -170.5q0 -80 -48 -141.5t-126 -104.5l150 -180q8 25 17 62.5t11 66.5h135q-6 -74 -23.5 -129.5t-51.5 -106.5l186 -225h-188l-89 109 q-100 -119 -270 -119q-137 0 -221 71.5t-84 206.5zM197 264q0 -74 44 -118t111 -44q78 0 123 39q8 8 22.5 24.5t37.5 45.5l-189 235q-47 -29 -72 -44l-24 -15q-53 -47 -53 -123zM305 766q0 -47 43 -104q10 -14 22.5 -27.5t22.5 -28.5q68 49 78 64q35 41 35 92 q0 49 -26.5 79.5t-71.5 30.5q-43 0 -73 -29.5t-30 -76.5z" />
<glyph unicode="'" horiz-adv-x="374" d="M119 584v381h137v-381h-137z" />
<glyph unicode="(" horiz-adv-x="374" d="M66 365q0 160 50 319.5t144 302.5h127q-166 -295 -166 -622q0 -174 39 -321t127 -294h-127q-92 147 -137 270q-57 152 -57 345z" />
<glyph unicode=")" horiz-adv-x="374" d="M-2 -250q74 147 116 297t42 318q0 336 -158 622h117q45 -72 79.5 -141.5t57.5 -136.5q57 -154 57 -344q0 -162 -50 -314.5t-144 -300.5h-117z" />
<glyph unicode="*" horiz-adv-x="499" d="M27 774l28 86l150 -57v162h92v-162l145 57l33 -86l-153 -53l94 -127l-72 -51l-96 131l-90 -131l-76 51l94 127z" />
<glyph unicode="+" horiz-adv-x="811" d="M66 272v140h270v272h139v-272h270v-140h-270v-272h-139v272h-270z" />
<glyph unicode="," horiz-adv-x="374" d="M94 0v182h187v-182q0 -72 -51.5 -130t-131.5 -75v82q41 10 64.5 48t23.5 75h-92z" />
<glyph unicode="-" horiz-adv-x="526" d="M66 295v145h393v-145h-393z" />
<glyph unicode="." horiz-adv-x="374" d="M94 0v182h187v-182h-187z" />
<glyph unicode="/" horiz-adv-x="475" d="M-23 -14l381 1001h148l-389 -1001h-140z" />
<glyph unicode="0" horiz-adv-x="751" d="M49 473q0 199 62 326q82 166 264 166t266 -164q61 -123 61 -328q0 -203 -61 -326q-84 -158 -266 -157q-182 0 -264 155q-61 123 -62 328zM203 473q0 -156 35 -256q43 -109 137 -108q94 0 137 108q37 92 37 256q0 156 -35 256q-43 109 -139 109q-94 0 -137 -109 q-35 -100 -35 -256z" />
<glyph unicode="1" horiz-adv-x="751" d="M72 668v120q96 0 178 35q80 39 98 123h125v-946h-170v668h-231z" />
<glyph unicode="2" horiz-adv-x="751" d="M53 0q0 113 52.5 202t150.5 154q49 35 97 68t96 68q98 82 98 178q0 61 -31 108q-41 59 -129 60q-86 0 -124 -63.5t-38 -174.5h-155q0 80 22.5 146.5t63.5 115.5t101 76t138 27q156 0 240 -99q65 -83 65 -192q0 -104 -63 -187q-23 -29 -59.5 -62.5t-88.5 -68.5 q-41 -27 -79.5 -53.5t-77.5 -54.5q-78 -57 -94 -111h460v-137h-645z" />
<glyph unicode="3" horiz-adv-x="751" d="M41 311h156q0 -92 45 -147t133 -55q82 0 131 44t49 126q0 78 -45 114q-51 45 -203 45v117q92 0 146 29q66 37 65 118q0 61 -41 98.5t-106 37.5q-76 0 -117 -56.5t-41 -138.5h-154q0 70 22.5 129t63.5 102.5t98.5 67t129.5 23.5q121 0 205 -62q94 -70 94 -190 q0 -72 -33 -125t-100 -78q78 -18 124 -83t46 -157q0 -129 -97 -209q-96 -72 -237 -71q-162 0 -248 84t-86 237z" />
<glyph unicode="4" horiz-adv-x="751" d="M33 225v152l405 569h146v-600h123v-121h-123v-225h-146v225h-405zM152 346h286v416z" />
<glyph unicode="5" horiz-adv-x="751" d="M47 268h154q8 -74 54 -116.5t120 -42.5q90 0 137 61q39 51 39 147q0 84 -43 138q-49 59 -137 59q-55 0 -94 -18.5t-58 -67.5h-153l100 518h489v-137h-374l-48 -242q70 70 177 70q141 0 219 -88.5t78 -229.5q0 -131 -76 -225q-90 -104 -252 -104q-145 0 -234 63 q-98 76 -98 215z" />
<glyph unicode="6" horiz-adv-x="751" d="M45 475q0 197 78 330q94 160 280 160q115 0 199 -74q86 -72 86 -184h-153q-6 59 -44 95t-96 36q-84 0 -133 -70q-61 -90 -61 -256q31 51 87 81t120 30q137 0 218 -89.5t81 -230.5t-87.5 -227t-228.5 -86q-195 0 -276 135q-70 119 -70 350zM215 307q0 -82 45 -140t125 -58 t123 56t43 142q0 80 -43 136.5t-123 56.5t-125 -55.5t-45 -137.5z" />
<glyph unicode="7" horiz-adv-x="751" d="M47 809v137h647v-129q-86 -98 -147.5 -187t-102.5 -175q-102 -227 -102 -455h-170q0 209 111 434q47 98 110.5 190.5t145.5 184.5h-492z" />
<glyph unicode="8" horiz-adv-x="751" d="M41 279q0 86 47 148t127 83q-133 53 -133 197q0 123 75.5 190.5t217.5 67.5q141 0 218 -68t77 -190q0 -143 -133 -197q80 -20 126 -79.5t46 -151.5q0 -135 -93.5 -212t-240.5 -77t-240.5 75.5t-93.5 213.5zM197 279q0 -82 49 -129.5t129 -47.5t130 45.5t50 131.5 q0 78 -50 121.5t-130 43.5q-78 0 -128 -44t-50 -121zM227 698q0 -66 41 -102.5t107 -36.5t107.5 38t41.5 101q0 70 -42 108t-107 38q-63 0 -105.5 -38t-42.5 -108z" />
<glyph unicode="9" horiz-adv-x="751" d="M45 641q0 70 22.5 129t64.5 102t102.5 68t136.5 25q186 0 268 -144q68 -121 68 -350q0 -197 -78 -330q-96 -152 -281 -151q-111 0 -201 65q-84 72 -84 185h154q6 -59 44 -95t95 -36q84 0 133 69q61 88 62 256q-68 -111 -207 -110q-135 0 -217 85t-82 232zM201 643 q0 -86 42 -142.5t122 -56.5q82 0 127 56.5t45 142.5q0 82 -45.5 138.5t-126.5 56.5q-80 0 -122 -56.5t-42 -138.5z" />
<glyph unicode=":" horiz-adv-x="374" d="M94 0v182h187v-182h-187zM94 502v182h187v-182h-187z" />
<glyph unicode=";" horiz-adv-x="374" d="M94 0v182h187v-182q0 -72 -51.5 -130t-131.5 -75v82q41 10 64.5 48t23.5 75h-92zM94 502v182h187v-182h-187z" />
<glyph unicode="&#x3c;" horiz-adv-x="811" d="M61 293v98l689 303v-137l-506 -215l506 -215v-129z" />
<glyph unicode="=" horiz-adv-x="811" d="M66 137v137h679v-137h-679zM66 410v137h679v-137h-679z" />
<glyph unicode="&#x3e;" horiz-adv-x="811" d="M61 -2v129l506 215l-506 215v137l689 -303v-98z" />
<glyph unicode="?" horiz-adv-x="751" d="M66 657q0 150 88 240t237 90q129 0 212 -71.5t83 -200.5q0 -86 -37 -142q-8 -12 -31.5 -35.5t-51 -49t-52.5 -49t-33 -36.5q-35 -59 -35 -141h-145q0 104 23 168q23 55 84 109q51 41 75 67q33 39 33 103q0 74 -47 116q-41 35 -86 35q-82 0 -122 -52t-40 -151h-155zM281 0 v168h182v-168h-182z" />
<glyph unicode="@" horiz-adv-x="1081" d="M66 500q0 203 145 344q143 143 352 143q188 0 320 -113q133 -110 133 -282q0 -184 -119 -303q-100 -100 -201 -101q-35 0 -57.5 20.5t-22.5 59.5q-31 -31 -72.5 -54.5t-80.5 -23.5q-86 0 -142.5 60.5t-56.5 152.5q0 133 84 242t213 109q102 0 152 -99l24 78h94l-98 -356 q-12 -41 -12 -60q0 -33 27 -32q63 0 118 86q57 82 58 204q0 145 -105 236q-109 90 -256 90q-170 0 -280 -117q-109 -115 -109 -288q0 -193 112.5 -311.5t286.5 -118.5q188 0 306 133h94q-63 -104 -172 -158.5t-232 -54.5q-213 0 -358 139q-145 152 -145 375zM379 416 q0 -55 29.5 -89t78.5 -34q76 0 131 78q56 79 56 161q0 49 -31 84t-76 35q-80 0 -135 -76q-53 -78 -53 -159z" />
<glyph unicode="A" horiz-adv-x="901" d="M-2 0l362 965h181l370 -965h-180l-90 256h-385l-90 -256h-168zM301 383h295l-145 416h-5z" />
<glyph unicode="B" horiz-adv-x="952" d="M102 0v965h469q137 0 212 -58.5t75 -181.5q0 -143 -137 -205q180 -45 180 -252q0 -121 -82 -190q-96 -78 -272 -78h-445zM272 137h299q78 0 120 40t42 114q0 147 -162 147h-299v-301zM272 561h275q143 0 143 133t-143 133h-275v-266z" />
<glyph unicode="C" horiz-adv-x="976" d="M51 483q0 215 125 359q127 145 338 145q82 0 154.5 -22.5t127 -65.5t88.5 -104.5t40 -137.5h-170q-23 92 -78 140q-66 53 -162 53q-147 0 -223 -113q-70 -100 -70 -254q0 -156 68 -254q77 -114 222 -114h3q111 0 172.5 70.5t73.5 183.5h164q0 -174 -117 -281 q-115 -102 -293 -102q-209 0 -340 141q-123 141 -123 356z" />
<glyph unicode="D" horiz-adv-x="976" d="M102 0v965h402q213 0 323 -140q101 -125 101 -342t-101 -342q-111 -141 -323 -141h-402zM272 137h166q184 0 260 101q62 79 62 245q0 160 -62 244q-76 100 -260 100h-166v-690z" />
<glyph unicode="E" horiz-adv-x="851" d="M102 0v965h695v-146h-525v-252h486v-139h-486v-283h535v-145h-705z" />
<glyph unicode="F" horiz-adv-x="800" d="M102 0v965h668v-146h-498v-252h437v-139h-437v-428h-170z" />
<glyph unicode="G" horiz-adv-x="1026" d="M57 483q0 215 125 359q127 145 338 145q166 0 280.5 -85t133.5 -245h-164q-12 92 -84 142.5t-166 50.5q-147 0 -223 -113q-70 -100 -70 -254q0 -156 68 -254q77 -114 222 -114h3q129 0 200 70.5t71 193.5h-256v129h409v-508h-106l-27 113q-66 -76 -132.5 -101.5 t-158.5 -25.5q-209 0 -340 141q-123 141 -123 356z" />
<glyph unicode="H" horiz-adv-x="976" d="M98 0v965h170v-383h439v383h170v-965h-170v436h-439v-436h-170z" />
<glyph unicode="I" horiz-adv-x="374" d="M102 0v965h170v-965h-170z" />
<glyph unicode="J" horiz-adv-x="724" d="M18 287v51h168v-49q0 -92 29 -133t104 -41q78 0 107 44t29 142v664h168v-654q0 -152 -54 -229q-78 -96 -264 -96q-147 0 -217 79.5t-70 221.5z" />
<glyph unicode="K" horiz-adv-x="925" d="M102 0v965h170v-439l430 439h207l-385 -385l412 -580h-211l-315 461l-138 -137v-324h-170z" />
<glyph unicode="L" horiz-adv-x="776" d="M102 0v965h170v-820h490v-145h-660z" />
<glyph unicode="M" horiz-adv-x="1202" d="M100 0v965h238l266 -756l262 756h236v-965h-162v745l-270 -745h-140l-266 745l-4 -745h-160z" />
<glyph unicode="N" horiz-adv-x="976" d="M96 0v965h178l441 -711l2 711h162v-965h-179l-440 709l-4 -709h-160z" />
<glyph unicode="O" horiz-adv-x="1028" d="M51 483q0 215 125 359q127 145 338 145t340 -147q123 -142 123 -357q0 -213 -127 -358q-127 -139 -336 -139t-340 141q-123 141 -123 356zM221 483q0 -156 68 -254q77 -114 222 -114h3q143 0 223 114q70 100 70 254t-68 252q-78 115 -225 115t-223 -113 q-70 -100 -70 -254z" />
<glyph unicode="P" horiz-adv-x="901" d="M102 0v965h426q182 0 267 -105q61 -77 61 -194q0 -113 -59 -191q-84 -104 -269 -104h-256v-371h-170zM272 508h246q68 0 113 33q57 43 57 127q0 88 -45 123.5t-121 35.5h-250v-319z" />
<glyph unicode="Q" horiz-adv-x="1028" d="M51 483q0 215 125 359q127 145 338 145t340 -147q123 -142 123 -357q0 -111 -33 -207t-104 -163l125 -109l-84 -84l-140 115q-49 -29 -109.5 -39t-117.5 -10q-209 0 -340 141q-123 141 -123 356zM221 483q0 -156 68 -254q77 -114 222 -114h3q31 0 55.5 4t53.5 18l-99 86 l82 92l117 -102q45 53 64.5 120.5t19.5 149.5q0 154 -68 252q-78 115 -225 115t-223 -113q-70 -100 -70 -254z" />
<glyph unicode="R" horiz-adv-x="952" d="M102 0v965h461q319 0 320 -260q0 -94 -42 -157t-118 -87q55 -10 92 -49q51 -51 51 -158q0 -92 13.5 -158.5t40.5 -95.5h-183q-18 31 -21 73t-3 68q0 141 -37 195q-43 61 -156 61h-248v-397h-170zM272 526h277q164 0 164 154q0 86 -45 116.5t-121 30.5h-275v-301z" />
<glyph unicode="S" horiz-adv-x="876" d="M45 322h168q0 -106 72 -160q66 -47 174 -47q104 0 153.5 42t49.5 103q0 51 -22 79t-62 42q-20 8 -54.5 17.5t-83.5 21.5q-47 14 -84 23.5t-61 15.5q-115 31 -168 102q-45 57 -45 144q0 135 111 213q93 69 237 69h4q158 0 264 -82q106 -80 107 -225h-170q0 88 -56.5 129 t-150.5 41q-74 0 -119 -25q-59 -35 -59 -100q0 -49 30.5 -80t84.5 -45l278 -74q90 -27 139 -97t49 -148q0 -154 -118 -234q-102 -61 -267 -61q-176 0 -282 73q-119 88 -119 263z" />
<glyph unicode="T" horiz-adv-x="800" d="M10 819v146h783v-146h-308v-819h-170v819h-305z" />
<glyph unicode="U" horiz-adv-x="976" d="M92 348v617h168v-562q0 -131 31 -188q49 -92 196 -92q145 0 195 90q33 57 33 190v562h170v-617q0 -186 -105.5 -274t-292.5 -88q-186 0 -290.5 88t-104.5 274z" />
<glyph unicode="V" horiz-adv-x="825" d="M0 965h168l244 -764l250 764h172l-330 -965h-189z" />
<glyph unicode="W" horiz-adv-x="1275" d="M8 965h172l174 -738l197 738h174l188 -738l183 738h172l-267 -965h-172l-192 737l-201 -737h-174z" />
<glyph unicode="X" horiz-adv-x="876" d="M0 0l338 500l-320 465h203l217 -340l230 340h188l-317 -465l342 -500h-207l-240 369l-246 -369h-188z" />
<glyph unicode="Y" horiz-adv-x="876" d="M0 965h188l254 -433l252 433h191l-363 -586v-379h-168v379z" />
<glyph unicode="Z" horiz-adv-x="851" d="M31 0v137l563 682h-520v146h735v-127l-563 -693h575v-145h-790z" />
<glyph unicode="[" horiz-adv-x="399" d="M98 -250v1237h301v-121h-155v-995h155v-121h-301z" />
<glyph unicode="\" horiz-adv-x="475" d="M-23 987h140l389 -1001h-148z" />
<glyph unicode="]" horiz-adv-x="399" d="M2 -129h156v995h-156v121h301v-1237h-301v121z" />
<glyph unicode="^" horiz-adv-x="811" d="M113 453l243 493h99l243 -493h-139l-153 333l-154 -333h-139z" />
<glyph unicode="_" horiz-adv-x="675" d="M0 -92h676v-68h-676v68z" />
<glyph unicode="`" horiz-adv-x="325" d="M-31 987h172l123 -192h-110z" />
<glyph unicode="a" horiz-adv-x="751" d="M43 184q0 117 86 170q45 33 156 45q51 8 94 14.5t80 12.5q63 14 63 76q0 53 -44 73.5t-101 20.5q-68 0 -111 -27.5t-43 -83.5h-153q0 125 100 183q82 49 217 49q121 0 191 -45q88 -51 88 -158v-358q0 -53 36 -54l39 2v-104q-25 -4 -49 -7t-49 -3q-51 0 -81 14t-38 62 q-43 -41 -109.5 -58.5t-131.5 -17.5q-100 0 -166 41q-74 55 -74 153zM197 193q0 -47 51 -72q39 -18 92 -19q63 0 111 29q61 37 61 105v114q-29 -23 -83 -29t-107 -15q-54 -8 -92 -32q-34 -21 -33 -70v-11z" />
<glyph unicode="b" horiz-adv-x="825" d="M86 0v965h154v-357q33 51 91 80t120 29q154 0 243 -109q82 -100 82 -262q0 -150 -71 -252q-84 -104 -230 -104q-82 0 -145.5 20.5t-96.5 85.5l-2 -96h-145zM233 348q0 -106 52.5 -176t144.5 -70q96 0 150 78q43 64 43 168q0 100 -48 172q-51 76 -145 76 q-98 0 -147.5 -65.5t-49.5 -182.5z" />
<glyph unicode="c" horiz-adv-x="751" d="M47 342q0 82 22.5 150.5t66.5 119t107.5 78t147.5 27.5q68 0 125 -16.5t99 -48t67 -79t25 -108.5h-154q-18 131 -160 131q-72 0 -125 -47q-67 -65 -67 -203q0 -102 41 -168q49 -76 145 -76q68 0 112 42t54 118h154q-20 -135 -102.5 -203.5t-217.5 -68.5q-160 0 -250 96 t-90 256z" />
<glyph unicode="d" horiz-adv-x="825" d="M47 354q0 180 94 275q82 88 209 88q74 0 136.5 -26.5t95.5 -82.5l4 357h153v-965h-145v94q-31 -57 -89.5 -80.5t-129.5 -23.5q-160 0 -244 99t-84 265zM201 342q0 -104 48 -172t146 -68q94 0 148 78q47 72 47 170q0 117 -50.5 181.5t-142.5 64.5q-100 0 -148 -75 t-48 -179z" />
<glyph unicode="e" horiz-adv-x="751" d="M47 348q0 152 92 260q96 109 246 109t244 -107q90 -102 90 -248v-26q-2 -10 -3 -16.5t-1 -10.5h-514q0 -88 48 -147.5t140 -59.5q129 0 170 117h148q-27 -113 -111 -171t-207 -58q-162 0 -252 96t-90 262zM201 412h360q0 76 -50 130t-126 54q-78 0 -131 -53.5t-53 -130.5 z" />
<glyph unicode="f" horiz-adv-x="425" d="M12 584v114h115v60q0 121 59 170q45 37 133 37h56q35 0 53 -9v-120q-16 8 -72 8q-35 0 -55 -16.5t-20 -57.5v-72h131v-114h-131v-584h-154v584h-115z" />
<glyph unicode="g" horiz-adv-x="800" d="M47 369q0 143 86 245q90 102 232 103q70 0 123 -27.5t83 -87.5l2 96h154v-661q0 -305 -344 -305q-119 0 -203 47q-98 57 -108 170h153q12 -59 62 -84q37 -18 106 -19q180 0 180 170v107q-74 -123 -213 -123q-156 0 -239 109q-74 94 -74 260zM201 352q0 -94 46 -162.5 t138 -68.5q96 0 145 76q43 64 43 168q0 100 -43 161q-49 70 -145 70q-94 0 -143 -78q-41 -66 -41 -166z" />
<glyph unicode="h" horiz-adv-x="776" d="M82 0v965h154v-359q33 51 87 81t123 30q117 0 182.5 -60.5t65.5 -177.5v-479h-153v438q0 158 -138 158q-76 0 -121.5 -52t-45.5 -132v-412h-154z" />
<glyph unicode="i" horiz-adv-x="325" d="M86 0v698h154v-698h-154zM86 819v146h154v-146h-154z" />
<glyph unicode="j" horiz-adv-x="325" d="M-23 -141l46 -6q41 0 52 22.5t11 79.5v743h154v-749q0 -106 -47.5 -161.5t-153.5 -55.5l-62 4v123zM86 819v146h154v-146h-154z" />
<glyph unicode="k" horiz-adv-x="724" d="M86 0v965h154v-549l278 282h189l-269 -256l295 -442h-188l-213 340l-92 -90v-250h-154z" />
<glyph unicode="l" horiz-adv-x="325" d="M86 0v965h154v-965h-154z" />
<glyph unicode="m" horiz-adv-x="1175" d="M82 0v698h145v-96q43 55 86 82q51 33 133 33q68 0 120 -27.5t75 -87.5q43 57 94 86t125 29q117 0 176.5 -54.5t59.5 -179.5v-483h-156v408q0 90 -16 135q-29 53 -111 53q-147 0 -147 -186v-410h-156v449q0 78 -26.5 112.5t-96.5 34.5q-63 0 -107 -47t-44 -133v-416h-154z " />
<glyph unicode="n" horiz-adv-x="776" d="M82 0v698h145v-102q37 55 94.5 88t124.5 33q117 0 182.5 -60.5t65.5 -177.5v-479h-153v438q0 158 -138 158q-76 0 -121.5 -52t-45.5 -132v-412h-154z" />
<glyph unicode="o" horiz-adv-x="800" d="M49 350q0 82 23.5 149.5t69.5 116t110.5 75t148.5 26.5q82 0 147.5 -26.5t112 -75t70 -116t23.5 -149.5q0 -166 -92.5 -263t-260.5 -97q-166 0 -259 97t-93 263zM203 350q0 -51 12 -96t38 -79t62.5 -53.5t85.5 -19.5t86 20.5t61.5 54.5t38 79t13.5 94q0 96 -47 168 q-55 78 -152 78q-47 0 -83.5 -20.5t-62.5 -54.5t-39 -78t-13 -93z" />
<glyph unicode="p" horiz-adv-x="825" d="M86 -250v948h145v-94q33 57 90.5 85t129.5 28q154 0 243 -109q82 -100 82 -262q0 -150 -71 -252q-84 -104 -230 -104q-74 0 -135 22.5t-98 77.5l-2 -340h-154zM233 348q0 -106 52.5 -176t144.5 -70q96 0 150 78q43 64 43 168q0 100 -48 172q-51 76 -145 76 q-98 0 -147.5 -65.5t-49.5 -182.5z" />
<glyph unicode="q" horiz-adv-x="825" d="M47 346q0 164 80 262q90 109 248 109q74 0 128 -26.5t87 -86.5l4 94h145v-948h-153v340q-35 -53 -101.5 -76.5t-136.5 -23.5q-143 0 -227 102q-74 100 -74 254zM201 348q0 -104 43 -168q53 -78 151 -78t146.5 64.5t48.5 181.5t-50.5 182.5t-144.5 65.5q-47 0 -83 -19.5 t-60.5 -53.5t-37.5 -79t-13 -96z" />
<glyph unicode="r" horiz-adv-x="475" d="M82 0v698h143v-135q8 29 28.5 56.5t49.5 49t61.5 35t67.5 13.5l60 -4v-148l-68 6q-82 0 -135 -63.5t-53 -175.5v-332h-154z" />
<glyph unicode="s" horiz-adv-x="702" d="M43 225h154q6 -63 49 -93t110 -30q72 0 99 15q55 20 55 78q0 49 -72 77q-8 4 -47 13.5t-108 25.5q-109 23 -156 58q-70 51 -70 149q0 102 99 156q80 43 194 43q115 0 193 -47q82 -55 98 -166h-160q-10 49 -48 70.5t-93 21.5q-66 0 -96.5 -19.5t-30.5 -52.5q0 -49 70 -73 q8 -4 47 -13.5t108 -25.5q109 -23 156 -58q72 -53 72 -145q0 -115 -103 -176q-90 -43 -211 -43q-141 0 -225 56t-84 179z" />
<glyph unicode="t" horiz-adv-x="450" d="M10 584v114h117v211h154v-211h139v-114h-139v-373q0 -55 13 -75.5t62 -20.5q41 0 64 6v-119q-12 -2 -25 -2h-22h-54q-113 0 -152.5 39t-39.5 133v412h-117z" />
<glyph unicode="u" horiz-adv-x="776" d="M82 256v442h154v-428q0 -88 33.5 -128t99.5 -40q92 0 132 51.5t40 139.5v405h153v-698h-151v98q-29 -53 -84.5 -80.5t-116.5 -27.5q-260 0 -260 266z" />
<glyph unicode="v" horiz-adv-x="702" d="M12 698h168l176 -536l174 536h160l-252 -698h-172z" />
<glyph unicode="w" horiz-adv-x="1050" d="M18 698h162l137 -522l134 522h155l127 -522l144 522h157l-219 -698h-158l-131 518l-131 -518h-162z" />
<glyph unicode="x" horiz-adv-x="724" d="M6 0l262 369l-241 329h186l147 -215l152 215h178l-237 -323l268 -375h-186l-177 258l-172 -258h-180z" />
<glyph unicode="y" horiz-adv-x="702" d="M4 698h168l184 -522l179 522h161l-272 -727q-63 -160 -113 -198q-53 -41 -135 -41h-65q-14 4 -24.5 5t-16.5 3v129q25 -4 43 -7t30 -3q49 0 71 23.5t38 74.5l16 45z" />
<glyph unicode="z" horiz-adv-x="675" d="M31 0v109l385 469h-359v120h568v-108l-400 -469h420v-121h-614z" />
<glyph unicode="{" horiz-adv-x="399" d="M0 303v123q37 0 72 18q49 27 49 80v279q0 88 63 139q51 45 111 45h123v-121h-74q-47 0 -61.5 -26.5t-14.5 -67.5v-264q0 -72 -53 -109q-41 -29 -88 -32q59 -8 86 -29q55 -41 55 -125v-246q0 -33 11 -63q18 -33 65 -33h74v-121h-123q-57 0 -109 43q-66 55 -65 141v261 q0 29 -12.5 49t-31 33.5t-40 19.5t-37.5 6z" />
<glyph unicode="|" horiz-adv-x="301" d="M82 -14v1001h137v-1001h-137z" />
<glyph unicode="}" horiz-adv-x="399" d="M-10 -129h67q35 0 55.5 20.5t20.5 75.5v254q0 70 53 111q16 10 38 19t48 14q-59 8 -86 28q-53 37 -53 123v256q0 39 -12 62q-18 33 -64 32h-67v121h114q55 0 109 -43q66 -55 66 -141v-268q0 -59 49 -86q41 -23 78 -23v-123q-57 0 -92 -28.5t-35 -69.5v-271 q0 -88 -64 -139q-51 -45 -111 -45h-114v121z" />
<glyph unicode="~" horiz-adv-x="811" d="M94 340q27 53 60 80q45 37 108 37q37 0 90 -19q16 -4 60 -24q31 -14 49 -21.5t26 -11.5q53 -16 64 -16q41 0 82 43q27 33 37 49l47 -113q-49 -72 -86 -94.5t-82 -22.5q-31 -4 -65.5 11.5t-71.5 34t-76 34t-80 12.5q-39 0 -72 -30q-23 -18 -43 -62z" />
<glyph unicode="&#xa4;" horiz-adv-x="839" d="M8 164l76 -76l145 148q82 -61 193 -62q53 0 105.5 18.5t82.5 43.5l150 -148l71 76l-145 145q59 78 59 193q0 111 -59 188l145 150l-71 71l-150 -145q-33 27 -83 43t-105 16q-115 0 -193 -59l-145 145l-76 -71l148 -150q-61 -74 -62 -188q0 -111 62 -193zM197 502 q0 88 65 160q64 67 160 67q49 0 89 -18.5t69.5 -49t46 -72.5t16.5 -87q0 -100 -63 -164q-66 -68 -158 -68q-98 0 -162 68q-63 70 -63 164z" />
<glyph unicode="&#xa9;" horiz-adv-x="1081" d="M33 485q0 211 147 357q152 145 363 145q205 0 356 -145q150 -144 150 -357q0 -217 -150 -360q-152 -139 -356 -139q-211 0 -361 137q-150 143 -149 362zM125 485q0 -186 119 -311q119 -123 299 -123q174 0 295 123q118 118 118 311q0 176 -120 303q-119 125 -293 125 q-180 0 -299 -125q-119 -119 -119 -303zM258 483q0 137 78 222.5t219 85.5q98 0 169 -53.5t85 -151.5h-86q-10 57 -55 94t-113 37q-94 0 -149.5 -65.5t-55.5 -166.5q0 -49 15.5 -92t43 -75.5t65.5 -51t85 -18.5q66 0 110 38t54 99h86q-23 -98 -89.5 -155.5t-160.5 -57.5 q-68 0 -124 23.5t-95 64.5t-60.5 98.5t-21.5 124.5z" />
<glyph unicode="&#xab;" horiz-adv-x="626" d="M68 293v149l208 168v-139l-126 -102l126 -105v-139zM336 293v149l209 168v-139l-129 -102l129 -105v-139z" />
<glyph unicode="&#xac;" horiz-adv-x="811" d="M78 317h571v-186h84v268h-655v-82z" />
<glyph unicode="&#xad;" horiz-adv-x="811" d="M78 328h655v61h-655v-61z" />
<glyph unicode="&#xae;" horiz-adv-x="1081" d="M33 485q0 211 147 357q152 145 363 145q205 0 356 -145q150 -144 150 -357q0 -217 -150 -360q-152 -139 -356 -139q-211 0 -361 137q-150 143 -149 362zM125 485q0 -186 119 -311q119 -123 299 -123q174 0 295 123q118 118 118 311q0 186 -118 306q-121 123 -295 122 q-180 0 -299 -125q-119 -119 -119 -303zM344 188v590h229q207 0 207 -168q0 -76 -42 -114.5t-113 -46.5l168 -261h-99l-159 254h-99v-254h-92zM436 516h96q96 0 126 24.5t30 73.5q0 51 -36 71t-93 20h-123v-189z" />
<glyph unicode="&#xb0;" horiz-adv-x="540" d="M66 713q0 41 15 77.5t43 64.5t63.5 44t78.5 16t80 -15t64.5 -43t44 -64.5t16.5 -79.5t-16.5 -80t-44 -64.5t-64.5 -43t-80 -15.5q-41 0 -76.5 15.5t-63.5 43t-44 64.5t-16 80zM121 713q0 -59 43 -103.5t102 -44.5q61 0 105 43q45 45 45 105q0 59 -44.5 102t-105.5 43 t-103 -42t-42 -103z" />
<glyph unicode="&#xb6;" horiz-adv-x="727" d="M0 858q0 154 94 229q90 66 248 66h389v-41h-102v-1358h-62v1358h-145v-1358h-55v807q-168 0 -263 62q-104 74 -104 235z" />
<glyph unicode="&#xb7;" horiz-adv-x="337" d="M96 449q0 31 20.5 51t53.5 20q31 0 51.5 -21.5t20.5 -49.5q0 -31 -21.5 -52.5t-50.5 -21.5q-33 0 -53.5 20.5t-20.5 53.5z" />
<glyph unicode="&#xbb;" horiz-adv-x="626" d="M82 125v139l127 105l-127 102v139l209 -168v-149zM348 125v139l129 105l-129 102v139l211 -168v-149z" />
<glyph unicode="&#xd7;" horiz-adv-x="811" d="M74 106l235 236l-235 236l116 75l213 -215l218 215l116 -75l-237 -236l237 -236l-116 -75l-218 217l-213 -217z" />
<glyph unicode="&#xf7;" horiz-adv-x="811" d="M66 272v140h679v-140h-679zM307 63q0 41 29 70t70 29t69.5 -29t28.5 -70q0 -37 -30 -62.5t-66 -25.5q-41 0 -71 24t-30 64zM307 621q0 41 30 68.5t69 27.5q41 0 69.5 -26.5t28.5 -69.5q0 -37 -29 -68t-67 -31q-39 0 -70 29t-31 70z" />
<glyph unicode="&#xe00;" horiz-adv-x="204" />
<glyph unicode="&#xe01;" horiz-adv-x="851" d="M82 0v651q59 86 146 134.5t198 48.5q74 0 137.5 -18.5t109.5 -55.5t71.5 -90.5t25.5 -120.5v-549h-160v543q0 70 -54 111.5t-130 41.5q-117 0 -184 -86v-610h-160z" />
<glyph unicode="&#xe02;" horiz-adv-x="768" d="M45 322q0 92 51 167q43 68 117 121l-111 135l136 86l170 -223q-205 -125 -205 -286q0 -82 48 -139.5t128 -57.5q66 0 107.5 46t41.5 108v540h160v-540q0 -127 -88 -209q-82 -76 -221 -76q-145 0 -240 88q-94 94 -94 240z" />
<glyph unicode="&#xe03;" horiz-adv-x="778" d="M27 737l82 92q29 -14 53 -31.5t37 -29.5l59 51h123v-266q-80 -31 -127 -94.5t-47 -139.5q0 -82 47 -138t133 -56q63 0 107.5 48t44.5 110v536h157v-536q0 -127 -90 -211q-90 -78 -219 -78q-143 0 -237 86q-94 92 -95 239q0 90 56 168q23 29 51 56.5t67 50.5v63l-45 -32 q-12 14 -22 23t-19 18q-27 23 -55.5 40t-60.5 31z" />
<glyph unicode="&#xe04;" horiz-adv-x="851" d="M82 0v545q0 127 96 207q94 82 248 82q152 0 246 -82q98 -80 98 -207v-545h-160v545q0 66 -53 106.5t-131 40.5t-130 -42t-52 -105v-60h235v-143h-235v-342h-162z" />
<glyph unicode="&#xe05;" horiz-adv-x="894" d="M82 0v557q0 109 74 193q78 84 198 84l95 -84l96 84q121 0 198 -84q70 -76 70 -193v-557h-162v567q0 90 -78 119l-120 -119l-134 119q-74 -31 -73 -119v-82h256v-143h-256v-342h-164z" />
<glyph unicode="&#xe06;" horiz-adv-x="876" d="M14 737l82 92q29 -14 53.5 -31.5t36.5 -29.5l60 51h133v-211q0 -25 -78 -96q-39 -33 -39 -70v-145q0 -63 69.5 -118.5t143.5 -55.5q76 0 118 44t42 105v547h160v-551q0 -129 -75 -201.5t-210 -72.5q-82 0 -152 31q-53 29 -96 77v-102h-160v459q0 49 57.5 88t57.5 69v41 l-45 -32q-12 14 -22.5 23t-18.5 18q-27 23 -55.5 40t-61.5 31z" />
<glyph unicode="&#xe07;" horiz-adv-x="794" d="M0 819h156l155 -680q129 0 203 72t74 195q0 135 -77 201.5t-251 66.5v147q248 0 369 -105t121 -310q0 -199 -122 -302.5t-352 -103.5h-92z" />
<glyph unicode="&#xe08;" horiz-adv-x="811" d="M0 670q72 76 168 120t207 44q174 0 282.5 -115t108.5 -293q0 -184 -123 -307q-119 -119 -332 -119h-39h-22l-86 381h-82v143h221l82 -377q94 8 160 89q61 82 61 190q0 113 -69.5 184.5t-182.5 71.5q-145 0 -256 -111z" />
<glyph unicode="&#xe09;" horiz-adv-x="815" d="M16 348v144h222v-242q0 -66 36.5 -98.5t100.5 -32.5q72 0 137 53q66 55 66 125v248q0 66 -53.5 108.5t-129.5 42.5q-70 0 -124 -33.5t-76 -103.5h-154q23 131 129 207q98 68 225 68q143 0 238 -76q100 -74 100 -199v-459l41 -100h-196v102q-29 -41 -86 -73 q-80 -35 -152 -35q-115 0 -184 55q-74 70 -74 199v100h-66z" />
<glyph unicode="&#xe0a;" horiz-adv-x="780" d="M82 41v778h162v-680q8 -2 41.5 -8t66.5 -6q100 0 161.5 59.5t61.5 147.5q0 96 -55 162q-57 70 -203 112l240 228l154 -62l-160 -151q184 -90 184 -297q0 -147 -96 -238q-109 -90 -287 -90q-96 0 -190 18q-16 4 -37 10.5t-43 16.5z" />
<glyph unicode="&#xe0b;" horiz-adv-x="811" d="M0 737l82 92q33 -14 59 -38l9.5 -9.5t11.5 -13.5l59 51h127v-186q0 -31 -24 -64q-57 -76 -58 -114v-316q2 0 15.5 -2t32 -5t38 -5t31.5 -2q100 0 161.5 59.5t61.5 147.5q0 96 -55 162q-57 70 -203 112l240 228l155 -60l-161 -153q184 -90 184 -297q0 -147 -96 -238 q-109 -90 -287 -90q-96 0 -190 18q-16 4 -37 10.5t-43 16.5v428q0 43 53 109q27 33 27 61v18l-46 -32q-10 10 -18 19l-16 18q-20 23 -49 41t-64 34z" />
<glyph unicode="&#xe0c;" horiz-adv-x="1368" d="M82 0v651q59 86 146 134.5t198 48.5q74 0 137.5 -18.5t109.5 -55.5t71.5 -90.5t25.5 -120.5v-246q0 -70 61 -127q63 -57 144 -57q68 0 109.5 42t41.5 113v545h160v-555q0 -129 -71.5 -199.5t-200.5 -70.5q-92 0 -156 33q-43 25 -88 75v-102h-160v543q0 70 -54 111.5 t-130 41.5q-117 0 -184 -86v-473h120v-137h-280z" />
<glyph unicode="&#xe0d;" horiz-adv-x="1368" d="M82 0v651q59 86 146 134.5t198 48.5q74 0 137.5 -18.5t109.5 -55.5t71.5 -90.5t25.5 -120.5v-82q0 -61 48 -95t128 -34q78 0 129 36t51 101v344h160v-534q0 -129 -100 -215q-102 -78 -250 -78q-182 0 -326 86l80 119q109 -78 236 -78q88 0 144 48t56 112 q-31 -33 -84 -55.5t-110 -22.5q-154 0 -238 66.5t-84 191.5v84q0 70 -54 111.5t-130 41.5q-117 0 -184 -86v-473h120v-137h-280z" />
<glyph unicode="&#xe0e;" horiz-adv-x="860" d="M10 0v143h82v508q59 86 146.5 134.5t197.5 48.5q74 0 137.5 -18.5t109.5 -55.5t71.5 -90.5t25.5 -120.5v-848h-159l-150 119l-154 -119h-307v143h279l186 133l146 -108v674q0 70 -54.5 111.5t-130.5 41.5q-117 0 -184 -86v-610h-242z" />
<glyph unicode="&#xe0f;" horiz-adv-x="860" d="M10 0v143h82v508q59 86 146.5 134.5t197.5 48.5q74 0 137.5 -18.5t109.5 -55.5t71.5 -90.5t25.5 -120.5v-848h-153l-88 88l-109 -111l-106 111l-91 -88h-223v143h176l146 119l98 -104l107 104l84 -78v658q0 70 -54.5 111.5t-130.5 41.5q-117 0 -184 -86v-610h-242z" />
<glyph unicode="&#xe10;" horiz-adv-x="813" d="M0 670q72 76 168 120t207 44q82 0 174 -35l69 92l148 -72l-94 -112q94 -107 94 -281q0 -184 -123 -307q-119 -119 -332 -119h-39h-22l-86 381h-82v143h221l82 -377q94 8 160 89q61 82 61 190q0 113 -69.5 184.5t-182.5 71.5q-145 0 -256 -111zM18 -152h170l129 95l97 -95 l96 95l100 -84v98l-32 43h192v-295h-170l-88 82l-98 -106l-107 106l-86 -82h-203v143z" />
<glyph unicode="&#xe11;" horiz-adv-x="886" d="M4 737l82 92q29 -14 53.5 -31.5t36.5 -29.5l60 51h133v-186q0 -35 -29 -76q-68 -86 -68 -115v-88q0 -25 -5 -63.5t-11 -75.5q10 29 19.5 50.5t15.5 37.5q18 45 32.5 78t24.5 53l199 389q135 0 196.5 -50t61.5 -181v-592h-160v594q0 61 -45 61l-328 -655h-159v453 q0 49 63 106q31 27 31 57v41l-45 -32q-12 14 -22.5 23t-18.5 18q-27 23 -55.5 40t-61.5 31z" />
<glyph unicode="&#xe12;" horiz-adv-x="1417" d="M49 395q0 162 88 281q88 123 215 153l113 -94l98 88q125 -14 189.5 -84.5t64.5 -187.5v-248q0 -70 62 -127q63 -57 143 -57q68 0 110 42t42 113v545h159v-555q0 -129 -71.5 -199.5t-200.5 -70.5q-92 0 -156 33q-43 25 -88 75v-102h-162v563q0 72 -55 107l-131 -115 l-139 115q-47 -41 -80 -107q-41 -94 -41 -168q0 -111 41 -181.5t121 -70.5q61 0 108 62l111 -99q-86 -109 -225 -108q-147 0 -231.5 105.5t-84.5 291.5z" />
<glyph unicode="&#xe13;" horiz-adv-x="1368" d="M82 0v651q59 86 146 134.5t198 48.5q74 0 137.5 -18.5t109.5 -55.5t71.5 -90.5t25.5 -120.5v-275q0 -74 41 -114.5t111 -40.5q84 0 141 57q63 57 63 127v516h160v-819h-160v102q-20 -23 -42.5 -41t-45.5 -32q-74 -35 -155 -35q-129 0 -201 69.5t-72 200.5v279 q0 70 -54 111.5t-130 41.5q-117 0 -184 -86v-473h120v-137h-280z" />
<glyph unicode="&#xe14;" horiz-adv-x="878" d="M47 391q0 178 121 311q119 131 293 132q131 0 221 -54q78 -47 115 -121v-659h-160v618q-14 29 -59.5 53.5t-108.5 24.5q-111 0 -186.5 -94t-75.5 -211q0 -104 40 -175t120 -71q61 0 110 54l107 -105q-51 -57 -104.5 -76.5t-112.5 -19.5q-156 0 -238 103.5t-82 289.5z" />
<glyph unicode="&#xe15;" horiz-adv-x="897" d="M47 395q0 162 88 281q88 123 215 153l113 -94l98 88q125 -14 189.5 -84.5t64.5 -187.5v-551h-162v563q0 72 -55 107l-131 -115l-139 115q-47 -41 -80 -107q-41 -94 -41 -168q0 -111 41 -181.5t121 -70.5q61 0 108 62l111 -99q-86 -109 -226 -108q-147 0 -231 105.5 t-84 291.5z" />
<glyph unicode="&#xe16;" horiz-adv-x="851" d="M82 0v651q59 86 146 134.5t198 48.5q74 0 137.5 -18.5t109.5 -55.5t71.5 -90.5t25.5 -120.5v-549h-160v543q0 70 -54 111.5t-130 41.5q-117 0 -184 -86v-473h120v-137h-280z" />
<glyph unicode="&#xe17;" horiz-adv-x="856" d="M82 0v819h160v-102q43 49 96 76q78 41 151 41q131 0 208 -77t77 -206v-551h-160v547q0 63 -41 106t-118 43q-76 0 -146 -55q-68 -53 -67 -119v-522h-160z" />
<glyph unicode="&#xe18;" horiz-adv-x="786" d="M53 606q0 96 94 160q96 66 218 65q129 0 225 -58t127 -171h-164q-16 45 -72.5 69.5t-126.5 24.5q-59 0 -99 -22.5t-40 -52.5q0 -31 64 -50q23 -8 53 -13t69 -9q143 -18 222 -72q104 -72 104 -209q0 -133 -109 -211q-102 -61 -260 -61q-45 0 -92 4t-98 12q-16 4 -39 10.5 t-51 16.5v297l155 55v-254q41 -14 125 -14q86 0 147.5 39t61.5 106q0 68 -63 101q-49 27 -129 37q-150 18 -225 57q-96 49 -97 143z" />
<glyph unicode="&#xe19;" horiz-adv-x="851" d="M82 268v551h160v-547q0 -63 41 -106t118 -43q72 0 144 53q70 55 69 121v522h160v-819h-160v102q-43 -49 -96 -75q-72 -33 -151 -33q-131 0 -208 72.5t-77 201.5z" />
<glyph unicode="&#xe1a;" horiz-adv-x="851" d="M82 274v545h160v-545q0 -66 49 -107.5t135 -41.5q82 0 133 41t51 108v545h160v-545q0 -121 -102 -204q-100 -76 -242 -76q-143 0 -244 74q-100 82 -100 206z" />
<glyph unicode="&#xe1b;" horiz-adv-x="851" d="M82 274v545h160v-545q0 -66 49 -107.5t135 -41.5q82 0 133 41t51 108v811h160v-811q0 -121 -102 -204q-100 -76 -242 -76q-143 0 -244 74q-100 82 -100 206z" />
<glyph unicode="&#xe1c;" horiz-adv-x="1069" d="M2 819h303v-139h-102l100 -385l176 524h109l182 -526l143 526h152l-223 -819h-121l-189 547l-184 -547h-119z" />
<glyph unicode="&#xe1d;" horiz-adv-x="1069" d="M2 819h303v-139h-102l100 -385l176 524h109l182 -526l213 792h152l-293 -1085h-121l-189 547l-184 -547h-119z" />
<glyph unicode="&#xe1e;" horiz-adv-x="1069" d="M2 819h162l139 -524l176 524h109l182 -526l143 526h152l-223 -819h-121l-189 547l-184 -547h-119z" />
<glyph unicode="&#xe1f;" horiz-adv-x="1069" d="M2 819h162l139 -524l176 524h109l182 -526l215 792h152l-295 -1085h-121l-189 547l-184 -547h-119z" />
<glyph unicode="&#xe20;" horiz-adv-x="862" d="M10 0v143h82v508q59 86 146.5 134.5t197.5 48.5q74 0 137.5 -18.5t109.5 -55.5t71.5 -90.5t25.5 -120.5v-549h-159v543q0 70 -54.5 111.5t-130.5 41.5q-117 0 -184 -86v-610h-242z" />
<glyph unicode="&#xe21;" horiz-adv-x="851" d="M82 0v819h160v-522q0 -63 69.5 -118.5t143.5 -55.5q76 0 117.5 44t41.5 105v547h160v-551q0 -129 -74.5 -201.5t-210.5 -72.5q-82 0 -151 31q-53 29 -96 77v-102h-160z" />
<glyph unicode="&#xe22;" horiz-adv-x="845" d="M47 260q0 72 49 125q41 47 101 68q-55 14 -91 55q-41 47 -40 104q0 45 19 85t55 70t84 46t108 16q88 0 143 -26v-150q-23 14 -57.5 22.5t-67.5 8.5q-51 0 -86 -19.5t-35 -54.5q0 -39 51.5 -62.5t120.5 -23.5q55 0 74 8v-143h-69q-86 0 -140.5 -33.5t-54.5 -93.5 q0 -63 59.5 -100t153.5 -37q63 0 107 16.5t73 40.5v637h160v-684q-23 -27 -44.5 -45t-37.5 -29q-115 -66 -258 -65q-180 0 -278.5 70.5t-98.5 193.5z" />
<glyph unicode="&#xe23;" horiz-adv-x="788" d="M45 279h158q0 -74 57 -114t139 -40q74 0 130.5 35t56.5 92q0 49 -54.5 75.5t-134.5 34.5q-207 23 -274 78q-61 45 -62 131q0 115 97 189q94 74 231 74t235.5 -66t118.5 -182h-161q-20 49 -76.5 79.5t-128.5 30.5q-63 0 -108.5 -27.5t-45.5 -74.5q0 -41 68 -62 q20 -6 61 -12t101 -14q61 -8 108 -21.5t80 -29.5q104 -60 104 -185q0 -131 -102 -209q-102 -68 -248 -67q-147 0 -241 63q-109 80 -109 222z" />
<glyph unicode="&#xe24;" horiz-adv-x="851" d="M82 0v651q59 86 146 134.5t198 48.5q74 0 137.5 -18.5t109.5 -55.5t71.5 -90.5t25.5 -120.5v-848h-160v842q0 70 -54 111.5t-130 41.5q-117 0 -184 -86v-473h120v-137h-280z" />
<glyph unicode="&#xe25;" horiz-adv-x="868" d="M43 262q0 63 25.5 118.5t73.5 94.5t116 61.5t152 22.5q63 0 119.5 -15.5t97.5 -41.5v94q-12 43 -66.5 71.5t-120.5 28.5q-70 0 -123 -29.5t-77 -86.5h-172q37 123 139 188.5t244 65.5q135 0 223 -56.5t112 -142.5v-635h-159v307q-29 49 -86.5 79t-130.5 30 q-92 0 -148.5 -43t-56.5 -111q0 -47 33.5 -85t89.5 -38q27 0 52.5 7.5t55.5 31.5l80 -112q-45 -39 -90 -53.5t-111 -14.5q-123 0 -197.5 73.5t-74.5 190.5z" />
<glyph unicode="&#xe26;" horiz-adv-x="862" d="M10 0v143h82v508q59 86 146.5 134.5t197.5 48.5q74 0 137.5 -18.5t109.5 -55.5t71.5 -90.5t25.5 -120.5v-848h-159v842q0 70 -54.5 111.5t-130.5 41.5q-117 0 -184 -86v-610h-242z" />
<glyph unicode="&#xe27;" horiz-adv-x="784" d="M39 287h164q23 -72 66.5 -115t113.5 -43q96 0 149 90q47 84 48 191q0 117 -48 194q-51 88 -149 88q-68 0 -114 -44t-66 -116h-164q29 135 118 218.5t226 83.5q166 0 262 -121q94 -119 94 -303q0 -182 -92 -299q-98 -117 -264 -117q-141 0 -228 78t-116 215z" />
<glyph unicode="&#xe28;" horiz-adv-x="847" d="M80 0v545q0 127 96 207q94 82 248 82q98 0 149 -27l56 84l147 -72l-78 -94q70 -70 70 -180v-545h-160v545q0 66 -53 106.5t-131 40.5t-130 -42t-52 -105v-60h235v-143h-235v-342h-162z" />
<glyph unicode="&#xe29;" horiz-adv-x="864" d="M82 274v545h160v-545q0 -66 49 -107.5t135 -41.5q82 0 133 41t51 108v86h-215v175l80 -31h135v315h160v-315h86v-144h-86v-86q0 -121 -102 -204q-100 -76 -242 -76q-143 0 -244 74q-100 82 -100 206z" />
<glyph unicode="&#xe2a;" horiz-adv-x="868" d="M43 262q0 63 25.5 118.5t73.5 94.5t116 61.5t152 22.5q63 0 119.5 -15.5t97.5 -41.5v94q-12 43 -66.5 71.5t-120.5 28.5q-70 0 -123 -29.5t-77 -86.5h-172q37 123 139 188.5t244 65.5q82 0 147 -25l59 82l148 -72l-78 -88q43 -41 59 -96v-635h-159v307q-29 49 -86.5 79 t-130.5 30q-92 0 -148.5 -43t-56.5 -111q0 -47 33.5 -85t89.5 -38q27 0 52.5 7.5t55.5 31.5l80 -112q-45 -39 -90 -53.5t-111 -14.5q-123 0 -197.5 73.5t-74.5 190.5z" />
<glyph unicode="&#xe2b;" horiz-adv-x="858" d="M82 0v819h160v-284l360 294l164 -41l-195 -159q98 -14 152.5 -73.5t54.5 -147.5v-408h-157v350q0 86 -36 132t-122 61l-221 -183v-360h-160z" />
<glyph unicode="&#xe2c;" horiz-adv-x="1069" d="M2 819h162l139 -524l176 524h109l182 -526l72 268q2 12 3 20.5t1 12.5q0 37 -22.5 59.5t-55.5 22.5h-66v143h89q119 0 139 70l20 74h158l-35 -123q-29 -102 -141 -115q72 -35 72 -111q0 -39 -9 -53l-153 -561h-121l-189 547l-184 -547h-119z" />
<glyph unicode="&#xe2d;" horiz-adv-x="925" d="M45 410l6 82h375v-144h-213q16 -100 82.5 -156.5t167.5 -56.5q117 0 187.5 76t70.5 199t-69.5 197.5t-188.5 74.5q-158 0 -227 -135h-173q43 141 151 214t249 73q188 0 301 -119q117 -117 117 -305q0 -184 -117 -304q-113 -113 -301 -112q-190 0 -303 110 q-115 121 -115 306z" />
<glyph unicode="&#xe2e;" horiz-adv-x="925" d="M45 410l6 82h375v-144h-213q16 -100 82.5 -156.5t167.5 -56.5q117 0 187.5 76t70.5 199t-69.5 197.5t-188.5 74.5q-158 0 -227 -135h-173q43 141 151 214t249 73q102 0 174 -33l70 90l147 -72l-90 -104q117 -117 117 -305q0 -184 -117 -304q-113 -113 -301 -112 q-190 0 -303 110q-115 121 -115 306z" />
<glyph unicode="&#xe2f;" horiz-adv-x="798" d="M25 623q0 43 19 80.5t55 65.5t83 44t103 16q39 0 77.5 -8t69.5 -20v-146q-33 16 -70.5 23.5t-74.5 7.5q-41 0 -72 -15.5t-31 -47.5q0 -35 41 -54.5t94 -19.5q86 0 158 41q45 27 80 67v162h160v-819h-160v492q-37 -31 -100.5 -56.5t-137.5 -25.5q-137 0 -215.5 62.5 t-78.5 150.5z" />
<glyph unicode="&#xe30;" horiz-adv-x="362" d="M51 102v187h160v-68h129v-119h-289zM51 530v187h160v-68h129v-119h-289z" />
<glyph unicode="&#xe31;" d="M-406 922v204h160v-86h436v-118h-596z" />
<glyph unicode="&#xe32;" horiz-adv-x="604" d="M33 635v158q43 20 86 30.5t104 10.5q147 0 223 -85t76 -221v-528h-160v508q0 86 -48 131t-134 45q-43 0 -83 -14.5t-64 -34.5z" />
<glyph unicode="&#xe33;" horiz-adv-x="589" d="M-287 1034q0 53 37 88t96 35q55 0 94.5 -35t39.5 -88t-37 -88t-97 -35q-55 0 -94 35t-39 88zM-205 1034q0 -18 15.5 -32.5t35.5 -14.5q18 0 35 14.5t17 32.5t-15.5 32.5t-36.5 14.5q-18 0 -34.5 -14t-16.5 -33zM33 635v158q43 20 86 30.5t104 10.5q147 0 223 -85t76 -221 v-528h-160v508q0 86 -48 131t-134 45q-43 0 -83 -14.5t-64 -34.5z" />
<glyph unicode="&#xe34;" d="M-729 922v118h655v-118h-655z" />
<glyph unicode="&#xe35;" d="M-729 922v118h496v107h159v-225h-655z" />
<glyph unicode="&#xe36;" d="M-729 922v118h457q0 49 35.5 83t86.5 34q53 0 89 -34t36 -85q0 -49 -35.5 -82.5t-89.5 -33.5h-579zM-193 1038q0 -18 12.5 -30.5t30.5 -12.5t31 12.5t13 30.5t-12.5 30.5t-31.5 12.5q-18 0 -30.5 -12t-12.5 -31z" />
<glyph unicode="&#xe37;" d="M-729 922v118h326v107h108v-107h62v107h159v-225h-655z" />
<glyph unicode="&#xe38;" d="M-315 -74h241v-256h-159v133h-82v123z" />
<glyph unicode="&#xe39;" d="M-512 -74h195v-135q14 -8 34 -8q49 0 50 37v106h159v-123q0 -66 -54 -101.5t-140 -35.5q-59 0 -103.5 14.5t-79.5 49.5v73h-61v123z" />
<glyph unicode="&#xe3a;" d="M-268 -176q0 41 32.5 71.5t79.5 30.5t80 -30.5t33 -71.5t-33 -72t-80 -31t-79.5 31t-32.5 72z" />
<glyph unicode="&#xe3f;" horiz-adv-x="952" d="M102 0v965h347v129h57v-129h65q137 0 212 -58.5t75 -181.5q0 -143 -137 -205q180 -45 180 -252q0 -121 -82 -190q-96 -78 -272 -78h-41v-121h-57v121h-347zM272 137h177v301h-177v-301zM272 561h177v266h-177v-266zM506 137h65q78 0 120 40t42 114q0 147 -162 147h-65 v-301zM506 561h41q143 0 143 133t-143 133h-41v-266z" />
<glyph unicode="&#xe40;" horiz-adv-x="364" d="M102 0v819h160v-819h-160z" />
<glyph unicode="&#xe41;" horiz-adv-x="667" d="M102 0v819h160v-819h-160zM406 0v819h159v-819h-159z" />
<glyph unicode="&#xe42;" horiz-adv-x="405" d="M0 1118q0 61 45 91t125 30h270v-129h-233q-47 0 -47 -8l61 -55q61 -55 62 -148v-899h-160v893q0 63 -64 121q-59 66 -59 104z" />
<glyph unicode="&#xe43;" horiz-adv-x="405" d="M-80 1049q0 96 70 163q57 68 160 68q104 0 167.5 -56.5t63.5 -136.5q0 -49 -49 -100q-49 -53 -49 -100v-887h-160v907q0 59 49 103q51 45 51 73q0 18 -8 33q-18 33 -61 33q-35 0 -59.5 -26.5t-24.5 -73.5h-150z" />
<glyph unicode="&#xe44;" horiz-adv-x="405" d="M-113 1167l95 103l110 -111l123 101l180 -191q-53 -41 -82.5 -97.5t-29.5 -123.5v-848h-160v829q0 59 18.5 109.5t75.5 110.5l-33 34l-106 -94z" />
<glyph unicode="&#xe45;" horiz-adv-x="626" d="M33 635v158q43 20 86 30.5t104 10.5q74 0 133.5 -23t100.5 -63.5t63.5 -96t22.5 -123.5v-827h-160v807q0 82 -53.5 129t-139.5 47q-100 0 -157 -49z" />
<glyph unicode="&#xe46;" horiz-adv-x="796" d="M33 410v157q0 125 62.5 193.5t180.5 68.5l97 -71l98 71q117 0 180.5 -69.5t63.5 -192.5v-866h-160v883q0 84 -55 106l-123 -102l-135 104q-49 -23 -49 -108v-31h141v-143h-301z" />
<glyph unicode="&#xe47;" d="M-690 922v88q0 94 60.5 154.5t172.5 60.5h383v-103h-377q-45 0 -72.5 -23.5t-27.5 -56.5h74l108 60l105 -60h127v-120h-137l-95 55l-98 -55h-223z" />
<glyph unicode="&#xe48;" d="M-233 1208v185h159v-185h-159z" />
<glyph unicode="&#xe49;" d="M-389 1319v92h102q47 0 70.5 -22.5t23.5 -57.5v-12h220v-111h-363v80q0 31 -26 31h-27z" />
<glyph unicode="&#xe4a;" d="M-403 1208v107q0 59 36.5 92t92.5 33h43l73 -51l70 51h39q49 0 84 -28t35 -87v-16h120v-101h-231v113q0 29 -27 29l-90 -64l-92 64q-37 0 -37 -31v-16h62v-95h-178z" />
<glyph unicode="&#xe4b;" d="M-317 1286v92h92v78h143v-78h84v-92h-84v-78h-143v78h-92z" />
<glyph unicode="&#xe4c;" d="M-272 1112v43q0 59 36.5 88t96.5 29h121v-92h-60q-51 0 -51 -45v-23h-143z" />
<glyph unicode="&#xe4d;" d="M-287 1034q0 53 37 88t96 35q55 0 94.5 -35t39.5 -88t-37 -88t-97 -35q-55 0 -94 35t-39 88zM-205 1034q0 -18 15.5 -32.5t35.5 -14.5q18 0 35 14.5t17 32.5t-15.5 32.5t-36.5 14.5q-18 0 -34.5 -14t-16.5 -33z" />
<glyph unicode="&#xe4e;" d="M-549 1135q0 33 16.5 59.5t40 46t51 31.5t50.5 16q-29 25 -29 68q0 39 39 82t92 63q51 20 126 27.5t138 7.5h25h2v-106q-37 4 -90 -1.5t-100.5 -16.5t-79 -26.5t-25.5 -29.5q0 -23 28.5 -31t69.5 -8h19h4v-94h-12h-17q-10 0 -16 2q-43 0 -68.5 -3t-62.5 -16 q-37 -10 -59.5 -28.5t-16.5 -38.5q6 -16 41 -17q27 0 62.5 10.5t60.5 28.5l53 -90q-35 -16 -55 -24q-66 -27 -125 -27q-6 2 -16 2h-11q-61 8 -98 39t-37 74z" />
<glyph unicode="&#xe4f;" horiz-adv-x="983" d="M72 410q0 174 122.5 296.5t297.5 122.5q174 0 296.5 -122.5t122.5 -296.5t-123 -297q-127 -115 -296 -115q-170 0 -297 115q-123 123 -123 297zM133 410q0 -147 105 -254q106 -104 254 -105q147 0 251 105q107 107 107 254t-107 252q-104 106 -251 106t-254 -106 q-104 -104 -105 -252zM236 410q0 106 73 180q76 76 183 76q106 0 180 -76q76 -74 76 -180t-76 -183q-74 -74 -180 -73q-106 0 -183 73q-74 76 -73 183z" />
<glyph unicode="&#xe50;" horiz-adv-x="835" d="M51 313q0 133 105 230q109 96 262 96q152 0 260 -96q106 -95 106 -230t-104 -229q-100 -88 -262 -88q-156 0 -262 88q-104 94 -105 229zM209 313q0 -76 57.5 -132t149.5 -56q90 0 149.5 55t59.5 133t-59.5 133.5t-149.5 55.5q-92 0 -149.5 -54.5t-57.5 -134.5z" />
<glyph unicode="&#xe51;" horiz-adv-x="884" d="M51 332q0 133 115 219q113 88 268 88q172 0 285 -88q117 -91 117 -236q0 -168 -140 -288q-127 -100 -315 -127l-74 114q156 14 258 86q111 76 111 195q0 92 -67.5 150.5t-180.5 58.5q-47 0 -87 -14.5t-68.5 -38t-46 -55t-17.5 -64.5q0 -43 19.5 -76t60.5 -49 q-18 18 -19 65q0 59 46 101.5t114 42.5t115 -43t47 -103q0 -86 -70.5 -144t-189.5 -58q-125 0 -203 73.5t-78 190.5zM369 272q0 -20 17 -37.5t44 -17.5q25 0 43.5 16t18.5 39t-17.5 38.5t-44.5 15.5t-44 -15.5t-17 -38.5z" />
<glyph unicode="&#xe52;" horiz-adv-x="1232" d="M-145 786l122 91q86 -80 151 -173.5t97 -187.5q35 -88 53.5 -176t32.5 -209h695v297q0 39 -26 58.5t-58 19.5q-20 0 -45 -12.5t-37 -30.5v-270h-148v270q-10 20 -35.5 34.5t-60.5 14.5q-37 0 -62.5 -17.5t-33.5 -41.5q66 0 110.5 -39t44.5 -99q0 -57 -45 -96t-110 -39 q-66 0 -111 39t-45 96v99q0 98 68.5 161.5t179.5 63.5q53 0 99 -17.5t75 -46.5q25 27 70 45.5t92 18.5t89 -14.5t74.5 -41t51 -63.5t18.5 -80v-440h-993q-14 141 -35.5 258t-54.5 215q-33 88 -81 161t-142 152zM457 317q0 -49 55 -49t55 49t-55 50q-55 0 -55 -50z" />
<glyph unicode="&#xe53;" horiz-adv-x="1021" d="M72 147v265q0 49 21.5 91t59 70.5t88 45t105.5 16.5q57 0 109.5 -20.5t79.5 -49.5q27 31 75.5 50.5t102.5 19.5q49 0 92 -14.5t74.5 -41t51 -63.5t19.5 -80v-436h-159v426q0 31 -28 48.5t-61 17.5q-63 0 -90 -37v-455h-155v457q-35 35 -103 35q-51 0 -84.5 -26t-33.5 -71 v-94q72 0 119.5 -44t47.5 -110t-48 -107.5t-117 -41.5q-70 0 -118 42t-48 107zM182 147q0 -57 60 -57q63 0 63 57q0 25 -17.5 41.5t-45.5 16.5q-59 0 -60 -58z" />
<glyph unicode="&#xe54;" horiz-adv-x="946" d="M47 299q0 141 111 233q113 94 272 95h264q47 0 68 69q14 41 14 148h164q0 -160 -51 -254q-59 -109 -176 -109h-283q-92 0 -154.5 -50t-62.5 -132q0 -76 60.5 -119t140.5 -43q41 0 98 10q-47 47 -47 113t49 109t119 43t118 -44t48 -104q0 -23 -7.5 -49.5t-19.5 -46.5 q68 -16 104.5 -32.5t73.5 -47.5l-96 -104q-43 16 -89 30.5t-89 14.5q-14 0 -51 -6.5t-99 -16.5q-35 -4 -64.5 -5t-55.5 -1q-147 0 -248 68q-111 82 -111 231zM569 264q0 -53 66 -53q23 0 37 8q26 14 26 45q0 23 -17 39t-46 16t-47.5 -16t-18.5 -39z" />
<glyph unicode="&#xe55;" horiz-adv-x="946" d="M47 299q0 106 73 186t185 113q-23 35 -22 72q0 68 56 116t136 48t136.5 -46.5t56.5 -117.5q0 -20 -17 -43h45q47 0 63.5 59t16.5 158h164q0 -160 -51 -254q-59 -109 -176 -109h-267q-47 0 -89 -12t-73.5 -35.5t-51 -57.5t-19.5 -77q0 -76 60.5 -119t140.5 -43q41 0 98 10 q-47 47 -47 113t49 109t119 43t118 -44t48 -104q0 -29 -8.5 -54.5t-18.5 -41.5q25 -4 45.5 -10t36.5 -13q29 -10 52.5 -25.5t43.5 -31.5l-96 -104q-43 16 -89 30.5t-89 14.5q-14 0 -51 -6.5t-99 -16.5q-35 -4 -64.5 -5t-55.5 -1q-147 0 -248 68q-111 82 -111 231zM406 672 q0 -27 19 -44.5t50 -17.5q72 1 72 62q0 25 -20.5 43t-51.5 18t-50 -17.5t-19 -43.5zM569 264q0 -55 66 -55q63 0 63 55q0 23 -17 40.5t-46 17.5t-47.5 -16.5t-18.5 -41.5z" />
<glyph unicode="&#xe56;" horiz-adv-x="892" d="M-98 754l116 90q88 -57 146 -127q45 -51 74 -133q41 23 101 39t122 16q168 0 276.5 -90.5t108.5 -231.5q0 -143 -117 -237q-121 -86 -289 -86q-152 0 -254 72q-88 70 -88 165q0 63 48.5 105.5t119.5 42.5q68 0 117 -43t49 -103q0 -59 -47 -100l55 -2q49 0 93.5 14.5 t76 39t51 58t19.5 74.5q0 78 -64.5 126.5t-158.5 48.5q-53 0 -108.5 -17.5t-108.5 -58.5l-121 28q-23 100 -80 179q-43 68 -137 131zM199 231q0 -20 17 -37.5t46 -17.5t47.5 16t18.5 39q0 55 -66 56q-63 0 -63 -56z" />
<glyph unicode="&#xe57;" horiz-adv-x="1271" d="M72 147v265q0 49 21.5 91t59 70.5t88 45t105.5 16.5q57 0 109.5 -20.5t79.5 -49.5q27 31 75.5 50.5t102.5 19.5q49 0 92 -14.5t74.5 -41t51 -63.5t19.5 -80v-295q29 0 55.5 20.5t26.5 55.5v385q0 82 43 148q35 53 105 94l139 -92q-55 -18 -88 -63.5t-33 -92.5v-379 q0 -104 -107.5 -160.5t-299.5 -56.5v426q0 31 -28 48.5t-61 17.5q-63 0 -90 -37v-455h-155v457q-35 35 -103 35q-51 0 -84.5 -26t-33.5 -71v-94q72 0 119.5 -44t47.5 -110t-48 -107.5t-117 -41.5q-70 0 -118 42t-48 107zM182 147q0 -57 60 -57q63 0 63 57q0 25 -17.5 41.5 t-45.5 16.5q-59 0 -60 -58z" />
<glyph unicode="&#xe58;" horiz-adv-x="980" d="M47 301q0 154 129 246q131 92 322 92q135 0 231 -18q20 39 38.5 96t27.5 127l159 -23q-16 -117 -53 -203t-100 -163q-66 18 -139.5 30.5t-143.5 12.5q-137 0 -221 -55.5t-84 -141.5q0 -51 28.5 -91t65.5 -56l142 127l190 -148l23 12q-66 41 -66 113q0 61 48 105.5 t118 44.5q72 0 120 -44.5t48 -109.5q0 -100 -121 -184q-80 -57 -195 -82l-161 112l-123 -112q-123 23 -197 102q-86 88 -86 211zM700 258q0 -16 13.5 -34.5t48.5 -18.5q27 0 44 15t17 38t-17.5 40t-43.5 17q-25 0 -43.5 -16t-18.5 -41z" />
<glyph unicode="&#xe59;" horiz-adv-x="1067" d="M47 324q0 137 105 227q100 88 258 88q129 0 229 -76q29 35 75 59.5t97 24.5q76 0 100 -24q14 41 15 118q0 66 -8 93h167q0 -18 2.5 -39t2.5 -33q0 -111 -34 -199t-91 -143l-76 18q0 25 -22.5 41.5t-51.5 16.5q-20 0 -40.5 -14.5t-26.5 -28.5q59 -82 97 -192.5t58 -252.5 l-168 -12q-14 111 -36.5 192.5t-51.5 141.5q-84 160 -237 159q-88 0 -142.5 -46t-54.5 -121q0 -57 20 -97q14 -31 37 -53q0 61 47.5 104t118.5 43q74 0 121 -45t47 -110q0 -78 -64.5 -122t-156.5 -44q-145 0 -240 92q-96 102 -96 234zM373 166q0 -20 18.5 -36.5t44.5 -16.5 q27 0 45.5 16.5t18.5 36.5q0 57 -64 57q-18 0 -33 -8q-31 -16 -30 -49z" />
<glyph unicode="&#xe5a;" horiz-adv-x="1060" d="M25 623q0 43 19 80.5t55 65.5t83 44t103 16q39 0 77.5 -8t69.5 -20v-146q-33 16 -70.5 23.5t-74.5 7.5q-41 0 -72 -15.5t-31 -47.5q0 -35 41 -54.5t94 -19.5q86 0 158 41q45 27 80 67v162h160v-819h-160v492q-37 -31 -100.5 -56.5t-137.5 -25.5q-137 0 -215.5 62.5 t-78.5 150.5zM819 0v819h160v-819h-160z" />
<glyph unicode="&#xe5b;" horiz-adv-x="1515" d="M61 416q0 160 76 260q76 106 191 106q49 0 91 -20.5t72.5 -56t48 -86t17.5 -107.5q0 -92 -43 -151.5t-108 -59.5q-55 0 -94.5 43t-39.5 107q0 59 39 104t92 45l15 -2q-23 72 -88 72q-61 0 -103.5 -75t-42.5 -187q0 -117 48.5 -184.5t129.5 -67.5q94 0 163 99t93 267 q8 55 22.5 74.5t45.5 19.5q66 0 102 -135l5 54q0 61 51 61q49 0 96 -98q6 31 14.5 46t30.5 15q27 0 48.5 -21.5t45.5 -66.5q10 29 20.5 43t30.5 14q31 0 70 -57q18 33 51 27l158 -19q64 -6 64 -45q0 -37 -64 -43l-147 -18q-8 -20 -23.5 -38t-32.5 -18q-16 0 -31.5 21.5 t-23.5 38.5q-8 -37 -25.5 -60.5t-40.5 -23.5q-12 0 -22 10t-19.5 23.5t-15.5 27t-10 19.5q-8 -45 -27.5 -74t-46.5 -29q-12 0 -22.5 11.5t-18.5 29t-14 37t-12 35.5q-20 -76 -43 -106.5t-58 -30.5q-43 0 -55 61l-19 74q-35 -125 -106 -209q-115 -123 -246 -123 q-66 0 -118 26.5t-91 74t-59.5 115t-20.5 151.5zM358 453q0 -57 45 -58q50 1 50 58t-50 57q-45 0 -45 -57z" />
<glyph unicode="&#x2000;" horiz-adv-x="799" />
<glyph unicode="&#x2001;" horiz-adv-x="1599" />
<glyph unicode="&#x2002;" horiz-adv-x="799" />
<glyph unicode="&#x2003;" horiz-adv-x="1599" />
<glyph unicode="&#x2004;" horiz-adv-x="533" />
<glyph unicode="&#x2005;" horiz-adv-x="399" />
<glyph unicode="&#x2006;" horiz-adv-x="266" />
<glyph unicode="&#x2007;" horiz-adv-x="266" />
<glyph unicode="&#x2008;" horiz-adv-x="199" />
<glyph unicode="&#x2009;" horiz-adv-x="319" />
<glyph unicode="&#x200a;" horiz-adv-x="88" />
<glyph unicode="&#x2010;" horiz-adv-x="526" d="M66 295v145h393v-145h-393z" />
<glyph unicode="&#x2011;" horiz-adv-x="526" d="M66 295v145h393v-145h-393z" />
<glyph unicode="&#x2012;" horiz-adv-x="526" d="M66 295v145h393v-145h-393z" />
<glyph unicode="&#x2013;" horiz-adv-x="811" d="M66 272v140h679v-140h-679z" />
<glyph unicode="&#x2014;" horiz-adv-x="1622" d="M66 272v140h1490v-140h-1490z" />
<glyph unicode="&#x2018;" horiz-adv-x="374" d="M104 584v182q0 72 47.5 125t120.5 74v-78q-82 -27 -82 -121h82v-182h-168z" />
<glyph unicode="&#x2019;" horiz-adv-x="374" d="M104 584v78q43 6 62.5 39.5t19.5 80.5h-82v183h168v-183q0 -80 -45 -134t-123 -64z" />
<glyph unicode="&#x201c;" horiz-adv-x="600" d="M82 584v182q0 72 47 125t121 74v-78q-82 -27 -82 -121h82v-182h-168zM350 584v182q0 72 47 125t121 74v-78q-82 -27 -82 -121h82v-182h-168z" />
<glyph unicode="&#x201d;" horiz-adv-x="600" d="M82 584v78q82 31 82 120h-82v183h168v-183q0 -72 -47 -125t-121 -73zM350 584v78q82 31 82 120h-82v183h168v-183q0 -72 -47 -125t-121 -73z" />
<glyph unicode="&#x2022;" horiz-adv-x="757" d="M72 410q0 127 90 217t217 90t217 -90t90 -217t-90 -217.5t-217 -90.5t-217 90.5t-90 217.5z" />
<glyph unicode="&#x2026;" horiz-adv-x="1351" d="M131 0v182h188v-182h-188zM582 0v182h188v-182h-188zM1032 0v182h187v-182h-187z" />
<glyph unicode="&#x202f;" horiz-adv-x="319" />
<glyph unicode="&#x205f;" horiz-adv-x="399" />
<glyph unicode="&#x25fc;" horiz-adv-x="696" d="M0 0v696h696v-696h-696z" />
<glyph unicode="&#xf700;" horiz-adv-x="813" d="M0 670q72 76 168 120t207 44q82 0 174 -35l69 92l148 -72l-94 -112q94 -107 94 -281q0 -184 -123 -307q-119 -119 -332 -119h-39h-22l-86 381h-82v143h221l82 -377q94 8 160 89q61 82 61 190q0 113 -69.5 184.5t-182.5 71.5q-145 0 -256 -111z" />
<glyph unicode="&#xf701;" d="M-930 922v118h615v-118h-615z" />
<glyph unicode="&#xf702;" d="M-930 922v118h455v107h160v-225h-615z" />
<glyph unicode="&#xf703;" d="M-930 922v118h410q0 49 35.5 83t87.5 34q53 0 89 -34t36 -85q0 -49 -36 -82.5t-89 -33.5h-533zM-440 1038q0 -18 12 -30.5t31 -12.5q18 0 30.5 12.5t12.5 30.5t-12.5 30.5t-30.5 12.5t-30.5 -12t-12.5 -31z" />
<glyph unicode="&#xf704;" d="M-930 922v118h285v107h108v-107h62v107h160v-225h-615z" />
<glyph unicode="&#xf705;" d="M-496 922v225h160v-225h-160z" />
<glyph unicode="&#xf706;" d="M-535 1044v103h113q106 0 107 -88v-15h325v-122h-485v90q0 33 -31 32h-29z" />
<glyph unicode="&#xf707;" d="M-850 922v116q0 68 40 104t103 36h48l81 -56l78 56h45q61 0 100.5 -31t39.5 -96v-19h323v-110h-454v125q0 33 -31 32l-101 -71l-102 71q-41 0 -41 -35v-18h70v-104h-199z" />
<glyph unicode="&#xf708;" d="M-659 1008v104h102v86h160v-86h102v-104h-102v-86h-160v86h-102z" />
<glyph unicode="&#xf709;" d="M-475 1073v47q0 68 41 98.5t108 30.5h133v-102h-65q-57 0 -57 -49v-25h-160z" />
<glyph unicode="&#xf70a;" d="M-233 922v225h159v-225h-159z" />
<glyph unicode="&#xf70b;" d="M-412 1044v103h113q106 0 106 -88v-15h244v-122h-403v90q0 33 -31 32h-29z" />
<glyph unicode="&#xf70c;" d="M-676 922v116q0 68 40 104t104 36h47l82 -56l77 56h45q61 0 100.5 -31t39.5 -96v-19h135v-110h-266v125q0 33 -31 32l-100 -71l-103 71q-41 0 -41 -35v-18h70v-104h-199z" />
<glyph unicode="&#xf70d;" d="M-438 1008v104h102v86h160v-86h102v-104h-102v-86h-160v86h-102z" />
<glyph unicode="&#xf70e;" d="M-309 922v47q0 68 41 98.5t108 30.5h133v-103h-65q-57 0 -58 -49v-24h-159z" />
<glyph unicode="&#xf70f;" horiz-adv-x="1361" d="M82 0v651q59 86 146 134.5t198 48.5q74 0 137.5 -18.5t109.5 -55.5t71.5 -90.5t25.5 -120.5v-283q0 -70 49 -105.5t125 -35.5q80 0 130 35t50 106v553h156v-555q0 -129 -94 -199.5t-242 -70.5q-74 0 -134 17.5t-105.5 51t-70 84t-24.5 117.5v279q0 70 -54 111.5 t-130 41.5q-117 0 -184 -86v-473h120v-137h-280z" />
<glyph unicode="&#xf710;" d="M-623 922v204h160v-86h477v-118h-637z" />
<glyph unicode="&#xf711;" d="M-549 1034q0 53 37 88t96 35q55 0 94 -35t39 -88t-36.5 -88t-96.5 -35q-55 0 -94 35t-39 88zM-467 1034q0 -18 15.5 -32.5t35.5 -14.5q18 0 34.5 14.5t16.5 32.5t-15 32.5t-36 14.5q-18 0 -34.5 -14t-16.5 -33z" />
<glyph unicode="&#xf712;" d="M-850 922v88q0 94 60.5 154.5t173.5 60.5h383v-103h-377q-45 0 -73 -23.5t-28 -56.5h74l109 60l104 -60h127v-120h-137l-94 55l-99 -55h-223z" />
<glyph unicode="&#xf713;" d="M-475 1208v185h160v-185h-160z" />
<glyph unicode="&#xf714;" d="M-586 1319v92h103q47 0 70.5 -22.5t23.5 -57.5v-12h227v-111h-370v80q0 31 -27 31h-27z" />
<glyph unicode="&#xf715;" d="M-621 1208v107q0 59 37 92t92 33h43l74 -51l70 51h39q57 0 92 -28t35 -87v-16h121v-101h-240v113q0 29 -27 29l-90 -64l-92 64q-37 0 -37 -31v-16h62v-95h-179z" />
<glyph unicode="&#xf716;" d="M-559 1286v92h92v78h143v-78h93v-92h-93v-78h-143v78h-92z" />
<glyph unicode="&#xf717;" d="M-514 1112v43q0 59 37 88t96 29h121v-92h-59q-51 0 -52 -45v-23h-143z" />
<glyph unicode="&#xf718;" d="M-315 -360h241v-256h-159v133h-82v123z" />
<glyph unicode="&#xf719;" d="M-512 -360h195v-136q14 -8 34 -8q49 0 50 37v107h159v-123q0 -66 -54 -102t-140 -36q-59 0 -103.5 14.5t-79.5 49.5v74h-61v123z" />
<glyph unicode="&#xf71a;" d="M-299 -463q0 41 33 72t80 31t79.5 -31t32.5 -72t-32.5 -71.5t-79.5 -30.5t-80 30.5t-33 71.5z" />
<glyph unicode="&#xf71b;" d="M-473 0h473v1208h-473v-1208z" />
<glyph unicode="&#xf71c;" horiz-adv-x="512" />
<glyph unicode="&#xf71d;" horiz-adv-x="512" d="M41 0v-186h35v71q35 23 74 23h200q53 0 86 -27v-67h35v186h-430z" />
</font>
</defs>
</svg>
