<?xml version="1.0" standalone="no"?>
<!DOCTYPE svg PUBLIC "-//W3C//DTD SVG 1.1//EN" "http://www.w3.org/Graphics/SVG/1.1/DTD/svg11.dtd" >
<svg xmlns="http://www.w3.org/2000/svg">
<metadata></metadata>
<defs>
<font id="kittithada_bold_75_fregular" horiz-adv-x="0" >
<font-face units-per-em="2048" ascent="1638" descent="-410" />
<missing-glyph horiz-adv-x="512" />
<glyph />
<glyph unicode="&#xd;" horiz-adv-x="1000" />
<glyph unicode=" "  horiz-adv-x="512" />
<glyph unicode="&#x09;" horiz-adv-x="512" />
<glyph unicode="&#xa0;" horiz-adv-x="512" />
<glyph unicode="!" horiz-adv-x="374" d="M82 0v209h213v-209h-213zM88 707v258h201v-258l-53 -418h-97z" />
<glyph unicode="&#x22;" horiz-adv-x="626" d="M115 530v435h145v-435h-145zM367 530v435h143v-435h-143z" />
<glyph unicode="#" horiz-adv-x="751" d="M45 268v121h127l25 168h-111v121h127l39 268h131l-39 -268h131l37 268h131l-37 -268h101v-121h-117l-23 -168h99v-121h-117l-37 -268h-131l37 268h-129l-39 -268h-131l39 268h-113zM303 389h133l23 168h-131z" />
<glyph unicode="$" horiz-adv-x="751" d="M0 313h190q0 -74 40 -120t106 -58v283l-43 12q-160 45 -221 113q-49 57 -49 155q0 68 23.5 121t65.5 91t99 57.5t125 19.5v105h80v-105q135 -14 211 -78q92 -78 92 -209h-193q0 53 -31.5 91t-78.5 38v-239l67 -17q172 -49 234 -149q37 -62 37 -164q0 -125 -113 -213 q-90 -61 -225 -61v-115h-80v115q-147 0 -234.5 84t-101.5 243zM213 717q0 -45 26.5 -68t96.5 -39v219q-51 0 -87 -28.5t-36 -83.5zM416 135q45 6 96 35q49 37 49 98q0 51 -31.5 77t-113.5 50v-260z" />
<glyph unicode="%" horiz-adv-x="1351" d="M100 698q0 117 57.5 192t174.5 75q119 0 174 -80q47 -72 47 -193q0 -117 -53 -182q-59 -72 -176 -72q-119 0 -171.5 68.5t-52.5 191.5zM240 694q0 -53 10 -98q18 -57 76 -57q53 0 75 55q15 28 15 100q0 53 -10 105q-23 66 -74 65q-57 0 -74.5 -51t-17.5 -119zM344 -23 l559 1000h115l-557 -1000h-117zM799 248q0 117 58 188.5t171 71.5q119 0 174 -76q47 -65 47 -190q0 -113 -53 -185q-59 -68 -174 -67q-119 0 -171 67.5t-52 190.5zM936 246q0 -57 10 -103q20 -61 78 -61q41 0 64.5 38t23.5 124q0 29 -3 53.5t-7 46.5q-20 63 -74 64 q-57 0 -78 -58q-14 -29 -14 -104z" />
<glyph unicode="&#x26;" horiz-adv-x="925" d="M43 270q0 92 66 170q57 70 151 111q-23 29 -39 52.5t-26 41.5q-27 51 -27 111q0 94 75.5 157.5t176.5 63.5q117 0 190.5 -60.5t73.5 -171.5q0 -80 -46 -140t-126 -101l125 -152q14 27 21.5 51.5t13.5 63.5h166q-12 -137 -93 -238l195 -229h-233l-80 96 q-113 -106 -271 -106q-137 0 -225 72.5t-88 207.5zM225 266q0 -53 41 -90t99 -37q49 0 86.5 21.5t74.5 64.5l-166 201q-59 -29 -92 -61q-43 -47 -43 -99zM342 762q0 -37 23 -78q4 -6 17 -22.5t36 -43.5q41 27 69 56q29 35 29 82q0 35 -26.5 63.5t-61.5 28.5t-60.5 -23.5 t-25.5 -62.5z" />
<glyph unicode="'" horiz-adv-x="374" d="M117 530v435h143v-435h-143z" />
<glyph unicode="(" horiz-adv-x="399" d="M70 362q0 82 11 167t33.5 166t56.5 156t77 136h162q-74 -141 -111 -296.5t-37 -315.5q0 -166 35 -315.5t111 -297.5h-160q-86 147 -132 294t-46 306z" />
<glyph unicode=")" horiz-adv-x="399" d="M-2 -238q66 137 102.5 290t36.5 313q0 162 -35.5 320.5t-101.5 301.5h152q86 -147 132 -297.5t46 -310.5q0 -166 -45 -329t-133 -288h-154z" />
<glyph unicode="*" horiz-adv-x="550" d="M31 752l35 104l153 -59v168h109v-168l155 59l37 -104l-160 -54l101 -131l-90 -67l-99 139l-96 -139l-90 67l100 131z" />
<glyph unicode="+" horiz-adv-x="811" d="M66 268v146h268v268h145v-268h269v-146h-269v-268h-145v268h-268z" />
<glyph unicode="," horiz-adv-x="374" d="M82 0v209h213v-209q0 -86 -59.5 -144.5t-151.5 -72.5v98q41 8 68.5 44t27.5 75h-98z" />
<glyph unicode="-" horiz-adv-x="550" d="M72 287v164h407v-164h-407z" />
<glyph unicode="." horiz-adv-x="374" d="M82 0v209h211v-209h-211z" />
<glyph unicode="/" horiz-adv-x="501" d="M-6 -14l368 1001h154l-377 -1001h-145z" />
<glyph unicode="0" horiz-adv-x="751" d="M29 477q0 254 102 381q88 106 244 107q154 0 243 -105q105 -127 105 -383q0 -262 -102 -389q-90 -98 -246 -98t-244 98q-102 127 -102 389zM221 477q0 -141 19 -209q33 -129 135 -129q100 0 135 129q20 64 20 209q0 135 -18 201q-37 129 -137 129q-78 0 -116 -76 t-38 -254z" />
<glyph unicode="1" horiz-adv-x="751" d="M100 614v144q117 0 181 39q82 47 96 149h153v-946h-192v614h-238z" />
<glyph unicode="2" horiz-adv-x="751" d="M29 0q0 115 51 203q53 88 248 221q53 35 87 58.5t44 33.5q68 61 67 137q0 68 -40 108t-103 40q-78 0 -114 -65.5t-36 -153.5h-184q0 86 22.5 155.5t66.5 120.5t107.5 79t147.5 28q133 0 230 -80q94 -80 94 -215q0 -98 -49 -172q-49 -66 -119 -115q-49 -33 -86 -57.5 t-60 -40.5q-98 -74 -127 -119h447v-166h-694z" />
<glyph unicode="3" horiz-adv-x="751" d="M25 326h182q0 -82 43 -134.5t123 -52.5q66 0 109.5 42t43.5 108q0 94 -73 123q-53 16 -146 16v135q86 0 133 19q70 27 70 100q0 57 -40 91t-95 34q-70 0 -108 -46t-38 -122h-182q0 74 23.5 133t66.5 102.5t103.5 67t134.5 23.5q123 0 215 -68q102 -78 102 -195 q0 -70 -33.5 -122t-99.5 -70q78 -20 123 -78.5t45 -138.5q0 -143 -104 -225q-102 -78 -248 -78q-160 0 -255 87t-95 249z" />
<glyph unicode="4" horiz-adv-x="751" d="M23 219v176l409 551h172v-569h125v-158h-125v-219h-182v219h-399zM172 377h250v330z" />
<glyph unicode="5" horiz-adv-x="751" d="M25 281h192q6 -63 49 -102.5t105 -39.5q72 0 118 54.5t46 128.5q0 76 -44.5 127t-119.5 51q-88 0 -144 -76h-174l94 522h529v-158h-391l-37 -215q76 70 188 70q135 0 213 -90t78 -231q0 -145 -102 -242q-102 -90 -250 -90q-147 0 -244 65q-106 82 -106 226z" />
<glyph unicode="6" horiz-adv-x="751" d="M29 471q0 195 84 334q100 160 286 160q125 0 209 -69t99 -194h-183q-10 51 -44 85t-83 34q-92 0 -141 -104q-39 -76 -39 -185q80 102 215 103q131 0 217 -96q37 -41 55.5 -98.5t18.5 -112.5q0 -150 -92 -248q-94 -90 -240 -90q-197 0 -289 145q-74 125 -73 336zM233 315 q0 -70 42 -123t112 -53q66 0 104.5 51t38.5 121t-34 123q-39 57 -109 58q-72 0 -113 -51.5t-41 -125.5z" />
<glyph unicode="7" horiz-adv-x="751" d="M53 768v178h645v-166q-141 -123 -229 -360q-80 -215 -80 -420h-205q0 190 90 408q78 184 228 360h-449z" />
<glyph unicode="8" horiz-adv-x="751" d="M18 276q0 92 46.5 152.5t132.5 81.5q-68 20 -104 72.5t-36 124.5q0 119 103 192q96 66 217 66q156 0 246 -93q72 -78 71 -161q0 -147 -139 -201q86 -20 132 -79.5t46 -151.5q0 -141 -110 -224q-102 -66 -244 -65q-147 0 -248 61q-113 80 -113 225zM211 287q0 -72 49 -117 t119 -45t116 44t46 116q0 66 -47.5 108.5t-114.5 42.5q-72 0 -120 -40t-48 -109zM233 690q0 -59 41 -92t103 -33q63 0 102 32t39 93q0 68 -39 99.5t-102 31.5q-61 0 -102.5 -34.5t-41.5 -96.5z" />
<glyph unicode="9" horiz-adv-x="751" d="M29 618q0 150 92 248.5t239 98.5q195 0 287 -154q76 -125 76 -336q0 -195 -84 -334q-102 -152 -287 -151q-125 0 -209 64.5t-98 189.5h182q10 -51 44 -85t83 -34q92 0 142 104q39 76 39 185q-80 -102 -216 -103q-129 0 -219 97q-33 41 -52 98t-19 112zM221 635 q0 -74 38 -127t106 -53q72 0 112.5 51t40.5 125q0 70 -42 123t-111 53q-66 0 -105 -51t-39 -121z" />
<glyph unicode=":" horiz-adv-x="374" d="M82 0v209h213v-209h-213zM82 479v207h213v-207h-213z" />
<glyph unicode=";" horiz-adv-x="374" d="M82 0v209h213v-209q0 -86 -59.5 -144.5t-151.5 -72.5v98q41 8 68.5 44t27.5 75h-98zM82 479v207h213v-207h-213z" />
<glyph unicode="&#x3c;" horiz-adv-x="811" d="M61 262v160l689 272v-155l-498 -197l498 -197v-147z" />
<glyph unicode="=" horiz-adv-x="811" d="M66 125v143h682v-143h-682zM66 414v145h682v-145h-682z" />
<glyph unicode="&#x3e;" horiz-adv-x="811" d="M61 -2v147l498 197l-498 197v155l689 -272v-160z" />
<glyph unicode="?" horiz-adv-x="751" d="M43 653q0 143 90 240q88 94 238 94q168 0 264 -90q74 -74 74 -170q0 -86 -35 -145q-14 -20 -33.5 -41t-46.5 -41q-39 -29 -58.5 -45.5t-23.5 -20.5q-41 -41 -49 -94v-51h-182v61q0 78 36 133q16 27 78 76q29 23 42.5 34t15.5 13q43 39 43 103q0 121 -115 120 q-68 0 -103.5 -50t-35.5 -126h-199zM260 0v209h213v-209h-213z" />
<glyph unicode="@" horiz-adv-x="1081" d="M49 483q0 215 150 359q152 145 364 145q193 0 326 -110q143 -120 143 -302q0 -186 -125 -299q-102 -92 -192 -92q-43 0 -71 21.5t-28 54.5q-53 -78 -149 -78q-86 0 -150 68q-61 70 -61 164q0 139 82 239q82 104 213 105q47 0 91 -22.5t67 -71.5l20 73h113l-86 -350 q-4 -20 -6 -29q-2 -10 -3.5 -17t-1.5 -11q0 -31 23 -31q59 0 109 72q51 70 51 176q0 76 -28 138.5t-76 105.5t-115.5 66.5t-147.5 23.5q-170 0 -278 -115q-104 -115 -105 -287q0 -178 111 -284q115 -109 289 -109q180 0 290 111h113q-70 -104 -176.5 -157.5t-235.5 -53.5 q-221 0 -370 137q-150 143 -150 360zM393 432q0 -55 29 -88t78 -33q72 0 116 64q50 63 50 139q0 49 -30 83t-75 34q-70 0 -119 -64q-49 -66 -49 -135z" />
<glyph unicode="A" horiz-adv-x="925" d="M-2 0l358 965h217l363 -965h-221l-74 215h-360l-76 -215h-207zM336 373h250l-121 354z" />
<glyph unicode="B" horiz-adv-x="952" d="M94 0v965h453q154 0 223 -52q86 -59 86 -188q0 -137 -131 -201q86 -25 131 -88t45 -155q0 -137 -104 -213q-96 -68 -236 -68h-467zM305 166h227q74 0 111 24q47 31 47 103q0 70 -41 103.5t-112 33.5h-232v-264zM305 573h215q59 0 94 29t35 88q0 61 -40 86t-105 25h-199 v-228z" />
<glyph unicode="C" horiz-adv-x="1001" d="M51 479q0 219 127 365q129 143 348 143q164 0 279 -92q117 -90 137 -254h-205q-12 74 -70.5 121t-140.5 47q-135 0 -202 -100q-59 -90 -60 -230q0 -133 60 -223q70 -100 202 -100q94 0 150.5 57t68.5 158h205q-16 -184 -130.5 -284.5t-293.5 -100.5q-219 0 -348 135 q-127 145 -127 358z" />
<glyph unicode="D" horiz-adv-x="1001" d="M94 0v965h416q197 0 313 -117q125 -125 125 -361q0 -215 -108 -348q-117 -139 -330 -139h-416zM305 178h191q102 0 166 64q73 75 73 225q0 156 -59 233q-66 86 -219 86h-152v-608z" />
<glyph unicode="E" horiz-adv-x="876" d="M94 0v965h721v-179h-510v-206h469v-164h-469v-238h520v-178h-731z" />
<glyph unicode="F" horiz-adv-x="800" d="M94 0v965h678v-179h-467v-223h404v-164h-404v-399h-211z" />
<glyph unicode="G" horiz-adv-x="1026" d="M51 479q0 219 127 365q129 143 348 143q156 0 273 -92q117 -90 133 -248h-203q-16 78 -70.5 120t-132.5 42q-135 0 -202 -100q-59 -90 -60 -230q0 -133 60 -223q70 -100 202 -100q211 0 230 209h-213v157h405v-522h-135l-22 109q-51 -66 -121 -94.5t-144 -28.5 q-219 0 -348 135q-127 145 -127 358z" />
<glyph unicode="H" horiz-adv-x="1001" d="M94 0v965h211v-371h391v371h213v-965h-213v416h-391v-416h-211z" />
<glyph unicode="I" horiz-adv-x="399" d="M94 0v965h211v-965h-211z" />
<glyph unicode="J" horiz-adv-x="751" d="M18 276v84h193v-45q0 -80 25.5 -119.5t97.5 -39.5q74 0 98 53q14 27 14 104v652h211v-662q0 -133 -51 -209q-77 -108 -267 -108h-3q-131 0 -219 61q-98 80 -99 229z" />
<glyph unicode="K" horiz-adv-x="976" d="M94 0v965h211v-400l377 400h266l-377 -381l412 -584h-266l-289 434l-123 -123v-311h-211z" />
<glyph unicode="L" horiz-adv-x="800" d="M94 0v965h211v-787h471v-178h-682z" />
<glyph unicode="M" horiz-adv-x="1226" d="M94 0v965h297l227 -664l216 664h299v-965h-199v684l-240 -684h-164l-235 678l-2 -678h-199z" />
<glyph unicode="N" horiz-adv-x="1001" d="M94 0v965h209l404 -648l2 648h200v-965h-213l-401 645l-2 -645h-199z" />
<glyph unicode="O" horiz-adv-x="1050" d="M51 479q0 219 127 365q129 143 348 143q221 0 346 -143q127 -146 127 -365q0 -217 -122 -354q-133 -139 -351 -139q-219 0 -348 135q-127 145 -127 358zM264 479q0 -133 60 -223q70 -100 202 -100q133 0 203 100q59 90 59 223q0 137 -59 228q-72 102 -203 102 q-135 0 -202 -100q-59 -90 -60 -230z" />
<glyph unicode="P" horiz-adv-x="901" d="M94 0v965h434q172 0 258 -95q76 -82 76 -215q0 -131 -76 -213q-90 -96 -258 -96h-223v-346h-211zM305 510h166q84 0 129 27q57 32 57 118q0 84 -55 119q-39 27 -131 27h-166v-291z" />
<glyph unicode="Q" horiz-adv-x="1050" d="M51 479q0 219 127 365q129 143 348 143q221 0 346 -143q127 -146 127 -365t-125 -356l121 -109l-98 -96l-137 115q-104 -47 -234 -47q-219 0 -348 135q-127 145 -127 358zM264 479q0 -133 60 -223q70 -100 202 -100q23 0 47.5 1t36.5 11l-90 84l98 104l111 -100 q59 78 59 223q0 137 -59 228q-72 102 -203 102q-135 0 -202 -100q-59 -90 -60 -230z" />
<glyph unicode="R" horiz-adv-x="976" d="M94 0v965h520q61 0 113.5 -20.5t90.5 -56.5t58.5 -85t20.5 -105q0 -86 -38 -147.5t-116 -93.5q72 -20 107 -88q14 -27 22.5 -62t12.5 -78q0 -82 6 -137t33 -92h-211q-14 37 -25 127q-4 47 -6 72.5t-4 31.5q-10 78 -45 112t-115 34h-213v-377h-211zM305 528h234 q145 1 145 138q0 135 -145 135h-234v-273z" />
<glyph unicode="S" horiz-adv-x="876" d="M33 319h205q0 -92 63 -137q59 -41 150 -41q66 0 122 23q66 31 66 98q0 68 -88 105q-4 2 -54.5 15t-144.5 40q-66 16 -115 37.5t-81 44.5q-90 68 -90 192q0 139 114 219q102 72 246 72q168 0 268 -69q119 -82 119 -240h-207q0 80 -52 112.5t-138 32.5q-59 0 -102.5 -26.5 t-43.5 -83.5q0 -53 45 -74q23 -10 83.5 -27.5t160.5 -44.5q145 -33 211 -98q74 -71 74 -182q0 -141 -101.5 -221t-300.5 -80q-172 0 -284 73q-125 92 -125 260z" />
<glyph unicode="T" horiz-adv-x="825" d="M18 786v179h791v-179h-291v-786h-211v786h-289z" />
<glyph unicode="U" horiz-adv-x="1001" d="M90 365v600h211v-600q0 -90 35 -144q46 -65 161 -65h3q113 0 156.5 48t43.5 161v600h211v-600q0 -193 -106.5 -286t-304.5 -93q-205 0 -307.5 90t-102.5 289z" />
<glyph unicode="V" horiz-adv-x="851" d="M-2 965h211l215 -678l219 678h219l-319 -965h-240z" />
<glyph unicode="W" horiz-adv-x="1275" d="M4 965h213l152 -658l170 658h198l166 -664l160 664h209l-260 -965h-211l-162 657l-164 -657h-215z" />
<glyph unicode="X" horiz-adv-x="901" d="M0 0l330 506l-312 459h246l191 -308l194 308h234l-310 -461l336 -504h-252l-211 334l-215 -334h-231z" />
<glyph unicode="Y" horiz-adv-x="901" d="M-4 965h231l226 -381l225 381h235l-358 -594v-371h-211v375z" />
<glyph unicode="Z" horiz-adv-x="876" d="M31 0v168l518 618h-477v179h759v-168l-518 -619h531v-178h-813z" />
<glyph unicode="[" horiz-adv-x="450" d="M92 -238v1225h357v-149h-164v-924h164v-152h-357z" />
<glyph unicode="\" horiz-adv-x="501" d="M-6 987h145l377 -1001h-154z" />
<glyph unicode="]" horiz-adv-x="450" d="M2 -86h164v924h-164v149h356v-1225h-356v152z" />
<glyph unicode="^" horiz-adv-x="811" d="M82 426l233 520h181l233 -520h-158l-165 371l-166 -371h-158z" />
<glyph unicode="_" horiz-adv-x="675" d="M0 -92h676v-68h-676v68z" />
<glyph unicode="`" horiz-adv-x="350" d="M-57 977h204l129 -193h-133z" />
<glyph unicode="a" horiz-adv-x="776" d="M43 190q0 106 74 160q51 39 164 53q76 10 114.5 15.5t42.5 7.5q70 18 70 70q0 57 -33 75.5t-92 18.5q-115 0 -127 -107h-190q0 125 104 185q86 49 223 49q123 0 205 -35q102 -49 102 -164v-362q0 -59 5.5 -96t19.5 -60h-195q-4 16 -8 32.5t-6 35.5q-41 -43 -105.5 -60.5 t-129.5 -17.5q-102 0 -168 41q-70 55 -70 159zM236 199q0 -49 31.5 -69.5t84.5 -20.5q98 0 135 65q21 33 21 96v72q-23 -16 -76 -27q-59 -8 -96 -18q-41 -6 -66 -25q-35 -29 -34 -73z" />
<glyph unicode="b" horiz-adv-x="825" d="M74 0v965h190v-351q37 51 96.5 77t126.5 26q117 0 197 -86q92 -103 92 -281q0 -180 -92 -280q-80 -80 -197 -80q-82 0 -140 21.5t-89 78.5l-2 -90h-182zM258 348q0 -92 42 -157.5t122 -65.5q78 0 121 65.5t43 157.5q0 98 -41 161.5t-123 63.5t-123 -63.5t-41 -161.5z" />
<glyph unicode="c" horiz-adv-x="776" d="M51 340q0 84 24.5 153.5t71 119t112 77t149.5 27.5q139 0 227 -64q102 -72 102 -200h-188q-18 120 -139 120h-2q-43 0 -74 -18t-50.5 -50t-29.5 -73t-10 -86q0 -90 32 -147q43 -74 127 -74q63 0 102.5 38t49.5 105h186q-18 -137 -107 -207.5t-231 -70.5q-160 0 -256 93 t-96 257z" />
<glyph unicode="d" horiz-adv-x="825" d="M43 356q0 147 78 250q86 111 231 111q137 0 209 -103h2v351h191v-965h-183v90q-35 -55 -90 -77.5t-125 -22.5q-150 0 -235 106q-78 109 -78 260zM236 350q0 -92 40.5 -158.5t126.5 -66.5q88 0 132 70q34 59 34 157q0 94 -34 154q-40 67 -129 67h-3q-88 0 -127.5 -62 t-39.5 -161z" />
<glyph unicode="e" horiz-adv-x="776" d="M39 348q0 162 98 264q100 104 258 105q172 0 260 -125q80 -111 80 -289h-504q0 -178 172 -178q55 0 98.5 27.5t53.5 64.5h168q-39 -123 -121 -175t-207 -52q-162 0 -259 95t-97 263zM231 424h312q-25 149 -150 149h-2q-82 0 -125 -53q-35 -47 -35 -96z" />
<glyph unicode="f" horiz-adv-x="450" d="M0 571v127h115v56q0 98 58 154.5t175 56.5l103 -4v-144l-72 4q-72 0 -72 -80v-43h131v-127h-131v-571h-192v571h-115z" />
<glyph unicode="g" horiz-adv-x="825" d="M51 371q0 143 78 245q80 100 223 101q72 0 123 -25.5t84 -85.5l4 92h182v-653q0 -111 -59 -188q-88 -113 -303 -113q-125 0 -207 51q-102 61 -102 172h190q12 -49 51 -72.5t93 -23.5q76 0 115.5 48t39.5 118v92q-33 -53 -90 -81t-123 -28q-150 0 -224.5 98.5t-74.5 252.5 zM244 375q0 -90 32 -142q38 -67 121 -67h2q78 0 121 55t43 137q0 90 -35 150q-42 65 -126 65h-3q-78 0 -116.5 -56t-38.5 -142z" />
<glyph unicode="h" horiz-adv-x="800" d="M74 0v965h190v-363q39 55 95.5 85t113.5 30q145 0 205 -78q51 -63 51 -209v-430h-192v395q0 172 -123 172q-150 0 -150 -200v-367h-190z" />
<glyph unicode="i" horiz-adv-x="348" d="M78 0v698h192v-698h-192zM78 807v158h192v-158h-192z" />
<glyph unicode="j" horiz-adv-x="374" d="M-18 -74l34 -6q35 0 54.5 12.5t19.5 49.5v716h193v-725q0 -115 -52.5 -163t-193.5 -48l-55 7v157zM90 807v158h193v-158h-193z" />
<glyph unicode="k" horiz-adv-x="776" d="M90 0v965h193v-519l241 252h228l-265 -256l293 -442h-231l-193 311l-73 -71v-240h-193z" />
<glyph unicode="l" horiz-adv-x="348" d="M78 0v965h192v-965h-192z" />
<glyph unicode="m" horiz-adv-x="1224" d="M78 0v698h182v-94q80 113 215 113q72 0 124 -26.5t81 -88.5q35 49 88 82t123 33q119 0 184 -55q72 -66 72 -195v-467h-193v395q0 55 -7 89t-21.5 52.5t-36 24.5t-51.5 6q-74 0 -101.5 -49t-27.5 -129v-389h-193v391v31q0 72 -16 100q-25 45 -101 45q-61 0 -95 -46 t-34 -115v-406h-192z" />
<glyph unicode="n" horiz-adv-x="800" d="M74 0v698h182v-96q37 55 95.5 85t121.5 30q145 0 205 -78q51 -63 51 -209v-430h-192v395q0 172 -123 172q-150 0 -150 -200v-367h-190z" />
<glyph unicode="o" horiz-adv-x="825" d="M51 348q0 82 25.5 150.5t73 117t114 75t148.5 26.5t149.5 -26.5t114.5 -75t72.5 -117t25.5 -150.5q0 -166 -98 -262t-264 -96t-263.5 95t-97.5 263zM244 348q0 -94 35 -153q43 -70 133 -70t133 70q37 57 37 153t-35 156q-42 69 -132 69h-3q-88 0 -128 -63.5t-40 -161.5z " />
<glyph unicode="p" horiz-adv-x="825" d="M74 -238v936h182v-88q33 53 89 80t122 27q158 0 240 -113q77 -108 77 -262q0 -156 -75 -250q-84 -102 -232 -102q-137 0 -209 96l-4 -324h-190zM258 348q0 -94 40 -158.5t128 -64.5q86 0 129 68q37 57 37 155q0 94 -37 154q-46 71 -129 71h-2q-86 0 -126 -63.5 t-40 -161.5z" />
<glyph unicode="q" horiz-adv-x="825" d="M43 344q0 158 76 258q86 115 237 115q70 0 126.5 -25.5t86.5 -81.5l2 88h183v-936h-191v326q-35 -55 -95 -76.5t-128 -21.5q-113 0 -197 71q-100 98 -100 283zM236 348q0 -94 34 -153q43 -70 131 -70t131 68q37 57 37 153q0 94 -34 154q-42 73 -127 73h-2 q-86 0 -128 -65.5t-42 -159.5z" />
<glyph unicode="r" horiz-adv-x="526" d="M74 0v698h182v-129q27 66 90.5 107t134.5 41l41 -6v-179q-25 6 -67 7q-98 0 -144.5 -61.5t-46.5 -162.5v-315h-190z" />
<glyph unicode="s" horiz-adv-x="724" d="M39 227h182q0 -59 43 -88.5t105 -29.5q49 0 84 18q43 25 43 72q0 59 -220 108q-68 14 -110.5 32.5t-67 41t-34 50.5t-9.5 63q0 123 95 178q76 45 210 45q129 0 205 -45q92 -55 103 -176h-183q0 51 -36.5 72.5t-94.5 21.5q-45 0 -75.5 -13.5t-30.5 -52.5q0 -51 98 -78 q41 -10 69.5 -16t49.5 -10q104 -23 153 -58q68 -47 68 -137q0 -129 -98 -190q-82 -45 -219 -45q-143 0 -226 43q-104 63 -104 194z" />
<glyph unicode="t" horiz-adv-x="475" d="M8 571v127h117v211h190v-211h142v-127h-142v-346q0 -49 16.5 -65.5t65.5 -16.5l60 7v-150h-113q-98 0 -154 23q-66 41 -65 135v413h-117z" />
<glyph unicode="u" horiz-adv-x="800" d="M74 268v430h190v-395q0 -88 27.5 -129t95.5 -41q78 0 114 47t36 152v366h192v-698h-182v98q-39 -57 -97.5 -82.5t-121.5 -25.5q-145 0 -203 69q-51 63 -51 209z" />
<glyph unicode="v" horiz-adv-x="702" d="M6 698h203l147 -477l150 477h190l-237 -698h-213z" />
<glyph unicode="w" horiz-adv-x="1099" d="M8 698h203l129 -473l119 473h186l119 -473l131 473h197l-220 -698h-198l-123 469l-123 -469h-199z" />
<glyph unicode="x" horiz-adv-x="724" d="M0 0l252 369l-229 329h217l125 -182l120 182h213l-231 -327l258 -371h-219l-146 221l-145 -221h-215z" />
<glyph unicode="y" horiz-adv-x="702" d="M0 698h197l159 -477l154 477h199l-291 -778q-33 -86 -87.5 -122t-154.5 -36l-117 7v157q12 0 32 -1t37 -2t30 -2l14 -1q35 2 54.5 27.5t19.5 52.5q0 29 -8 43z" />
<glyph unicode="z" horiz-adv-x="702" d="M31 0v145l362 410h-336v143h588v-143l-362 -410h389v-145h-641z" />
<glyph unicode="{" horiz-adv-x="450" d="M-4 311v119q51 0 88 41q29 35 29 80v254q0 84 59 137q45 45 107 45h172v-149h-74q-35 0 -54.5 -21.5t-19.5 -79.5v-205q0 -88 -51 -126q-31 -25 -82 -33q51 -10 82 -35q51 -39 51 -117v-217q0 -8 1 -19.5t3 -21.5q14 -49 70 -49h74v-152h-172q-53 0 -105 45 q-61 55 -61 138v256q0 27 -11.5 48t-29 34.5t-38 20.5t-38.5 7z" />
<glyph unicode="|" horiz-adv-x="301" d="M78 -14v1001h145v-1001h-145z" />
<glyph unicode="}" horiz-adv-x="450" d="M0 -86h74q43 0 57 26.5t14 63.5v217q0 76 52 115q39 31 84 33q-74 18 -105 56t-31 107v205q0 31 -10 66q-18 35 -61 35h-74v149h172q53 0 104 -45q61 -55 62 -137v-254q0 -61 45 -94q33 -27 80 -27v-119q-43 0 -84 -27.5t-41 -82.5v-256q0 -84 -59 -138q-45 -45 -107 -45 h-172v152z" />
<glyph unicode="~" horiz-adv-x="811" d="M90 344q29 51 62 78q45 37 108 37q37 0 90 -19q16 -4 42 -15t54.5 -23.5t55 -22.5t45.5 -10q33 0 67 30q10 10 23.5 26.5t28.5 39.5l55 -125q-41 -59 -68 -80q-47 -37 -102 -37q-43 0 -86 19q-12 4 -50 26.5t-77 34.5q-35 12 -80 12q-41 0 -67.5 -28.5t-45.5 -69.5z" />
<glyph unicode="&#xa4;" horiz-adv-x="839" d="M8 164l76 -76l145 148q82 -61 193 -62q53 0 105.5 18.5t82.5 43.5l150 -148l71 76l-145 145q59 78 59 193q0 111 -59 188l145 150l-71 71l-150 -145q-33 27 -83 43t-105 16q-115 0 -193 -59l-145 145l-76 -71l148 -150q-61 -74 -62 -188q0 -111 62 -193zM197 502 q0 88 65 160q64 67 160 67q49 0 89 -18.5t69.5 -49t46 -72.5t16.5 -87q0 -100 -63 -164q-66 -68 -158 -68q-98 0 -162 68q-63 70 -63 164z" />
<glyph unicode="&#xa9;" horiz-adv-x="1081" d="M23 483q0 223 151 363q154 141 367 141q215 0 362 -135q156 -144 156 -369t-156 -368q-152 -129 -362 -129q-213 0 -363 129q-156 143 -155 368zM160 483q0 -170 108 -284q111 -113 273 -113q160 0 270.5 112.5t110.5 284.5q0 170 -111 285q-111 113 -270 113 q-162 0 -273 -115q-109 -115 -108 -283zM268 485q0 135 77 219t212 84q98 0 163.5 -55t80.5 -155h-105q-10 47 -48 74.5t-91 27.5q-76 0 -117 -53.5t-41 -139.5q0 -82 44 -138t116 -56q123 0 137 106h109q-14 -100 -83 -157.5t-163 -57.5q-66 0 -119 22.5t-91 62.5 t-59.5 95.5t-21.5 120.5z" />
<glyph unicode="&#xab;" horiz-adv-x="600" d="M57 276v183l211 168v-164l-121 -94l121 -99v-161zM332 276v183l211 168v-164l-121 -94l121 -99v-161z" />
<glyph unicode="&#xac;" horiz-adv-x="811" d="M78 317h571v-186h84v268h-655v-82z" />
<glyph unicode="&#xad;" horiz-adv-x="811" d="M78 328h655v61h-655v-61z" />
<glyph unicode="&#xae;" horiz-adv-x="1081" d="M23 483q0 223 151 363q154 141 367 141q215 0 362 -135q156 -144 156 -369t-156 -368q-152 -129 -362 -129q-213 0 -363 129q-156 143 -155 368zM160 483q0 -170 108 -284q111 -113 273 -113q160 0 270.5 112.5t110.5 284.5q0 170 -111 285q-111 113 -270 113 q-162 0 -273 -115q-109 -115 -108 -283zM340 201v567h213q111 0 166 -38t55 -130q0 -74 -41 -112.5t-106 -38.5l149 -248h-117l-137 241h-71v-241h-111zM451 530h100q57 0 80 13q31 18 31 67q0 41 -32 55.5t-83 14.5h-96v-150z" />
<glyph unicode="&#xb0;" horiz-adv-x="540" d="M66 713q0 41 15 77.5t43 64.5t63.5 44t78.5 16t80 -15t64.5 -43t44 -64.5t16.5 -79.5t-16.5 -80t-44 -64.5t-64.5 -43t-80 -15.5q-41 0 -76.5 15.5t-63.5 43t-44 64.5t-16 80zM121 713q0 -59 43 -103.5t102 -44.5q61 0 105 43q45 45 45 105q0 59 -44.5 102t-105.5 43 t-103 -42t-42 -103z" />
<glyph unicode="&#xb6;" horiz-adv-x="727" d="M0 858q0 154 94 229q90 66 248 66h389v-41h-102v-1358h-62v1358h-145v-1358h-55v807q-168 0 -263 62q-104 74 -104 235z" />
<glyph unicode="&#xb7;" horiz-adv-x="337" d="M96 449q0 31 20.5 51t53.5 20q31 0 51.5 -21.5t20.5 -49.5q0 -31 -21.5 -52.5t-50.5 -21.5q-33 0 -53.5 20.5t-20.5 53.5z" />
<glyph unicode="&#xbb;" horiz-adv-x="600" d="M57 109v161l121 99l-121 94v164l211 -168v-183zM332 109v161l121 99l-121 94v164l211 -168v-183z" />
<glyph unicode="&#xd7;" horiz-adv-x="811" d="M86 125l217 217l-213 217l103 103l215 -218l215 218l102 -103l-217 -217l217 -217l-102 -102l-215 217l-220 -217z" />
<glyph unicode="&#xf7;" horiz-adv-x="811" d="M66 268v146h682v-146h-682zM293 61q0 47 32.5 80t82.5 33q45 0 78.5 -34t33.5 -79q0 -43 -33.5 -74.5t-78.5 -31.5q-49 0 -82 28.5t-33 77.5zM293 623q0 49 32.5 81.5t82.5 32.5q45 0 78.5 -33.5t33.5 -80.5q0 -43 -33.5 -79t-78.5 -36q-49 0 -82 32.5t-33 82.5z" />
<glyph unicode="&#xe00;" horiz-adv-x="204" />
<glyph unicode="&#xe01;" horiz-adv-x="872" d="M82 0v666q125 168 354 168q76 0 141.5 -18.5t112.5 -54.5t74 -89.5t27 -122.5v-549h-201v535q0 59 -44 95t-116 36q-45 0 -86 -16.5t-61 -43.5v-606h-201z" />
<glyph unicode="&#xe02;" horiz-adv-x="804" d="M41 324q0 86 47 155.5t117 104.5l-117 135l166 115l190 -246q-100 -47 -153 -112.5t-53 -151.5q0 -68 42 -119t115 -51q55 0 91 35.5t36 84.5v545h201v-536q0 -131 -92 -213q-88 -76 -236 -76q-152 0 -252 88q-102 96 -102 242z" />
<glyph unicode="&#xe03;" horiz-adv-x="815" d="M0 707l100 122q23 -12 36.5 -22t29.5 -33l57 45h180v-258q-156 -94 -155 -237q0 -68 42 -119t116 -51q55 0 90.5 35.5t35.5 84.5v545h201v-536q0 -131 -92 -213q-88 -76 -235 -76q-152 0 -252 88q-102 96 -103 242q0 86 47 155.5t117 104.5v80l-74 -54q-10 12 -20 21.5 t-19 15.5q-51 43 -102 60z" />
<glyph unicode="&#xe04;" horiz-adv-x="892" d="M82 0v539q0 127 102 211q109 84 262 84q158 0 261 -84q104 -84 104 -211v-539h-201v551q0 53 -44 84t-120 31q-74 0 -118.5 -31t-44.5 -84v-68h225v-164h-225v-319h-201z" />
<glyph unicode="&#xe05;" horiz-adv-x="917" d="M82 0v549q0 111 65 188q74 84 209 97l103 -84l104 84q129 -12 201 -92t72 -193v-549h-201v553q0 76 -68 98l-102 -94l-115 94q-68 -23 -67 -98v-70h249v-164h-249v-319h-201z" />
<glyph unicode="&#xe06;" horiz-adv-x="884" d="M0 707l96 122q23 -12 36 -22t30 -33l57 45h187v-215q0 -43 -58 -88q-55 -43 -55 -78v-147q0 -29 15.5 -54.5t40 -45t56 -30.5t62.5 -11q61 0 98 32.5t37 85.5v551h201v-575q0 -121 -80 -189q-78 -61 -180 -61q-86 0 -148.5 29.5t-101.5 78.5v-102h-201v449q0 45 59.5 88 t59.5 77v50l-74 -54q-10 12 -20.5 21.5t-18.5 15.5q-51 43 -98 60z" />
<glyph unicode="&#xe07;" horiz-adv-x="811" d="M0 819h193l149 -647q111 0 168 62.5t57 166.5q0 119 -55 174q-63 63 -217 64v182q250 0 367 -110q108 -103 108 -310q0 -193 -125 -298t-348 -105q-45 0 -71.5 1t-41.5 1z" />
<glyph unicode="&#xe08;" horiz-adv-x="827" d="M0 674q86 88 174 124t211 36q178 0 289 -115q112 -113 112 -293q0 -199 -135 -312.5t-399 -113.5l-74 340h-90v164h254l68 -332q37 8 69.5 31.5t57 58.5t38 77t13.5 87q0 98 -62 164q-68 72 -178 72q-78 0 -135 -31t-98 -82z" />
<glyph unicode="&#xe09;" horiz-adv-x="841" d="M29 305v164h258v-209q0 -106 106 -106q33 0 64.5 12t54.5 32.5t37 46t14 52.5v225q0 61 -43 102.5t-114 41.5q-57 0 -103.5 -29t-64.5 -88h-189q23 139 133 217q98 68 232 68q143 0 245 -78q100 -76 101 -205v-469l28 -82h-225v102q-27 -39 -71 -71q-72 -37 -150 -37 q-102 0 -172 49q-78 66 -78 195v67h-63z" />
<glyph unicode="&#xe0a;" horiz-adv-x="808" d="M82 45v774h201v-655q20 -6 45.5 -8t46.5 -2q86 0 138 52t52 128q0 94 -47 153q-61 78 -199 105l248 237l187 -75l-156 -140q168 -93 168 -288q0 -147 -102.5 -238.5t-288.5 -91.5q-100 0 -203 20q-16 4 -38.5 11.5t-51.5 17.5z" />
<glyph unicode="&#xe0b;" horiz-adv-x="837" d="M-14 707l94 122q23 -12 36 -22t29 -33l58 45h180v-203q0 -39 -47 -104q-23 -29 -23 -63v-285q20 -6 46 -8t47 -2q86 0 138 52t52 128q0 90 -39 147q-49 70 -166 111l205 237l188 -75l-145 -148q158 -92 158 -280q0 -150 -102.5 -240t-288.5 -90q-100 0 -203 20 q-16 4 -39 11.5t-51 17.5v408q0 39 53 98q29 35 29 63v50l-74 -54q-10 12 -20.5 21.5t-18.5 15.5q-29 23 -52.5 37t-43.5 23z" />
<glyph unicode="&#xe0c;" horiz-adv-x="1361" d="M82 0v666q125 168 354 168q76 0 141.5 -18.5t112.5 -54.5t74 -89.5t27 -122.5v-244q0 -35 14 -63.5t37.5 -49t53.5 -31.5t60 -11q123 0 123 120v549h201v-577q0 -123 -67.5 -185.5t-172.5 -62.5q-160 0 -249 108v-102h-201v535q0 59 -44 95t-116 36q-45 0 -86 -16.5 t-61 -43.5v-442h127v-164h-328z" />
<glyph unicode="&#xe0d;" horiz-adv-x="1363" d="M82 0v666q125 168 354 168q76 0 141.5 -18.5t112.5 -54.5t74 -89.5t27 -122.5v-57q0 -59 38.5 -85t110.5 -26q63 0 102 30.5t39 86.5v321h201v-530q0 -68 -25.5 -122t-73.5 -93t-115 -60.5t-146 -21.5q-186 0 -336 65l82 154q102 -66 215 -66q182 0 198 134 q-29 -23 -76 -40.5t-112 -17.5q-303 0 -303 256v58q0 59 -44 95t-116 36q-45 0 -86 -16.5t-61 -43.5v-442h127v-164h-328z" />
<glyph unicode="&#xe0e;" horiz-adv-x="892" d="M20 0v164h82v502q125 168 355 168q76 0 141.5 -18.5t112.5 -54.5t73.5 -89.5t26.5 -122.5v-848h-184l-138 111l-143 -111h-326v164h283l193 129l114 -88v629q0 59 -44 95t-115 36q-45 0 -86 -16.5t-62 -43.5v-606h-283z" />
<glyph unicode="&#xe0f;" horiz-adv-x="892" d="M20 0v164h82v502q125 168 355 168q76 0 141.5 -18.5t112.5 -54.5t73.5 -89.5t26.5 -122.5v-848h-193l-79 74l-103 -107l-102 107l-78 -74h-236v164h199l127 106l90 -98l90 98l84 -71v635q0 59 -44 95t-115 36q-45 0 -86 -16.5t-62 -43.5v-606h-283z" />
<glyph unicode="&#xe10;" horiz-adv-x="833" d="M0 674q86 88 174 124t211 36q104 0 168 -33l63 90l191 -74l-105 -129q84 -115 84 -262q0 -199 -135 -312.5t-399 -113.5l-74 340h-90v164h254l68 -332q37 8 69.5 31.5t57 58.5t38 77t13.5 87q0 98 -62 164q-68 72 -178 72q-78 0 -135 -31t-98 -82zM27 -135h206l105 84 l90 -86l90 88l74 -64v80l-31 49h230v-315h-197l-72 68l-92 -99l-102 101l-74 -70h-227v164z" />
<glyph unicode="&#xe11;" horiz-adv-x="921" d="M-6 707l94 122q23 -12 36 -22t30 -33l57 45h180v-203q0 -47 -41 -94q-39 -39 -39 -73v-50q0 -35 -3 -74.5t-7 -62.5q8 25 15.5 43.5t11.5 32.5q14 35 28.5 68.5t28.5 64.5l170 352q147 0 216 -52t69 -187v-584h-201v586q0 39 -14 39l-293 -625h-219v453q0 45 45 83.5 t45 77.5v50l-74 -54q-10 12 -20.5 21.5t-18.5 15.5q-29 23 -52.5 37t-43.5 23z" />
<glyph unicode="&#xe12;" horiz-adv-x="1404" d="M41 393q0 160 92 281q94 123 229 155l105 -84l86 76q137 0 211 -82q68 -78 67 -198v-236q0 -35 14.5 -63.5t38 -49t53.5 -31.5t60 -11q123 0 123 120v549h201v-577q0 -123 -67.5 -185.5t-172.5 -62.5q-160 0 -250 108v-102h-200v555q0 68 -51 82l-107 -100l-119 98 q-43 -37 -71 -90q-39 -70 -39 -152q0 -98 32.5 -158.5t98.5 -60.5q49 0 94 45l115 -133q-47 -53 -101.5 -70.5t-113.5 -17.5q-154 0 -241 104.5t-87 290.5z" />
<glyph unicode="&#xe13;" horiz-adv-x="1361" d="M82 0v666q125 168 354 168q76 0 141.5 -18.5t112.5 -54.5t74 -89.5t27 -122.5v-279q0 -59 32.5 -89.5t89.5 -30.5q66 0 111 38q55 45 55 117v514h201v-819h-201v102q-41 -49 -106.5 -78.5t-143.5 -29.5q-104 0 -167 55q-72 72 -72 193v293q0 59 -44 95t-116 36 q-45 0 -86 -16.5t-61 -43.5v-442h127v-164h-328z" />
<glyph unicode="&#xe14;" horiz-adv-x="899" d="M41 393q0 180 123 309q123 131 301 132q135 0 229 -58q80 -49 123 -125v-651h-201v602q-12 20 -52 37.5t-91 17.5q-100 0 -164 -82q-66 -84 -65 -182q0 -98 34.5 -158.5t104.5 -60.5q53 0 100 41l107 -139q-45 -43 -90 -60.5t-121 -17.5q-166 0 -252 101.5t-86 293.5z " />
<glyph unicode="&#xe15;" horiz-adv-x="913" d="M41 393q0 160 92 281q94 123 229 155l105 -84l86 76q137 0 211 -82q68 -78 67 -198v-541h-200v555q0 68 -51 82l-107 -100l-119 98q-43 -37 -71 -90q-39 -70 -39 -152q0 -98 32.5 -158.5t98.5 -60.5q49 0 94 45l115 -133q-47 -53 -101.5 -70.5t-113.5 -17.5 q-154 0 -241 104.5t-87 290.5z" />
<glyph unicode="&#xe16;" horiz-adv-x="872" d="M82 0v666q125 168 354 168q76 0 141.5 -18.5t112.5 -54.5t74 -89.5t27 -122.5v-549h-201v535q0 59 -44 95t-116 36q-45 0 -86 -16.5t-61 -43.5v-442h127v-164h-328z" />
<glyph unicode="&#xe17;" horiz-adv-x="874" d="M82 0v819h201v-102q16 23 40.5 42t55.5 36q70 39 153 39q109 0 179 -64q82 -70 82 -195v-575h-201v551q0 51 -38 85t-97 34q-31 0 -63 -11.5t-56.5 -31t-39.5 -45t-15 -54.5v-528h-201z" />
<glyph unicode="&#xe18;" horiz-adv-x="796" d="M51 596q0 102 103 168q100 68 243 67q131 0 226.5 -67.5t119.5 -183.5h-204q-8 39 -53.5 62.5t-106.5 23.5q-55 0 -90 -16.5t-35 -41.5q0 -27 50 -41t122 -22q141 -18 219 -74q100 -70 100 -211q0 -139 -110 -209q-102 -55 -268 -55q-49 0 -101.5 4t-105.5 14 q-16 4 -38 11.5t-48 17.5v287l196 51v-217q27 -6 43.5 -8t53.5 -2q76 0 120 26q57 33 58 90q0 53 -48 79t-116 34q-152 16 -231 59q-98 51 -99 154z" />
<glyph unicode="&#xe19;" horiz-adv-x="874" d="M82 244v575h201v-551q0 -51 37.5 -84.5t97.5 -33.5q31 0 62.5 11t56 30.5t40 45t15.5 54.5v528h201v-819h-201v102q-35 -45 -102.5 -76.5t-147.5 -31.5q-109 0 -178 55q-82 70 -82 195z" />
<glyph unicode="&#xe1a;" horiz-adv-x="872" d="M82 281v538h201v-538q0 -63 41 -95t112 -32q70 0 112 31.5t42 95.5v538h201v-538q0 -131 -94.5 -209t-260.5 -78q-160 0 -257 75.5t-97 211.5z" />
<glyph unicode="&#xe1b;" horiz-adv-x="872" d="M82 281v538h201v-538q0 -63 41 -95t112 -32q70 0 112 31.5t42 95.5v751h201v-751q0 -131 -94.5 -209t-260.5 -78q-160 0 -257 75.5t-97 211.5z" />
<glyph unicode="&#xe1c;" horiz-adv-x="1097" d="M0 819h334v-162h-101l84 -329l170 491h121l174 -491l133 491h181l-230 -819h-141l-178 518l-176 -518h-140z" />
<glyph unicode="&#xe1d;" horiz-adv-x="1097" d="M0 819h334v-162h-101l84 -329l170 491h121l174 -491l191 704h180l-289 -1032h-139l-178 516l-176 -516h-140z" />
<glyph unicode="&#xe1e;" horiz-adv-x="1097" d="M0 819h190l127 -491l170 491h121l174 -491l133 491h181l-230 -819h-141l-178 518l-176 -518h-140z" />
<glyph unicode="&#xe1f;" horiz-adv-x="1097" d="M0 819h190l127 -491l170 491h121l174 -491l193 704h180l-291 -1032h-139l-178 516l-176 -516h-140z" />
<glyph unicode="&#xe20;" horiz-adv-x="892" d="M20 0v164h82v502q125 168 355 168q76 0 141.5 -18.5t112.5 -54.5t73.5 -89.5t26.5 -122.5v-549h-201v535q0 59 -44 95t-115 36q-45 0 -86 -16.5t-62 -43.5v-606h-283z" />
<glyph unicode="&#xe21;" horiz-adv-x="874" d="M82 0v819h201v-528q0 -29 15 -54.5t39.5 -45t56.5 -30.5t63 -11q61 0 98 32.5t37 85.5v551h201v-575q0 -121 -80 -189q-78 -61 -181 -61q-86 0 -148 29.5t-101 78.5v-102h-201z" />
<glyph unicode="&#xe22;" horiz-adv-x="860" d="M41 268q0 68 43 115t109 66q-55 14 -93 49q-43 43 -43 104q0 94 80 160q82 68 201 67q76 0 162 -28v-166q-29 16 -58.5 23.5t-62.5 7.5q-115 0 -115 -68q0 -31 41 -49.5t103 -18.5q16 0 39.5 3.5t52.5 7.5v-174h-90q-72 0 -118 -28t-46 -75q0 -53 50 -81.5t130 -28.5 q53 0 87 11t65 32v622h200v-674q-47 -53 -84 -77q-121 -72 -268 -72q-180 0 -282.5 74.5t-102.5 197.5z" />
<glyph unicode="&#xe23;" horiz-adv-x="804" d="M33 289h196q0 -66 51.5 -98.5t122.5 -32.5q59 0 106.5 27.5t47.5 70.5t-51 63q-16 8 -43 13.5t-64 9.5q-158 16 -237 57q-106 55 -107 164q0 115 99 193q102 78 239 78q147 0 244.5 -63t124.5 -198h-201q-10 39 -57 66t-107 27q-59 0 -99 -24t-40 -54q0 -33 64 -51 q29 -10 112 -19q193 -20 262 -84q61 -55 62 -155q0 -135 -111 -218q-102 -68 -252 -67q-150 0 -252 65q-111 82 -110 230z" />
<glyph unicode="&#xe24;" horiz-adv-x="872" d="M82 0v666q125 168 354 168q76 0 141.5 -18.5t112.5 -54.5t74 -89.5t27 -122.5v-848h-201v834q0 59 -44 95t-116 36q-45 0 -86 -16.5t-61 -43.5v-442h127v-164h-328z" />
<glyph unicode="&#xe25;" horiz-adv-x="886" d="M41 270q0 125 98.5 203t278.5 78q111 0 186 -39v82q-16 31 -59 51.5t-99 20.5q-59 0 -108 -26t-68 -79h-213q12 63 48 114.5t88.5 86.5t119 53.5t140.5 18.5q141 0 239 -62q92 -57 113 -139v-633h-201v291q-59 80 -192 80q-74 0 -120 -30t-46 -77q0 -37 28.5 -61.5 t75.5 -24.5q25 0 49.5 5t49.5 24l104 -144q-47 -39 -100.5 -52t-124.5 -13q-131 0 -209 77t-78 195z" />
<glyph unicode="&#xe26;" horiz-adv-x="892" d="M20 0v164h82v502q125 168 355 168q76 0 141.5 -18.5t112.5 -54.5t73.5 -89.5t26.5 -122.5v-848h-201v834q0 59 -44 95t-115 36q-45 0 -86 -16.5t-62 -43.5v-606h-283z" />
<glyph unicode="&#xe27;" horiz-adv-x="800" d="M41 317h197q18 -74 59 -114.5t100 -40.5q82 0 125 76q37 63 37 172t-37 174q-43 76 -123 75q-125 0 -159 -157h-199q23 160 116 246t240 86q174 0 268.5 -112.5t94.5 -311.5t-94.5 -307.5t-268.5 -108.5q-147 0 -240.5 79t-115.5 244z" />
<glyph unicode="&#xe28;" horiz-adv-x="892" d="M82 0v539q0 127 102 211q109 84 262 84q92 0 140 -21l59 78l191 -74l-91 -104q66 -78 66 -174v-539h-201v551q0 53 -44 84t-120 31q-74 0 -118.5 -31t-44.5 -84v-68h225v-164h-225v-319h-201z" />
<glyph unicode="&#xe29;" horiz-adv-x="892" d="M82 281v538h201v-538q0 -63 41 -95t112 -32q70 0 112 31.5t42 95.5v81h-203v185l82 -21h121v293h201v-293h90v-164h-90v-81q0 -131 -94.5 -209t-260.5 -78q-160 0 -257 75.5t-97 211.5z" />
<glyph unicode="&#xe2a;" horiz-adv-x="890" d="M41 270q0 125 98.5 203t278.5 78q111 0 186 -39v82q-16 31 -59 51.5t-99 20.5q-59 0 -108 -26t-68 -79h-213q12 63 48 114.5t88.5 86.5t119 53.5t140.5 18.5q70 0 137 -23l57 80l191 -70l-84 -104q39 -39 51 -84v-633h-201v291q-59 80 -192 80q-74 0 -120 -30t-46 -77 q0 -37 28.5 -61.5t75.5 -24.5q25 0 49.5 5t49.5 24l104 -144q-47 -39 -100.5 -52t-124.5 -13q-131 0 -209 77t-78 195z" />
<glyph unicode="&#xe2b;" horiz-adv-x="868" d="M82 0v819h197v-239l309 249l200 -51l-190 -157q82 -18 135 -72.5t53 -140.5v-408h-194v352q0 72 -31 111t-100 47l-182 -152v-358h-197z" />
<glyph unicode="&#xe2c;" horiz-adv-x="1097" d="M0 819h199l125 -467l159 467h129l166 -471l53 213q2 10 3.5 18.5t1.5 12.5q0 63 -68 63h-47v164h76q55 0 78.5 11.5t33.5 43.5l27 89h203l-41 -146q-12 -45 -46 -72.5t-81 -42.5q57 -33 57 -106q0 -25 -6 -45l-156 -551h-147l-172 502l-170 -502h-146z" />
<glyph unicode="&#xe2d;" horiz-adv-x="946" d="M41 410l4 61h414v-164h-195q53 -133 207 -133q104 0 165.5 64.5t61.5 171.5q0 104 -61.5 168.5t-165.5 64.5q-66 0 -115 -25.5t-82 -85.5h-217q51 154 162 228t252 74q190 0 309 -119q121 -117 121 -305q0 -182 -121 -304q-119 -113 -309 -112q-195 0 -313 110 q-117 117 -117 306z" />
<glyph unicode="&#xe2e;" horiz-adv-x="946" d="M41 410l4 61h414v-164h-195q53 -133 207 -133q104 0 165.5 64.5t61.5 171.5q0 104 -61.5 168.5t-165.5 64.5q-66 0 -115 -25.5t-82 -85.5h-217q51 154 162 228t252 74q96 0 170 -31l66 88l192 -72l-100 -125q102 -114 102 -284q0 -182 -121 -304q-119 -113 -309 -112 q-195 0 -313 110q-117 117 -117 306z" />
<glyph unicode="&#xe2f;" horiz-adv-x="817" d="M23 610q0 47 20 87t57 70t87.5 46t109.5 16q68 0 166 -34v-154q-29 14 -66 20.5t-67 6.5q-106 0 -107 -58q0 -27 33 -42t76 -15q72 0 131 31q39 20 74 55v180h198v-819h-198v457q-37 -27 -95.5 -48.5t-122.5 -21.5q-141 0 -218.5 65.5t-77.5 157.5z" />
<glyph unicode="&#xe30;" horiz-adv-x="421" d="M51 102v228h201v-84h129v-144h-330zM51 489v228h201v-84h129v-144h-330z" />
<glyph unicode="&#xe31;" d="M-473 922v245h201v-102h436v-143h-637z" />
<glyph unicode="&#xe32;" horiz-adv-x="622" d="M33 602v184q106 47 200 48q150 0 228 -87.5t78 -224.5v-522h-191v504q0 72 -41 109.5t-112 37.5q-86 0 -162 -49z" />
<glyph unicode="&#xe33;" horiz-adv-x="620" d="M-319 1047q0 57 40.5 96t104.5 39q63 0 104 -39t41 -96t-41 -96.5t-104 -39.5t-104 39t-41 97zM-229 1047q0 -20 17 -36t38 -16q23 0 39 14.5t16 37.5q0 20 -17.5 35.5t-37.5 15.5q-23 0 -39 -14.5t-16 -36.5zM33 602v184q106 47 200 48q150 0 228 -87.5t78 -224.5v-522 h-191v504q0 72 -41 109.5t-112 37.5q-86 0 -162 -49z" />
<glyph unicode="&#xe34;" d="M-750 922v143h676v-143h-676z" />
<glyph unicode="&#xe35;" d="M-750 922v143h476v102h200v-245h-676z" />
<glyph unicode="&#xe36;" d="M-750 922v143h441q6 51 43 84t92 33q57 0 97 -38t40 -93t-39 -92t-98 -37h-576zM-225 1051q0 -51 51 -52q51 1 51 52t-51 51t-51 -51z" />
<glyph unicode="&#xe37;" d="M-750 922v143h306v102h108v-102h62v102h200v-245h-676z" />
<glyph unicode="&#xe38;" d="M-356 -74h282v-276h-200v153h-82v123z" />
<glyph unicode="&#xe39;" d="M-594 -74h238v-141q16 -10 41 -10q41 0 41 32v119h200v-143q0 -35 -18.5 -61.5t-51 -45t-74.5 -27.5t-91 -9q-61 0 -123 19t-98 58v86h-64v123z" />
<glyph unicode="&#xe3a;" d="M-307 -197q0 49 39 86t94 37t94 -37t39 -86t-39 -85.5t-94 -36.5t-94 36.5t-39 85.5z" />
<glyph unicode="&#xe3f;" horiz-adv-x="952" d="M102 0v965h347v129h57v-129h65q137 0 212 -58.5t75 -181.5q0 -143 -137 -205q180 -45 180 -252q0 -121 -82 -190q-96 -78 -272 -78h-41v-121h-57v121h-347zM272 137h177v301h-177v-301zM272 561h177v266h-177v-266zM506 137h65q78 0 120 40t42 114q0 147 -162 147h-65 v-301zM506 561h41q143 0 143 133t-143 133h-41v-266z" />
<glyph unicode="&#xe40;" horiz-adv-x="405" d="M102 0v819h201v-819h-201z" />
<glyph unicode="&#xe41;" horiz-adv-x="749" d="M102 0v819h201v-819h-201zM446 0v819h201v-819h-201z" />
<glyph unicode="&#xe42;" horiz-adv-x="446" d="M0 1112q0 63 49 95t141 32h291v-154h-211q-57 0 -57 -12q43 -27 77 -68.5t34 -101.5v-903h-201v895q0 51 -88 137q-35 41 -35 80z" />
<glyph unicode="&#xe43;" horiz-adv-x="446" d="M-80 1036q0 113 69.5 178.5t180.5 65.5q113 0 182.5 -60.5t69.5 -146.5q0 -45 -31 -78q-68 -78 -67 -116v-879h-201v899q0 57 67 119q33 31 33 59q0 23 -15 40.5t-44 17.5q-31 0 -52.5 -26t-21.5 -73h-170z" />
<glyph unicode="&#xe44;" horiz-adv-x="405" d="M-135 1151l115 119l114 -113l123 100l209 -213q-123 -92 -123 -208v-836h-201v817q0 68 41 133q14 23 34 44.5t42 43.5l-26 27l-121 -107z" />
<glyph unicode="&#xe45;" horiz-adv-x="643" d="M33 602v184q106 47 200 48q154 0 240 -88.5t86 -223.5v-821h-190v803q0 72 -49.5 109.5t-124.5 37.5q-86 0 -162 -49z" />
<glyph unicode="&#xe46;" horiz-adv-x="839" d="M33 385v174q0 129 65.5 199.5t194.5 70.5l100 -77l103 77q129 0 194.5 -70.5t65.5 -199.5v-858h-201v887q0 70 -45 76l-111 -89l-125 89q-45 -6 -45 -76v-41h136v-162h-332z" />
<glyph unicode="&#xe47;" d="M-690 922v88q0 94 60.5 154.5t172.5 60.5h383v-103h-377q-45 0 -72.5 -23.5t-27.5 -56.5h74l108 60l105 -60h127v-120h-137l-95 55l-98 -55h-223z" />
<glyph unicode="&#xe48;" d="M-274 1229v205h200v-205h-200z" />
<glyph unicode="&#xe49;" d="M-403 1339v111h110q104 0 105 -88l219 -4v-129h-381v90q0 20 -19 20h-34z" />
<glyph unicode="&#xe4a;" d="M-438 1229v98q0 61 36.5 92t102.5 31h45l72 -49l65 49h45q125 0 125 -111v-12h105v-98h-250v94q0 14 -6 20q-4 0 -6 3l-78 -64l-90 64q-12 -12 -13 -23v-57l19 -37h-172z" />
<glyph unicode="&#xe4b;" d="M-348 1307v112h92v78h160v-78h92v-112h-92v-78h-160v78h-92z" />
<glyph unicode="&#xe4c;" d="M-299 1147v57q0 66 39 97.5t106 31.5h146v-121h-60q-51 0 -51 -43v-22h-180z" />
<glyph unicode="&#xe4d;" d="M-319 1047q0 57 40.5 96t104.5 39q63 0 104 -39t41 -96t-41 -96.5t-104 -39.5t-104 39t-41 97zM-229 1047q0 -20 17 -36t38 -16q23 0 39 14.5t16 37.5q0 20 -17.5 35.5t-37.5 15.5q-23 0 -39 -14.5t-16 -36.5z" />
<glyph unicode="&#xe4e;" d="M-549 1135q0 33 16.5 59.5t40 46t51 31.5t50.5 16q-29 25 -29 68q0 39 39 82t92 63q51 20 126 27.5t138 7.5h25h2v-106q-37 4 -90 -1.5t-100.5 -16.5t-79 -26.5t-25.5 -29.5q0 -23 28.5 -31t69.5 -8h19h4v-94h-12h-17q-10 0 -16 2q-43 0 -68.5 -3t-62.5 -16 q-37 -10 -59.5 -28.5t-16.5 -38.5q6 -16 41 -17q27 0 62.5 10.5t60.5 28.5l53 -90q-35 -16 -55 -24q-66 -27 -125 -27q-6 2 -16 2h-11q-61 8 -98 39t-37 74z" />
<glyph unicode="&#xe4f;" horiz-adv-x="983" d="M72 410q0 174 122.5 296.5t297.5 122.5q174 0 296.5 -122.5t122.5 -296.5t-123 -297q-127 -115 -296 -115q-170 0 -297 115q-123 123 -123 297zM133 410q0 -147 105 -254q106 -104 254 -105q147 0 251 105q107 107 107 254t-107 252q-104 106 -251 106t-254 -106 q-104 -104 -105 -252zM236 410q0 106 73 180q76 76 183 76q106 0 180 -76q76 -74 76 -180t-76 -183q-74 -74 -180 -73q-106 0 -183 73q-74 76 -73 183z" />
<glyph unicode="&#xe50;" horiz-adv-x="835" d="M51 315q0 133 103 232q100 98 264 98q162 0 264 -98q102 -97 102 -232t-102 -231q-102 -90 -264 -90q-164 0 -264 88q-102 96 -103 233zM246 315q0 -31 13 -59.5t35.5 -50t53.5 -34.5t68 -13q74 0 123 47t49 110t-48 109.5t-124 46.5q-74 0 -122 -46t-48 -110z" />
<glyph unicode="&#xe51;" horiz-adv-x="890" d="M51 332q0 135 115 225q113 88 272 88q170 0 285 -92q117 -91 117 -238q0 -164 -140 -284q-129 -102 -321 -131l-76 112q154 16 249 91t95 184q0 86 -56 138t-151 52q-82 0 -138 -43t-56 -104q0 -20 8 -46t20 -34q0 63 45.5 106t110.5 43q68 0 113 -41t45 -100 q0 -82 -65.5 -137t-176.5 -55q-121 0 -209 73q-86 74 -86 193zM375 256q0 -20 16.5 -34.5t38.5 -14.5q55 0 55 49q0 18 -16 32.5t-39 14.5q-55 0 -55 -47z" />
<glyph unicode="&#xe52;" horiz-adv-x="1161" d="M-33 764l148 117q76 -45 116.5 -107.5t40.5 -148.5v-389q0 -47 22.5 -64.5t67.5 -17.5h521v270q0 51 -41 68l-123 -101l-141 101q-20 0 -35 -12.5t-15 -26.5q55 -6 85 -43t30 -91q0 -57 -45 -96t-111 -39q-63 0 -108 39t-45 96v99q0 111 76.5 169t199.5 58l103 -78 l104 78q123 0 191.5 -63.5t68.5 -163.5v-418h-792q-203 0 -203 156v450q0 39 -29 86q-35 53 -86 72zM440 322q0 -45 49 -46q50 1 50 46t-50 45q-20 0 -34.5 -14.5t-14.5 -30.5z" />
<glyph unicode="&#xe53;" horiz-adv-x="952" d="M82 160v221q0 111 67.5 180.5t204.5 83.5l123 -84l125 84q131 -12 199.5 -82.5t68.5 -181.5v-381h-196v365q0 76 -68 98l-123 -94l-135 94q-68 -23 -67 -98v-41q66 -6 112.5 -54.5t46.5 -109.5q0 -70 -52 -116t-128 -46q-80 0 -129 45t-49 117zM203 160q0 -57 57 -58 q66 1 66 58t-66 57q-57 0 -57 -57z" />
<glyph unicode="&#xe54;" horiz-adv-x="960" d="M51 307q0 145 111 238q113 94 272 94h232q49 0 63 50t14 155h195q0 -172 -53 -269q-59 -102 -189 -102h-262q-78 0 -133 -45t-55 -121q0 -66 51 -104.5t121 -38.5q63 0 86 8q-35 41 -35 102q0 66 49 109t119 43t118 -44t48 -103q0 -35 -7.5 -58.5t-21.5 -42.5 q49 -8 95 -23.5t85 -48.5l-112 -126q-119 47 -176 47q-14 0 -41 -4.5t-68 -12.5q-35 -4 -71.5 -7t-75.5 -3q-152 0 -248 72q-111 86 -111 235zM578 279q0 -49 59 -50q33 0 45 18t12 32q0 20 -15 35.5t-42 15.5t-43 -14.5t-16 -36.5z" />
<glyph unicode="&#xe55;" horiz-adv-x="960" d="M51 309q0 111 66.5 192t189.5 107q-20 27 -20 68q0 70 53 117t139 47t139.5 -43t53.5 -115q0 -29 -10 -45h14q59 0 81.5 59.5t22.5 147.5h191q0 -168 -72 -269.5t-197 -101.5h-239q-94 0 -156.5 -43t-62.5 -121q0 -66 52 -105.5t122 -39.5q63 0 86 8q-35 41 -35 102 q0 66 49 109t119 43t118 -44t48 -103q0 -35 -7.5 -58.5t-21.5 -42.5q37 -8 58.5 -11t25.5 -5q57 -16 96 -49l-112 -133q-119 47 -176 47q-14 0 -41 -4.5t-68 -12.5q-35 -4 -71.5 -7t-75.5 -3q-152 0 -248 72q-111 86 -111 237zM416 678q0 -23 18.5 -39t44.5 -16q64 0 64 55 q0 25 -17.5 40t-46.5 15q-27 0 -45 -16.5t-18 -38.5zM578 279q0 -49 59 -50q33 0 45 18t12 32q0 20 -15 35.5t-42 15.5t-43 -14.5t-16 -36.5z" />
<glyph unicode="&#xe56;" horiz-adv-x="897" d="M-98 735l145 109q76 -45 143 -127q45 -51 74 -127q39 23 93.5 39t111.5 16q162 0 270 -90q107 -89 107 -236q0 -143 -115 -239q-115 -86 -287 -86q-150 0 -245 65q-94 70 -95 166q0 68 51.5 117t125.5 49t124 -48t50 -110q0 -45 -21 -77h10q86 0 146.5 46t60.5 117 q0 68 -53 114t-139 46q-57 0 -107.5 -19.5t-93.5 -51.5l-133 30q-20 98 -78 168q-23 27 -57.5 58.5t-87.5 70.5zM221 233q0 -49 58 -49q27 0 43 14.5t16 34.5q0 49 -59 50q-25 0 -41.5 -14.5t-16.5 -35.5z" />
<glyph unicode="&#xe57;" horiz-adv-x="1185" d="M82 160v221q0 111 67.5 180.5t204.5 83.5l103 -84l104 84q131 -12 199.5 -82.5t68.5 -181.5v-227q45 0 60 8q25 14 24 59v404q0 86 41 148.5t117 107.5l156 -117q-59 -18 -91 -65.5t-32 -92.5v-405q0 -92 -61.5 -146.5t-161.5 -54.5h-248v365q0 76 -68 98l-102 -94 l-115 94q-68 -23 -67 -98v-41q66 -6 112.5 -54.5t46.5 -109.5q0 -70 -52 -116t-128 -46q-80 0 -129 45t-49 117zM203 160q0 -57 57 -58q66 1 66 58t-66 57q-57 0 -57 -57z" />
<glyph unicode="&#xe58;" horiz-adv-x="987" d="M51 307q0 152 129 244q131 94 320 94q59 0 112.5 -3t98.5 -11q18 37 33.5 89t25.5 128l188 -27q-18 -125 -57 -214t-102 -167q-78 20 -141.5 30.5t-137.5 10.5q-123 0 -198.5 -50t-75.5 -124q0 -43 18.5 -72.5t48.5 -46.5l140 123l180 -145l16 8q-12 8 -25.5 36t-13.5 58 q0 59 46 101.5t114 42.5q70 0 118 -39t48 -103q0 -133 -174 -219l-150 -63l-153 106l-115 -104q-119 18 -205 104q-88 88 -88 213zM715 262q0 -20 16.5 -34.5t38.5 -14.5q23 0 39 14.5t16 34.5q0 18 -16 34.5t-39 16.5t-39 -14t-16 -37z" />
<glyph unicode="&#xe59;" horiz-adv-x="1007" d="M47 330q0 141 100 227q100 88 259 88q121 0 208 -63q25 35 65 55t95 20q39 0 63.5 -7t47.5 -19q12 39 12 104v58q-4 14 -5 23t-3 15h190q0 -287 -129 -421l-63 18q-10 27 -33 41t-47 14q-55 0 -64 -32q55 -78 92 -187.5t60 -251.5l-186 -12q-35 285 -115 389 q-68 90 -180 90q-74 0 -122 -44t-48 -107q0 -33 7 -57.5t21 -47.5q14 53 60.5 87t109.5 34q76 0 126 -48t50 -118q0 -41 -18 -73.5t-50 -56t-74 -36t-87 -12.5q-143 0 -244 94q-98 100 -98 236zM383 174q0 -18 17.5 -33.5t39.5 -15.5q18 0 33 8q25 14 25 41q0 20 -16.5 36.5 t-41.5 16.5q-16 0 -30 -8q-27 -14 -27 -45z" />
<glyph unicode="&#xe5a;" horiz-adv-x="1056" d="M23 610q0 47 21.5 87t58 70t87 46t107.5 16q74 0 166 -34v-154q-29 14 -66 20.5t-67 6.5q-106 0 -107 -58q0 -27 33 -42t76 -15q72 0 131 31q39 20 74 55v180h198v-819h-198v457q-37 -27 -95.5 -48.5t-122.5 -21.5q-141 0 -218.5 65.5t-77.5 157.5zM838 0v819h137v-819 h-137z" />
<glyph unicode="&#xe5b;" horiz-adv-x="1515" d="M61 416q0 160 76 260q76 106 191 106q49 0 91 -20.5t72.5 -56t48 -86t17.5 -107.5q0 -92 -43 -151.5t-108 -59.5q-55 0 -94.5 43t-39.5 107q0 59 39 104t92 45l15 -2q-23 72 -88 72q-61 0 -103.5 -75t-42.5 -187q0 -117 48.5 -184.5t129.5 -67.5q94 0 163 99t93 267 q8 55 22.5 74.5t45.5 19.5q66 0 102 -135l5 54q0 61 51 61q49 0 96 -98q6 31 14.5 46t30.5 15q27 0 48.5 -21.5t45.5 -66.5q10 29 20.5 43t30.5 14q31 0 70 -57q18 33 51 27l158 -19q64 -6 64 -45q0 -37 -64 -43l-147 -18q-8 -20 -23.5 -38t-32.5 -18q-16 0 -31.5 21.5 t-23.5 38.5q-8 -37 -25.5 -60.5t-40.5 -23.5q-12 0 -22 10t-19.5 23.5t-15.5 27t-10 19.5q-8 -45 -27.5 -74t-46.5 -29q-12 0 -22.5 11.5t-18.5 29t-14 37t-12 35.5q-20 -76 -43 -106.5t-58 -30.5q-43 0 -55 61l-19 74q-35 -125 -106 -209q-115 -123 -246 -123 q-66 0 -118 26.5t-91 74t-59.5 115t-20.5 151.5zM358 453q0 -57 45 -58q50 1 50 58t-50 57q-45 0 -45 -57z" />
<glyph unicode="&#x2000;" horiz-adv-x="799" />
<glyph unicode="&#x2001;" horiz-adv-x="1599" />
<glyph unicode="&#x2002;" horiz-adv-x="799" />
<glyph unicode="&#x2003;" horiz-adv-x="1599" />
<glyph unicode="&#x2004;" horiz-adv-x="533" />
<glyph unicode="&#x2005;" horiz-adv-x="399" />
<glyph unicode="&#x2006;" horiz-adv-x="266" />
<glyph unicode="&#x2007;" horiz-adv-x="266" />
<glyph unicode="&#x2008;" horiz-adv-x="199" />
<glyph unicode="&#x2009;" horiz-adv-x="319" />
<glyph unicode="&#x200a;" horiz-adv-x="88" />
<glyph unicode="&#x2010;" horiz-adv-x="550" d="M72 287v164h407v-164h-407z" />
<glyph unicode="&#x2011;" horiz-adv-x="550" d="M72 287v164h407v-164h-407z" />
<glyph unicode="&#x2012;" horiz-adv-x="550" d="M72 287v164h407v-164h-407z" />
<glyph unicode="&#x2013;" horiz-adv-x="811" d="M66 268v146h682v-146h-682z" />
<glyph unicode="&#x2014;" horiz-adv-x="1622" d="M66 268v146h1490v-146h-1490z" />
<glyph unicode="&#x2018;" horiz-adv-x="374" d="M92 530v207q0 92 53.5 154.5t139.5 73.5v-88q-49 -18 -69.5 -51t-20.5 -87h90v-209h-193z" />
<glyph unicode="&#x2019;" horiz-adv-x="374" d="M92 530v91q49 16 68.5 48.5t19.5 88.5h-88v207h193v-207q0 -92 -53.5 -153.5t-139.5 -74.5z" />
<glyph unicode="&#x201c;" horiz-adv-x="626" d="M74 530v207q0 92 52 154.5t138 73.5v-88q-49 -18 -68.5 -51t-19.5 -87h88v-209h-190zM360 530v207q0 92 53.5 154.5t139.5 73.5v-88q-49 -18 -69.5 -51t-20.5 -87h90v-209h-193z" />
<glyph unicode="&#x201d;" horiz-adv-x="626" d="M74 530v91q49 16 68.5 48.5t19.5 88.5h-88v207h190v-207q0 -88 -52 -151.5t-138 -76.5zM360 530v91q51 16 71 48.5t20 88.5h-91v207h193v-207q0 -92 -53.5 -153.5t-139.5 -74.5z" />
<glyph unicode="&#x2022;" horiz-adv-x="757" d="M72 410q0 127 90 217t217 90t217 -90t90 -217t-90 -217.5t-217 -90.5t-217 90.5t-90 217.5z" />
<glyph unicode="&#x2026;" horiz-adv-x="1351" d="M119 0v209h213v-209h-213zM569 0v209h211v-209h-211zM1020 0v209h211v-209h-211z" />
<glyph unicode="&#x202f;" horiz-adv-x="319" />
<glyph unicode="&#x205f;" horiz-adv-x="399" />
<glyph unicode="&#x25fc;" horiz-adv-x="700" d="M0 0v700h700v-700h-700z" />
<glyph unicode="&#xf700;" horiz-adv-x="833" d="M0 674q86 88 174 124t211 36q104 0 168 -33l63 90l191 -74l-105 -129q84 -115 84 -262q0 -199 -135 -312.5t-399 -113.5l-74 340h-90v164h254l68 -332q37 8 69.5 31.5t57 58.5t38 77t13.5 87q0 98 -62 164q-68 72 -178 72q-78 0 -135 -31t-98 -82z" />
<glyph unicode="&#xf701;" d="M-950 922v143h614v-143h-614z" />
<glyph unicode="&#xf702;" d="M-950 922v143h413v102h201v-245h-614z" />
<glyph unicode="&#xf703;" d="M-952 922v143h379q6 51 42.5 84t92.5 33q57 0 97 -38t40 -93t-39 -92t-98 -37h-514zM-489 1051q0 -51 51 -52q51 1 51 52t-51 51t-51 -51z" />
<glyph unicode="&#xf704;" d="M-950 922v143h243v102h109v-102h61v102h201v-245h-614z" />
<glyph unicode="&#xf705;" d="M-557 922v245h201v-245h-201z" />
<glyph unicode="&#xf706;" d="M-588 1044v123h123q61 0 89 -25.5t28 -72.5l358 -4v-143h-538v100q0 23 -21 22h-39z" />
<glyph unicode="&#xf707;" d="M-926 922v110q0 68 42 101.5t112 33.5h49l80 -53l74 53h49q70 0 109.5 -28.5t39.5 -94.5v-12h115v-110h-287v104q0 16 -6 23l-2 2q-2 0 -4 2l-88 -72l-100 72q-12 -16 -13 -25v-65l21 -41h-191z" />
<glyph unicode="&#xf708;" d="M-721 1008v125h103v86h200v-86h103v-125h-103v-86h-200v86h-103z" />
<glyph unicode="&#xf709;" d="M-557 1032v64q0 72 44 107.5t118 35.5h162v-133h-66q-57 0 -57 -49v-25h-201z" />
<glyph unicode="&#xf70a;" d="M-274 922v245h200v-245h-200z" />
<glyph unicode="&#xf70b;" d="M-463 1044v123h123q61 0 89 -25.5t28 -72.5l243 -4v-143h-423v100q0 23 -21 22h-39z" />
<glyph unicode="&#xf70c;" d="M-684 922v110q0 68 42 101.5t112 33.5h49l80 -53l73 53h49q70 0 110 -28.5t40 -94.5v-12h115v-110h-287v104q0 16 -6 23l-2 2q-2 0 -4 2l-88 -72l-101 72q-12 -16 -12 -25v-65l20 -41h-190z" />
<glyph unicode="&#xf70d;" d="M-459 1008v125h103v86h180v-86h102v-125h-102v-86h-180v86h-103z" />
<glyph unicode="&#xf70e;" d="M-350 922v63q0 72 44 107.5t118 35.5h161v-133h-65q-57 0 -58 -49v-24h-200z" />
<glyph unicode="&#xf70f;" horiz-adv-x="1378" d="M82 0v666q125 168 354 168q76 0 141.5 -18.5t112.5 -54.5t74 -89.5t27 -122.5v-270q0 -57 44 -91t107 -34q66 0 112 33.5t46 91.5v540h196v-549q0 -129 -102 -207q-100 -70 -252 -69q-152 0 -252 69q-100 76 -100 207v265q0 59 -44 95t-116 36q-45 0 -86 -16.5t-61 -43.5 v-442h127v-164h-328z" />
<glyph unicode="&#xf710;" d="M-643 922v245h201v-102h456v-143h-657z" />
<glyph unicode="&#xf711;" d="M-584 1047q0 57 41 96t105 39q63 0 104 -39t41 -96t-41 -96.5t-104 -39.5t-104.5 39t-41.5 97zM-494 1047q0 -20 17.5 -36t38.5 -16q23 0 39 14.5t16 37.5q0 20 -17.5 35.5t-37.5 15.5q-23 0 -39.5 -14.5t-16.5 -36.5z" />
<glyph unicode="&#xf712;" d="M-868 922v88q0 94 60 154.5t173 60.5h383v-103h-377q-45 0 -72.5 -23.5t-27.5 -56.5h74l108 60l105 -60h127v-120h-138l-94 55l-98 -55h-223z" />
<glyph unicode="&#xf713;" d="M-537 1229v205h201v-205h-201z" />
<glyph unicode="&#xf714;" d="M-625 1339v111h111q104 0 104 -88l228 -4v-129h-389v90q0 20 -19 20h-35z" />
<glyph unicode="&#xf715;" d="M-623 1229v98q0 61 37 92t103 31h45l71 -49l66 49h45q59 0 96 -26.5t37 -84.5v-12h105v-98h-258v94q0 14 -7 20q-4 0 -6 3l-78 -64l-90 64q-12 -12 -12 -23v-57l18 -37h-172z" />
<glyph unicode="&#xf716;" d="M-621 1307v112h93v78h180v-78h92v-112h-92v-78h-180v78h-93z" />
<glyph unicode="&#xf717;" d="M-561 1147v57q0 66 39 97.5t106 31.5h146v-121h-60q-51 0 -51 -43v-22h-180z" />
<glyph unicode="&#xf718;" d="M-356 -360h282v-277h-200v154h-82v123z" />
<glyph unicode="&#xf719;" d="M-594 -360h238v-142q16 -10 41 -10q41 0 41 33v119h200v-144q0 -35 -18.5 -61.5t-51 -45t-74.5 -27.5t-91 -9q-61 0 -123 19.5t-98 58.5v86h-64v123z" />
<glyph unicode="&#xf71a;" d="M-340 -483q0 49 39 86t94 37t94 -37t39 -86t-39 -86t-94 -37t-94 37t-39 86z" />
<glyph unicode="&#xf71b;" d="M-473 0h473v1208h-473v-1208z" />
<glyph unicode="&#xf71c;" horiz-adv-x="512" />
<glyph unicode="&#xf71d;" horiz-adv-x="512" d="M41 0v-186h35v71q35 23 74 23h200q53 0 86 -27v-67h35v186h-430z" />
</font>
</defs>
</svg>
