<?xml version="1.0" standalone="no"?>
<!DOCTYPE svg PUBLIC "-//W3C//DTD SVG 1.1//EN" "http://www.w3.org/Graphics/SVG/1.1/DTD/svg11.dtd" >
<svg xmlns="http://www.w3.org/2000/svg" xmlns:xlink="http://www.w3.org/1999/xlink" version="1.1">
<metadata></metadata>
<defs>
<font id="psl_kandamodern_extra_proRg" horiz-adv-x="0" >
<font-face units-per-em="2048" ascent="1638" descent="-410" />
<missing-glyph horiz-adv-x="512" />
<glyph unicode="&#xe37;&#xe48;" d="M-727 922v110h313v105h115v-105h61v105h177v-215h-666zM-328 1198v174h176v-174h-176z" />
<glyph unicode="&#xd;" horiz-adv-x="512" />
<glyph unicode=" "  horiz-adv-x="512" />
<glyph unicode="&#x09;" horiz-adv-x="512" />
<glyph unicode="&#xa0;" horiz-adv-x="512" />
<glyph unicode="!" horiz-adv-x="391" d="M90 98q0 47 30 77t77 30q46 0 76 -30t30 -77q0 -48 -30 -78t-76 -30q-47 0 -77 30t-30 78zM104 705v260h185v-260l-43 -418h-96z" />
<glyph unicode="&#x22;" horiz-adv-x="616" d="M113 584v381h153v-381h-153zM350 584v381h154v-381h-154z" />
<glyph unicode="#" horiz-adv-x="768" d="M45 281v114h143l23 156h-125v115h139l39 280h129l-41 -280h131l39 280h129l-41 -280h115v-115h-131l-21 -156h113v-114h-129l-41 -281h-127l41 281h-131l-41 -281h-127l39 281h-125zM315 395h131l23 156h-133z" />
<glyph unicode="$" horiz-adv-x="768" d="M23 303h170q0 -88 37 -137t120 -55v309q-56 16 -111 37.5t-98.5 55t-70.5 83.5t-27 123q0 64 25 114t67.5 84t98 52t116.5 20v105h74v-105q61 -1 115.5 -18t94.5 -51t63.5 -85.5t23.5 -121.5h-170q-3 68 -33.5 103.5t-93.5 37.5v-268q62 -16 120 -38t102.5 -56.5 t71.5 -85t27 -123.5q0 -75 -25 -131t-68 -94t-102 -58.5t-126 -24.5v-104h-74v104q-73 3 -133.5 25.5t-104 64t-67 101t-22.5 137.5zM213 729q0 -29 12 -50t31.5 -35.5t44 -24t49.5 -15.5v250q-66 -2 -101.5 -30.5t-35.5 -94.5zM424 111q66 6 107.5 41.5t41.5 109.5 q0 34 -12.5 58t-33.5 40.5t-48 27t-55 18.5v-295z" />
<glyph unicode="%" horiz-adv-x="1368" d="M111 692q0 55 13.5 105t41.5 87t72 59t106 22t107 -22t73.5 -59t42 -87t13.5 -105q0 -56 -13 -105.5t-41.5 -86.5t-73 -58.5t-108.5 -21.5t-108.5 21.5t-72 58.5t-40 86.5t-12.5 105.5zM250 692q0 -35 4.5 -66t15.5 -54t29 -36.5t45 -13.5t45.5 13.5t29.5 36.5t16 54 t5 66q0 32 -4 62.5t-14.5 54.5t-29 38.5t-48.5 14.5t-48.5 -14.5t-28.5 -38.5t-13.5 -54.5t-3.5 -62.5zM346 -33l533 1012h122l-530 -1012h-125zM788 254q0 55 13.5 104.5t42 86.5t73.5 59t107 22q61 0 105.5 -22t72.5 -59t41.5 -86.5t13.5 -104.5q0 -56 -12.5 -105.5 t-40.5 -86.5t-72 -58.5t-108 -21.5t-108.5 21.5t-73 58.5t-41.5 86.5t-13 105.5zM928 254q0 -35 4.5 -66t15.5 -54t29 -36.5t45 -13.5t45.5 13.5t29.5 36.5t16 54t5 66q0 31 -4 61.5t-14.5 54.5t-29 39t-48.5 15t-48.5 -15t-28.5 -39t-13.5 -54.5t-3.5 -61.5z" />
<glyph unicode="&#x26;" horiz-adv-x="893" d="M43 272q0 50 18.5 92t49 76t69.5 61t80 48q-18 23 -35 46.5t-29.5 48.5t-20 52t-7.5 58q0 53 19 96t52 73.5t77.5 47t95.5 16.5q48 0 93.5 -14.5t80 -43.5t55.5 -72.5t21 -102.5q0 -42 -14 -78.5t-37.5 -67.5t-54 -55.5t-64.5 -42.5l135 -160q6 22 11.5 49.5t10.5 69.5 h152q-6 -68 -23 -129t-51 -109l195 -231l-211 2l-84 98q-54 -62 -121.5 -90t-149.5 -28q-68 0 -125.5 19.5t-99 56.5t-65 91t-23.5 123zM213 268q0 -72 42 -111.5t105 -39.5q39 0 67.5 10t48.5 25t33 32t23 31l-180 221q-21 -11 -45 -24t-45 -32t-35 -46t-14 -66zM322 762 q0 -23 8 -42.5t20.5 -37.5t26.5 -34.5t26 -33.5q20 14 38.5 28t33 31t23 37.5t8.5 47.5q0 43 -24 71.5t-66 28.5q-19 0 -36 -7t-30 -19.5t-20.5 -30.5t-7.5 -39z" />
<glyph unicode="'" horiz-adv-x="391" d="M119 584v381h153v-381h-153z" />
<glyph unicode="(" horiz-adv-x="391" d="M66 365q0 164 52 323t146 299h144q-85 -152 -127.5 -303.5t-42.5 -318.5q0 -166 40.5 -318t131.5 -305l-146 2q-41 64 -77 133t-63 145.5t-42.5 161.5t-15.5 181z" />
<glyph unicode=")" horiz-adv-x="391" d="M-16 987h141q42 -64 78.5 -133t63.5 -145.5t43 -162t16 -181.5q0 -166 -53.5 -324.5t-147.5 -298.5h-139q84 151 127 303t43 320q0 165 -41.5 317t-130.5 305z" />
<glyph unicode="*" horiz-adv-x="516" d="M25 770l34 98l146 -55v152h108v-152l144 55l39 -98l-154 -51l94 -117l-84 -59l-96 123l-88 -123l-88 59l92 117z" />
<glyph unicode="+" horiz-adv-x="766" d="M41 274v134h274v274h134v-274h276v-134h-276v-276h-134v276h-274z" />
<glyph unicode="," horiz-adv-x="381" d="M78 96q0 22 8.5 42.5t23.5 35.5t35.5 24t44.5 9q57 0 89 -36.5t32 -96.5q0 -26 -7.5 -55.5t-24.5 -60t-45 -61.5t-68 -59l-74 31q27 18 46 36t31 34.5t18 29.5t8 21q-24 -1 -45.5 6.5t-37 22t-25 34t-9.5 43.5z" />
<glyph unicode="-" horiz-adv-x="543" d="M66 295v145h409v-145h-409z" />
<glyph unicode="." horiz-adv-x="381" d="M82 98q0 22 8.5 42t23.5 35t34.5 23.5t41.5 8.5t42 -8.5t35 -23.5t23.5 -35t8.5 -42t-8.5 -41.5t-23.5 -34.5t-35 -23.5t-42 -8.5t-41.5 8.5t-34.5 23.5t-23.5 34.5t-8.5 41.5z" />
<glyph unicode="/" horiz-adv-x="492" d="M-35 -23l395 1010h166l-395 -1010h-166z" />
<glyph unicode="0" horiz-adv-x="766" d="M49 473q0 54 5.5 111t19.5 112t38 103.5t61 85.5t89 58.5t121 21.5q70 0 122 -21.5t89 -58.5t61.5 -85.5t38.5 -103.5t19.5 -112t5.5 -111t-5.5 -111t-19.5 -111.5t-38.5 -103.5t-61.5 -85.5t-89 -58t-122 -21.5q-69 0 -121 21.5t-89 58t-61 85.5t-38 103.5t-19.5 111.5 t-5.5 111zM219 473q0 -70 7 -133.5t25.5 -111.5t50.5 -76.5t81 -28.5t81 28.5t51 76.5t26.5 111.5t7.5 133.5t-7.5 133.5t-26.5 111.5t-51 76.5t-81 28.5t-81 -28.5t-50.5 -76.5t-25.5 -111.5t-7 -133.5z" />
<glyph unicode="1" horiz-adv-x="766" d="M72 655v136q50 0 96 8.5t83 27t63 48t36 71.5h139v-946h-186v655h-231z" />
<glyph unicode="2" horiz-adv-x="766" d="M53 0q0 61 15 114t43 98.5t66.5 84t86.5 70.5q46 31 96 62t91 66t68 76.5t28 94.5q1 24 -5 51.5t-23 51t-47 39t-77 15.5q-45 0 -75.5 -17t-49 -44.5t-25 -62t-3.5 -68.5h-172q-3 75 18 136.5t63 105.5t104.5 68t143.5 24q91 0 152 -27.5t98 -70t52.5 -95t15.5 -102.5 q0 -56 -18 -102t-48 -85t-69 -71t-80 -60q-39 -26 -77.5 -50t-71.5 -48.5t-58 -49.5t-37 -52h457v-152h-662z" />
<glyph unicode="3" horiz-adv-x="766" d="M41 281h172q1 -31 11.5 -59.5t31.5 -50.5t52.5 -35t74.5 -13q37 0 68.5 10t54.5 30.5t36 50.5t13 69q0 51 -21 81.5t-55.5 45.5t-79 18.5t-92.5 1.5v131q41 -2 79 4.5t67.5 22t47 42.5t17.5 68q0 57 -39.5 91t-99.5 34q-39 0 -67 -14t-46.5 -35.5t-27.5 -48t-9 -51.5 h-170q0 59 23 112t65 92.5t101.5 63t132.5 23.5q57 0 112 -16t98.5 -48t70 -80t26.5 -112q0 -70 -33 -122t-92 -77q36 -9 66 -31t51 -52.5t33 -69.5t12 -83q0 -68 -27.5 -122t-74.5 -91.5t-109 -58t-131 -20.5q-84 0 -148 24t-107 65t-65 95t-22 115z" />
<glyph unicode="4" horiz-adv-x="766" d="M33 221v160l409 565h162v-590h119v-135h-119v-221h-166v221h-405zM174 356h264v383z" />
<glyph unicode="5" horiz-adv-x="766" d="M47 281h170q8 -78 51.5 -118t114.5 -40q47 0 79 15.5t52 42t28.5 62t8.5 76.5q0 37 -10 71t-31 59.5t-53.5 41t-77.5 15.5q-23 0 -45 -3.5t-41.5 -13.5t-35 -26.5t-24.5 -42.5h-170l105 526h504v-151h-377l-39 -207q29 25 73 40t89 15q72 0 128.5 -24.5t96 -67t60 -101.5 t20.5 -128q0 -58 -19 -118t-59.5 -109.5t-104.5 -81t-153 -31.5q-70 0 -131 18.5t-106.5 55.5t-73 93.5t-29.5 131.5z" />
<glyph unicode="6" horiz-adv-x="766" d="M45 475q0 57 8 115t26.5 112.5t47 102.5t69 83.5t94.5 56t122 20.5q57 0 109 -19.5t91.5 -54.5t64.5 -85.5t28 -111.5h-170q-7 60 -41 94.5t-91 34.5t-92.5 -28.5t-55 -72t-27.5 -94.5t-11 -96q28 45 82.5 71t116.5 26q71 0 128 -25t96.5 -68.5t61 -102.5t21.5 -128 q0 -68 -23.5 -127t-66 -102.5t-102.5 -68.5t-132 -25q-107 0 -175.5 38t-108 105t-55 156.5t-15.5 193.5zM231 309q0 -36 10 -69.5t30.5 -59.5t50.5 -41.5t71 -15.5q40 0 70 15.5t49.5 41.5t29 59.5t9.5 69.5t-9.5 69.5t-29 58.5t-49.5 40t-70 15q-41 0 -71 -14.5t-50.5 -39 t-30.5 -58t-10 -71.5z" />
<glyph unicode="7" horiz-adv-x="766" d="M47 795v151h664v-137q-73 -81 -134 -169.5t-106.5 -188t-74.5 -211.5t-38 -240h-186q8 111 38 219t77 209t108.5 193.5t132.5 173.5h-481z" />
<glyph unicode="8" horiz-adv-x="766" d="M41 283q0 86 42.5 145t115.5 84q-59 31 -88 79t-29 111q0 124 77.5 193.5t223.5 69.5q147 0 225 -69.5t78 -193.5q0 -63 -29 -111t-88 -79q72 -25 114 -84t42 -145q0 -70 -25.5 -126t-71.5 -95t-108.5 -59.5t-136.5 -20.5q-73 0 -135.5 20.5t-108.5 59.5t-72 95t-26 126z M213 283q0 -40 13 -71t35.5 -52t53.5 -32t68 -11t69 11t54.5 32t35.5 52t13 71q0 37 -13 65.5t-35.5 48t-54.5 29.5t-69 10t-68 -10t-53.5 -29.5t-35.5 -48t-13 -65.5zM244 694q0 -62 39.5 -95.5t99.5 -33.5q62 0 101.5 33.5t39.5 95.5q0 65 -40.5 100t-100.5 35 q-29 0 -54.5 -9t-44.5 -26.5t-29.5 -42.5t-10.5 -57z" />
<glyph unicode="9" horiz-adv-x="766" d="M45 639q0 69 22.5 128.5t65.5 103.5t105 69t141 25q102 0 168.5 -38t105.5 -105t54.5 -157t15.5 -194q0 -85 -19 -172t-62 -157.5t-113.5 -115t-172.5 -44.5q-57 0 -109 19t-91.5 54.5t-64.5 85t-28 111.5h170q7 -60 41 -94.5t91 -34.5t91.5 28t54 71t27.5 93t11 95 q-29 -42 -81.5 -67.5t-115.5 -25.5q-68 0 -124.5 23t-97 65t-63 101.5t-22.5 132.5zM217 641q0 -37 9 -71t28 -60t48.5 -41.5t70.5 -15.5t72 15.5t51.5 41t30.5 59.5t10 72q0 36 -10 69t-30.5 58t-51.5 40t-72 15t-70.5 -15t-48.5 -40t-28 -58t-9 -69z" />
<glyph unicode=":" horiz-adv-x="381" d="M82 98q0 22 8.5 42t23.5 35t34.5 23.5t41.5 8.5t42 -8.5t35 -23.5t23.5 -35t8.5 -42t-8.5 -41.5t-23.5 -34.5t-35 -23.5t-42 -8.5t-41.5 8.5t-34.5 23.5t-23.5 34.5t-8.5 41.5zM82 557q0 22 8.5 42t23.5 35t34.5 23.5t41.5 8.5t42 -8.5t35 -23.5t23.5 -35t8.5 -42 t-8.5 -41.5t-23.5 -34.5t-35 -23.5t-42 -8.5t-41.5 8.5t-34.5 23.5t-23.5 34.5t-8.5 41.5z" />
<glyph unicode=";" horiz-adv-x="381" d="M78 96q0 22 8.5 42.5t23.5 35.5t35.5 24t44.5 9q57 0 89 -36.5t32 -96.5q0 -26 -7.5 -55.5t-24.5 -60t-45 -61.5t-68 -59l-74 31q27 18 46 36t31 34.5t18 29.5t8 21q-24 -1 -45.5 6.5t-37 22t-25 34t-9.5 43.5zM82 557q0 22 8.5 42t23.5 35t34.5 23.5t41.5 8.5t42 -8.5 t35 -23.5t23.5 -35t8.5 -42t-8.5 -41.5t-23.5 -34.5t-35 -23.5t-42 -8.5t-41.5 8.5t-34.5 23.5t-23.5 34.5t-8.5 41.5z" />
<glyph unicode="&#x3c;" horiz-adv-x="827" d="M61 289v106l705 299v-151l-492 -201l492 -201v-151z" />
<glyph unicode="=" horiz-adv-x="766" d="M41 141v133h684v-133h-684zM41 408v133h684v-133h-684z" />
<glyph unicode="&#x3e;" horiz-adv-x="827" d="M61 -10v151l492 201l-492 201v151l705 -299v-106z" />
<glyph unicode="?" horiz-adv-x="768" d="M66 668q0 70 23.5 129t67 101t105 65.5t137.5 23.5q63 0 118 -18.5t96.5 -53.5t65 -86.5t23.5 -117.5q0 -46 -10.5 -80.5t-28 -61t-39 -46.5t-42.5 -38q-25 -20 -47 -39t-38.5 -42t-26 -53t-7.5 -72h-162q-2 52 5 91.5t21 70t35 55t48 47.5q21 18 40 35t33.5 36.5 t23.5 41.5t9 49q0 69 -35.5 105t-89.5 36q-40 0 -69 -14.5t-47.5 -38.5t-27.5 -56.5t-9 -68.5h-172zM276 98q0 47 30.5 77t76.5 30t76 -30t30 -77q0 -48 -30 -78t-76 -30t-76.5 30t-30.5 78z" />
<glyph unicode="@" horiz-adv-x="1098" d="M66 498q0 108 40.5 198t109.5 154.5t160.5 100.5t194.5 36q91 0 174.5 -29.5t147.5 -82t101.5 -125.5t37.5 -160q0 -69 -16.5 -125.5t-43.5 -102t-62 -79t-71.5 -55.5t-71.5 -33t-62 -11q-35 0 -58 18t-26 60q-15 -15 -32 -28.5t-36 -24t-40 -17t-42 -6.5q-44 0 -82 17.5 t-65.5 47.5t-43.5 70t-16 85q0 63 22 126t62 113.5t96.5 81.5t124.5 31q45 0 83.5 -20.5t66.5 -63.5l20 63h111l-100 -360q-4 -14 -8.5 -28.5t-5 -26.5t3.5 -19.5t16 -7.5q31 0 61 22t54 59.5t38.5 88.5t14.5 108q0 73 -28 131.5t-76 99t-112.5 62t-136.5 21.5 q-85 0 -157.5 -30t-125 -82.5t-82.5 -124t-30 -154.5q0 -108 31.5 -186.5t86.5 -130t129 -76.5t159 -25q93 0 170 35.5t131 97.5h112q-71 -115 -177 -174.5t-240 -59.5q-105 0 -198 32.5t-162.5 98t-110.5 163t-41 227.5zM395 418q0 -51 27 -83t74 -32q38 0 70.5 22.5 t56.5 56.5t37.5 74.5t13.5 75.5q0 22 -8 41.5t-21.5 34.5t-31.5 24t-38 9q-41 0 -74 -21.5t-56.5 -54.5t-36.5 -72.5t-13 -74.5z" />
<glyph unicode="A" horiz-adv-x="918" d="M-14 0l376 965h193l377 -965h-199l-90 252h-373l-90 -252h-194zM322 393h270l-135 379z" />
<glyph unicode="B" horiz-adv-x="969" d="M102 0v965h478q67 0 121.5 -15t93 -45.5t59 -76.5t20.5 -107q0 -69 -32 -120.5t-90 -80.5q80 -23 123 -87.5t43 -160.5q0 -57 -20.5 -107t-65 -86.5t-113 -57.5t-164.5 -21h-453zM289 152h291q72 0 112.5 36t40.5 107q0 66 -40.5 100.5t-112.5 34.5h-291v-278zM289 567 h266q59 0 97 31.5t38 91.5q0 69 -35 96t-100 27h-266v-246z" />
<glyph unicode="C" horiz-adv-x="993" d="M51 483q0 103 32.5 194.5t93 160.5t148 109t197.5 40q83 0 156 -22.5t128.5 -65.5t90.5 -106.5t43 -145.5h-184q-11 42 -30 77t-47.5 60t-67 38.5t-89.5 13.5q-76 0 -130 -30t-88 -79.5t-50 -113t-16 -130.5q0 -68 16 -131.5t50 -113t88 -79.5t130 -30q110 0 173.5 66 t68.5 184h176v-22q0 -84 -27 -151q-31 -75 -88 -126t-135.5 -77t-167.5 -26q-110 0 -197.5 40t-148 109t-93 161t-32.5 196z" />
<glyph unicode="D" horiz-adv-x="993" d="M102 0v965h410q114 0 195.5 -38t134 -103t77.5 -153t25 -188t-25 -188t-77.5 -153.5t-134 -103.5t-195.5 -38h-410zM289 152h157q97 0 158.5 25.5t96 70t47 105t12.5 130.5q0 69 -12.5 129.5t-47 105t-96 70t-158.5 25.5h-157v-661z" />
<glyph unicode="E" horiz-adv-x="868" d="M102 0v965h711v-160h-524v-232h485v-151h-485v-262h534v-160h-721z" />
<glyph unicode="F" horiz-adv-x="817" d="M102 0v965h684v-160h-497v-232h436v-151h-436v-422h-187z" />
<glyph unicode="G" horiz-adv-x="1042" d="M57 483q0 103 32.5 194.5t93.5 160.5t148 109t197 40q81 0 153.5 -21t129 -63t93.5 -106t46 -150h-180q-6 48 -28 83.5t-55 59t-74 35t-85 11.5q-76 0 -129.5 -30t-88 -79.5t-50.5 -113t-16 -130.5q0 -68 16 -131t50.5 -112.5t88 -79.5t129.5 -31q125 0 191.5 64.5 t71.5 179.5h-256v143h426v-516h-121l-25 100q-33 -35 -65.5 -58.5t-67 -37.5t-72.5 -20.5t-82 -6.5q-110 0 -197 40t-148 109t-93.5 161t-32.5 196z" />
<glyph unicode="H" horiz-adv-x="993" d="M98 0v965h187v-377h422v377h186v-965h-186v428h-422v-428h-187z" />
<glyph unicode="I" horiz-adv-x="391" d="M102 0v965h187v-965h-187zM102 0v965h187v-965h-187zM102 0v965h187v-965h-187z" />
<glyph unicode="J" horiz-adv-x="741" d="M18 289v59h185v-57q0 -39 6 -69t20 -50.5t38.5 -31.5t60.5 -11q38 0 62.5 11.5t39 33.5t20 54.5t5.5 74.5v662h184v-652q0 -63 -11 -123.5t-45.5 -107.5t-99 -76t-170.5 -29q-79 0 -135 24t-91.5 66t-52 99t-16.5 123z" />
<glyph unicode="K" horiz-adv-x="942" d="M102 0v965h187v-418l418 418h231l-395 -387l418 -578h-232l-311 451l-129 -127v-324h-187z" />
<glyph unicode="L" horiz-adv-x="793" d="M102 0v965h187v-805h489v-160h-676z" />
<glyph unicode="M" horiz-adv-x="1219" d="M100 0v965h252l260 -729l256 729h250v-965h-178v700l-256 -700h-152l-256 705v-705h-176z" />
<glyph unicode="N" horiz-adv-x="993" d="M96 0v965l189 -2l432 -687v689h178v-965l-190 2l-433 684v-686h-176z" />
<glyph unicode="O" horiz-adv-x="1044" d="M51 483q0 103 32.5 194.5t93 160.5t148 109t197.5 40t197.5 -40t148 -109t93 -160.5t32.5 -194.5q0 -104 -32.5 -196t-93 -161t-148 -109t-197.5 -40t-197.5 40t-148 109t-93 161t-32.5 196zM238 483q0 -68 16 -131.5t50 -113t88 -79.5t130 -30t130 30t88.5 79.5 t50.5 113t16 131.5q0 67 -16 130.5t-50.5 113t-88.5 79.5t-130 30t-130 -30t-88 -79.5t-50 -113t-16 -130.5z" />
<glyph unicode="P" horiz-adv-x="918" d="M102 0v965h435q106 0 172 -30t102 -75.5t48.5 -98t12.5 -97.5q0 -30 -5 -64t-18.5 -67.5t-37.5 -63.5t-61 -53.5t-89.5 -37t-123.5 -13.5h-248v-365h-187zM289 516h237q27 0 55.5 7t52.5 24.5t39 46t15 70.5q0 45 -13 74t-34.5 45.5t-50.5 23t-60 6.5h-241v-297z" />
<glyph unicode="Q" horiz-adv-x="1044" d="M51 485q0 102 32.5 193.5t93 160t148 108.5t197.5 40t197.5 -40t148 -108.5t93 -160t32.5 -193.5q0 -48 -7.5 -98t-23.5 -97.5t-41.5 -91t-60.5 -77.5l127 -105l-96 -104l-143 123q-54 -29 -111.5 -42t-114.5 -13q-110 0 -197.5 40t-148 109t-93 160.5t-32.5 195.5z M238 485q0 -68 16 -131.5t50 -113t88 -79.5t130 -30q22 0 45.5 3.5t46.5 12.5l-94 82l94 103l115 -101q43 53 60.5 119t17.5 135q0 66 -16 129.5t-50.5 112.5t-88.5 79t-130 30t-130 -30t-88 -79t-50 -112.5t-16 -129.5z" />
<glyph unicode="R" horiz-adv-x="969" d="M102 0v965h469q164 0 246 -70t82 -195q0 -59 -15 -100.5t-37 -69t-45.5 -43t-41.5 -22.5q20 -6 41.5 -19.5t39.5 -37.5t30 -60.5t13 -87.5q0 -41 2.5 -79t10 -71.5t20.5 -61.5t33 -48h-209q-10 16 -15.5 34.5t-8.5 38t-3.5 39t-0.5 38.5q0 63 -8 108.5t-28.5 75 t-56.5 43.5t-92 14h-239v-391h-187zM289 535h268q75 0 115.5 36t40.5 107q0 43 -13 69.5t-34.5 41t-50.5 19.5t-60 5h-266v-278z" />
<glyph unicode="S" horiz-adv-x="893" d="M45 332h184q0 -56 19 -95t51 -63t75.5 -34.5t92.5 -10.5q53 0 90 11.5t60.5 30.5t34 43.5t10.5 49.5q0 26 -6.5 44.5t-17 31t-23.5 20t-27 13.5q-51 18 -119 35t-168 43q-65 17 -107 44t-67 60t-35 70t-10 75q0 73 31 127t82 89.5t115.5 53t131.5 17.5q77 0 146 -20 t120.5 -60t82 -99.5t30.5 -137.5h-186q-3 47 -19 78.5t-42 51t-61 28t-77 8.5q-29 0 -59 -5.5t-54.5 -18.5t-40.5 -35t-16 -56q0 -47 30.5 -74.5t78.5 -40.5q3 -1 22 -5.5t45.5 -11.5t58.5 -15t61.5 -15.5t54 -14t36.5 -9.5q49 -15 85.5 -41.5t61 -60.5t36.5 -72.5t12 -75.5 q0 -82 -34 -140.5t-89 -95.5t-126 -54.5t-144 -17.5q-84 0 -158 20.5t-129.5 63.5t-88.5 110t-34 161z" />
<glyph unicode="T" horiz-adv-x="817" d="M10 805v160h799v-160h-307v-805h-187v805h-305z" />
<glyph unicode="U" horiz-adv-x="993" d="M92 350v615h184v-559q0 -47 4.5 -95t25.5 -86.5t65.5 -63t124.5 -24.5t124 24.5t65 63t25.5 86.5t4.5 95v559h186v-615q0 -94 -29.5 -164t-82.5 -116.5t-128 -69.5t-165 -23q-91 0 -165.5 23t-127.5 69.5t-82 116.5t-29 164z" />
<glyph unicode="V" horiz-adv-x="842" d="M-10 965h192l240 -736l242 736h190l-336 -965h-201z" />
<glyph unicode="W" horiz-adv-x="1292" d="M6 965h189l170 -705l188 705h186l183 -705l176 705h188l-270 -965h-185l-188 707l-192 -707h-187z" />
<glyph unicode="X" horiz-adv-x="893" d="M-12 0l350 500l-326 465h219l215 -330l226 328h207l-324 -463l350 -500h-227l-236 356l-245 -356h-209zM-12 0l350 500l-326 465h219l215 -330l226 328h207l-324 -463l350 -500h-227l-236 356l-245 -356h-209zM-12 0l350 500l-326 465h219l215 -330l226 328h207 l-324 -463l350 -500h-227l-236 356l-245 -356h-209z" />
<glyph unicode="Y" horiz-adv-x="893" d="M-14 965h213l252 -420l247 418h209l-368 -584v-379h-185v379z" />
<glyph unicode="Z" horiz-adv-x="868" d="M31 0v147l553 658h-510v160h751v-136l-553 -669h566v-160h-807z" />
<glyph unicode="[" horiz-adv-x="416" d="M98 -258v1245h318v-135h-156v-975h156v-135h-318z" />
<glyph unicode="\" horiz-adv-x="492" d="M-35 987h166l395 -1010h-166z" />
<glyph unicode="]" horiz-adv-x="416" d="M2 -123h156v975h-156v135h317v-1245h-317v135z" />
<glyph unicode="^" horiz-adv-x="827" d="M106 453l252 493h111l252 -493h-160l-147 309l-148 -309h-160z" />
<glyph unicode="_" horiz-adv-x="766" d="M0 -102h766v-109h-766v109z" />
<glyph unicode="`" horiz-adv-x="342" d="M-53 987h205l135 -192h-129z" />
<glyph unicode="a" horiz-adv-x="768" d="M43 188q0 67 24.5 107.5t63.5 63.5t88 33.5t98 17.5q41 6 78 8.5t65.5 10t45 22.5t16.5 47q0 27 -13.5 43.5t-33.5 25.5t-44.5 12t-45.5 3q-62 0 -101 -24t-44 -83h-170q4 72 33 118.5t74.5 74t102 38.5t115.5 11q52 0 103.5 -11.5t92.5 -36t66 -64t25 -95.5v-350 q0 -25 5 -34t24 -9h18t29 2v-119q-23 -8 -55 -13t-52 -5q-46 0 -78 15.5t-45 57.5q-24 -19 -52.5 -33t-59.5 -23t-63 -13t-62 -4q-48 0 -93 13t-79.5 38.5t-55 64.5t-20.5 90zM213 197q0 -25 14 -40.5t34.5 -24.5t44 -12t42.5 -3q24 0 52.5 6t53.5 20.5t41.5 37.5t16.5 57 v98q-18 -9 -39.5 -14.5t-44.5 -8.5t-47 -5.5t-47 -6.5q-24 -4 -46 -10.5t-38.5 -18t-26.5 -30t-10 -45.5z" />
<glyph unicode="b" horiz-adv-x="842" d="M86 0v965h170v-338q17 22 40 39.5t50 29.5t55.5 18.5t57.5 6.5q84 0 147 -29.5t104.5 -80t62 -118.5t20.5 -145q0 -71 -19 -137t-57 -117t-96.5 -81.5t-137.5 -30.5q-33 0 -66.5 4t-64.5 14.5t-58 28.5t-46 45v-74h-162zM250 350q0 -50 12.5 -92.5t36.5 -74t59 -49 t80 -17.5q51 0 86 20.5t57 53.5t32 74.5t10 84.5q0 45 -11.5 87.5t-35 75.5t-58 53t-80.5 20q-47 0 -82 -17t-58.5 -48t-35.5 -74.5t-12 -96.5z" />
<glyph unicode="c" horiz-adv-x="768" d="M47 342q0 79 22 147.5t66 119t110 79.5t154 29q63 0 119.5 -15.5t100 -47.5t71.5 -81.5t33 -117.5h-170q-9 65 -49.5 96t-102.5 31q-29 0 -61.5 -9t-59.5 -35.5t-45 -73.5t-18 -122q0 -42 9.5 -82t30.5 -72t55 -51.5t83 -19.5q63 0 105 40t53 115h172 q-23 -143 -106.5 -216.5t-223.5 -73.5q-84 0 -149 27.5t-109.5 75.5t-67 114t-22.5 143z" />
<glyph unicode="d" horiz-adv-x="842" d="M47 356q0 95 26.5 164t70 113.5t99.5 66t115 21.5q32 0 65 -5.5t63 -17.5t56 -30.5t44 -44.5v342h170v-965h-162v76q-16 -25 -39 -42.5t-51 -29t-59 -17t-62 -5.5q-85 0 -148 29t-105 79.5t-62.5 119t-20.5 146.5zM217 344q0 -43 10.5 -84t33 -72.5t58 -51t84.5 -19.5 q50 0 85.5 20.5t58 54t33 75.5t10.5 85q0 110 -49 172t-135 62q-53 0 -89 -21t-58 -55.5t-32 -77.5t-10 -88z" />
<glyph unicode="e" horiz-adv-x="768" d="M47 348q0 75 24 142t69 117.5t109 80t144 29.5q85 0 152.5 -34.5t112.5 -92.5q44 -58 64 -132q13 -49 12 -101q0 -27 -3 -54h-514q1 -37 12.5 -70.5t34 -59t56 -41t77.5 -15.5q65 0 104.5 27t59.5 85h164q-15 -61 -45.5 -107.5t-73.5 -77.5t-96.5 -46.5t-112.5 -15.5 q-84 0 -149 27t-109.5 75.5t-68 115.5t-23.5 148zM217 418h344q-4 32 -16.5 62t-34 52.5t-51 36t-66.5 13.5q-38 0 -69 -12.5t-53.5 -35t-36.5 -52.5t-17 -64z" />
<glyph unicode="f" horiz-adv-x="442" d="M12 573v129h115v52q0 68 17 109.5t45 64t64 30t75 7.5q37 0 65 -2t51 -9v-137q-23 8 -39.5 10t-39.5 2q-28 0 -48 -12.5t-20 -50.5v-64h131v-129h-131v-573h-170v573h-115z" />
<glyph unicode="g" horiz-adv-x="817" d="M47 367q0 70 22.5 133.5t64.5 111.5t102.5 76.5t136.5 28.5q62 0 115 -23t85 -69v73h170v-659q0 -159 -90.5 -237t-261.5 -78q-54 0 -108.5 11.5t-99.5 38t-75.5 70.5t-35.5 109h168q7 -33 22.5 -53t37.5 -30.5t48 -13.5t53 -3q177 0 177 167v91q-36 -56 -90 -85.5 t-119 -29.5q-86 0 -147 29.5t-100 80t-57 118t-18 143.5zM217 350q0 -41 10 -80t31 -70t54.5 -50t80.5 -19q50 0 84.5 20.5t55.5 53t30.5 74t9.5 83.5q0 43 -10.5 83t-32 70.5t-55.5 48.5t-82 18q-49 0 -82.5 -20.5t-54.5 -53.5t-30 -74.5t-9 -83.5z" />
<glyph unicode="h" horiz-adv-x="793" d="M82 0v965h170v-340q31 43 85.5 69.5t117.5 26.5q58 0 105.5 -15t81 -45t51.5 -75.5t18 -106.5v-479h-170v438q0 79 -31.5 113.5t-97.5 34.5q-37 0 -66.5 -13.5t-50.5 -36.5t-32 -54.5t-11 -67.5v-414h-170z" />
<glyph unicode="i" horiz-adv-x="342" d="M86 0v702h170v-702h-170zM86 805v160h170v-160h-170z" />
<glyph unicode="j" horiz-adv-x="342" d="M-31 -133q22 -5 36.5 -6.5t25.5 -1.5q19 0 30 6t16.5 18t7 29.5t1.5 40.5v749h170v-755q0 -110 -47.5 -166.5t-161.5 -56.5q-22 0 -39 1t-39 3v139zM86 805v160h170v-160h-170z" />
<glyph unicode="k" horiz-adv-x="741" d="M86 0v965h170v-527l266 264h213l-278 -260l301 -442h-209l-209 332l-84 -80v-252h-170z" />
<glyph unicode="l" horiz-adv-x="342" d="M86 0v965h170v-965h-170z" />
<glyph unicode="m" horiz-adv-x="1192" d="M82 0v698h162v-82q17 23 37 42t45.5 32t57 20t71.5 7q63 0 116.5 -26t79.5 -81q41 50 93 78.5t124 28.5q58 0 103 -12.5t76.5 -41t48 -73.5t16.5 -109v-481h-172v406q0 38 -2.5 70.5t-14 56t-35.5 36.5t-67 13q-75 0 -107 -46.5t-32 -127.5v-408h-172v446 q0 67 -24.5 101.5t-90.5 34.5q-29 0 -54.5 -11.5t-45.5 -33t-31.5 -52.5t-11.5 -71v-414h-170z" />
<glyph unicode="n" horiz-adv-x="793" d="M82 0v698h162l-2 -90q32 50 89.5 79.5t123.5 29.5q58 0 105.5 -15t81 -45t51.5 -75t18 -105v-477h-170v436q0 78 -31.5 112t-97.5 34q-37 0 -66.5 -13.5t-50.5 -36.5t-32 -54.5t-11 -67.5v-410h-170z" />
<glyph unicode="o" horiz-adv-x="817" d="M49 350q0 80 24 147.5t69.5 116t113 76t154.5 27.5t154 -27.5t112.5 -76t69.5 -116t24 -147.5q0 -81 -24 -148.5t-70 -116t-113 -76t-153 -27.5t-153.5 27.5t-113.5 76t-70 116t-24 148.5zM219 350q0 -43 11 -84.5t34 -74.5t59.5 -53.5t86.5 -20.5t86 20.5t59 53.5 t34 74.5t11 84.5t-11 84.5t-34 74.5t-59 53t-86 20t-86.5 -20t-59.5 -53t-34 -74.5t-11 -84.5z" />
<glyph unicode="p" horiz-adv-x="842" d="M86 -258v956h162v-73q34 48 90 70t121 22q84 0 147 -29.5t104.5 -80t62 -118.5t20.5 -145q0 -71 -19 -137t-57 -117t-96.5 -82t-137.5 -31q-32 0 -64 5.5t-62 17t-56 29.5t-45 43v-330h-170zM250 346q0 -50 12.5 -92.5t36.5 -74t59 -49t80 -17.5q51 0 86 20t57 53t32 75 t10 85q0 45 -11.5 87.5t-35 75.5t-58 53t-80.5 20q-47 0 -82 -17t-58.5 -48t-35.5 -74.5t-12 -96.5z" />
<glyph unicode="q" horiz-adv-x="842" d="M47 344q0 77 20.5 145t62.5 118.5t105 80t148 29.5q63 0 120 -23t91 -71v75h162v-956h-170v330q-19 -25 -45.5 -43t-56.5 -29.5t-63 -17t-65 -5.5q-79 0 -137 31t-96.5 82t-57 117t-18.5 137zM217 346q0 -43 10 -85t32.5 -75t57.5 -53t86 -20q48 0 83.5 17t58.5 48t34 74 t11 94q0 54 -12 97.5t-35.5 74t-58.5 47.5t-81 17t-80.5 -20t-58 -53t-35.5 -75.5t-12 -87.5z" />
<glyph unicode="r" horiz-adv-x="492" d="M82 0v698h160v-102q11 23 31.5 44.5t47 38.5t57 27.5t62.5 10.5q26 0 38.5 -1t29.5 -3v-160q-17 3 -38 4.5t-38 1.5q-38 0 -70.5 -15t-57 -43.5t-38.5 -71t-14 -97.5v-332h-170z" />
<glyph unicode="s" horiz-adv-x="719" d="M43 236h170q3 -34 16 -57t33 -36.5t46.5 -19.5t56.5 -6q20 0 45.5 2t48 10.5t37.5 24.5t14 45q-2 28 -21.5 44.5t-50 27t-70 17.5t-79.5 15q-45 9 -86.5 23t-74 38t-52 60t-19.5 90q0 58 28.5 97t73 62.5t97.5 33.5t102 10q55 0 106.5 -12t92 -38.5t67 -69.5t33.5 -105 h-174q-5 27 -16.5 44.5t-28 27.5t-37.5 14t-45 4q-22 0 -44.5 -3.5t-41 -11t-30 -19.5t-11.5 -28q0 -27 19 -43t50 -26.5t70.5 -17.5t80.5 -15q43 -9 85 -23t75 -37.5t53 -59t20 -87.5q0 -63 -29 -106.5t-75.5 -71t-104 -39.5t-113.5 -12q-68 0 -125.5 15t-100 46.5 t-66.5 79t-25 113.5z" />
<glyph unicode="t" horiz-adv-x="467" d="M10 573v129h117v207h170v-207h139v-129h-139v-358q0 -21 1.5 -37t8.5 -27t20.5 -16.5t37.5 -5.5q15 0 31.5 1t39.5 7v-135q-31 -3 -56.5 -5.5t-51.5 -2.5q-62 0 -101.5 11.5t-61.5 34t-30 57t-8 79.5v397h-117z" />
<glyph unicode="u" horiz-adv-x="793" d="M82 258v440h170v-426q0 -86 32.5 -120.5t92.5 -34.5q46 0 77.5 13.5t50.5 37.5t27.5 56.5t8.5 70.5v403h170v-698h-168v76q-15 -22 -37 -39.5t-47.5 -29.5t-53.5 -18.5t-55 -6.5q-141 0 -204.5 69t-63.5 207z" />
<glyph unicode="v" horiz-adv-x="719" d="M8 698h187l172 -512l165 512h179l-258 -698h-185z" />
<glyph unicode="w" horiz-adv-x="1067" d="M14 698h181l131 -489l127 489h168l122 -489l136 489h176l-226 -698h-170l-124 485l-125 -485h-174z" />
<glyph unicode="x" horiz-adv-x="741" d="M-2 0l270 369l-248 329l203 -4l146 -202l147 202l197 2l-244 -321l276 -375l-206 4l-172 244l-170 -244z" />
<glyph unicode="y" horiz-adv-x="719" d="M0 698h186l179 -499l172 499h180l-277 -733q-18 -48 -37 -92t-47 -77t-69 -52.5t-103 -19.5q-26 0 -54 1.5t-60 6.5v145q24 -5 43.5 -8.5t38.5 -3.5q25 0 41.5 6.5t27.5 18.5t18 28.5t13 36.5l16 51z" />
<glyph unicode="z" horiz-adv-x="692" d="M31 0v119l375 446h-349v133h584v-116l-389 -449h410v-133h-631z" />
<glyph unicode="{" horiz-adv-x="416" d="M-6 295v139q17 0 39 4t41.5 13.5t33 26.5t13.5 44v275q0 49 20 85t48.5 59t59.5 34.5t54 11.5h131v-135h-82q-24 0 -37 -8t-20 -21t-8.5 -28t-1.5 -29v-260q0 -32 -10.5 -56t-26 -40.5t-34.5 -27t-36 -15.5q17 -5 36 -15t34.5 -27.5t26 -44.5t10.5 -65v-250 q0 -14 1.5 -29.5t8.5 -28.5t20 -21.5t37 -8.5h82v-135h-131q-23 0 -54 11.5t-59.5 34.5t-48.5 59t-20 85v265q0 31 -13.5 50t-33 29.5t-41.5 14.5t-39 4z" />
<glyph unicode="|" horiz-adv-x="317" d="M82 -23v1010h154v-1010h-154z" />
<glyph unicode="}" horiz-adv-x="416" d="M-18 -123h84q23 0 36.5 8.5t20 21.5t8.5 28.5t2 29.5v258q0 33 10 57t25.5 40.5t34 27.5t35.5 17q-17 4 -35.5 13.5t-34 26.5t-25.5 43.5t-10 65.5v252q0 14 -2 29t-8.5 28t-20 21t-36.5 8h-84v135h131q23 0 54 -11.5t59.5 -34.5t48.5 -59t20 -85v-265q0 -30 14 -49.5 t33.5 -30t41.5 -14.5t38 -4v-139q-16 0 -38 -3.5t-41.5 -13t-33.5 -26.5t-14 -45v-275q0 -49 -20 -85t-48.5 -59t-59.5 -34.5t-54 -11.5h-131v135z" />
<glyph unicode="~" horiz-adv-x="827" d="M94 342q29 51 73.5 79t102.5 28q39 0 79 -12.5t77.5 -27.5t71.5 -27.5t61 -12.5q21 0 38 8.5t32 21.5t28 28.5t25 29.5l53 -111q-18 -22 -36.5 -41.5t-39.5 -34.5t-46 -23.5t-56 -8.5q-39 0 -74 12.5t-69.5 27t-71 27t-78.5 12.5q-21 0 -37.5 -8t-30.5 -21t-25 -29 t-21 -32z" />
<glyph unicode="&#xa4;" horiz-adv-x="840" d="M8 164l148 145q-62 83 -62 193q0 114 62 188l-148 150l76 71l145 -145q79 59 193 59q55 0 105.5 -16t82.5 -43l150 145l71 -71l-145 -150q59 -79 59 -188q0 -114 -59 -193l145 -145l-71 -76l-150 148q-15 -13 -36 -23.5t-47 -20.5q-53 -18 -105 -18q-110 0 -193 62 l-145 -148zM197 502q0 -94 63 -164q65 -68 162 -68q92 0 158 68q63 63 63 164q0 46 -16.5 87t-45.5 72t-70 49.5t-89 18.5q-96 0 -160 -67q-65 -73 -65 -160z" />
<glyph unicode="&#xa9;" horiz-adv-x="1135" d="M61 483q0 105 39.5 196.5t108.5 160t161 108t197 39.5t197.5 -39.5t161 -108t108 -160t39.5 -196.5t-39.5 -197t-108 -161t-161 -108.5t-197.5 -39.5t-197 39.5t-161 108.5t-108.5 161t-39.5 197zM150 483q0 -88 32 -165.5t88.5 -135t133 -90.5t165.5 -33t165.5 33.5 t132 91t87 135t31.5 164.5q0 89 -31.5 166.5t-87 134.5t-132 90t-165.5 33q-90 0 -167 -32.5t-133 -89.5t-87.5 -134.5t-31.5 -167.5zM287 479q0 63 20 119t57.5 97.5t90.5 66t120 24.5q50 0 94.5 -13.5t79 -39.5t56 -64.5t26.5 -88.5h-112q-14 52 -48 83t-96 31 q-47 0 -80 -18.5t-54 -49t-30.5 -69t-9.5 -78.5q0 -41 9.5 -80t30.5 -69.5t54 -49t80 -18.5q67 0 105.5 40t40.5 112h110q3 -59 -16.5 -104.5t-54.5 -76.5t-82.5 -47t-102.5 -16q-67 0 -120 24.5t-90.5 67t-57.5 98.5t-20 119z" />
<glyph unicode="&#xab;" horiz-adv-x="653" d="M68 295v145l227 170v-149l-123 -94l123 -93v-149zM346 295v145l227 170v-149l-127 -94l127 -93v-149z" />
<glyph unicode="&#xac;" horiz-adv-x="766" d="M55 297v90h646v-268h-82v178h-564z" />
<glyph unicode="&#xad;" horiz-adv-x="766" d="M41 274v134h684v-134h-684z" />
<glyph unicode="&#xae;" horiz-adv-x="1135" d="M61 483q0 105 39.5 196.5t108.5 160t161 108t197 39.5t197.5 -39.5t161 -108t108 -160t39.5 -196.5t-39.5 -197t-108 -161t-161 -108.5t-197.5 -39.5t-197 39.5t-161 108.5t-108.5 161t-39.5 197zM150 483q0 -88 32.5 -165.5t89 -135.5t133.5 -91.5t166 -33.5 q88 0 164.5 34t132 92t87.5 135.5t32 164.5q0 88 -32 165.5t-87.5 135t-132 90.5t-164.5 33q-90 0 -167.5 -33t-133.5 -90t-88 -134.5t-32 -166.5zM346 199v561h270q97 0 144 -41t47 -113q0 -35 -8.5 -59t-20.5 -39.5t-25.5 -25t-23.5 -13.5q12 -4 24.5 -11.5t23 -21.5 t17.5 -35t7 -51q0 -46 7 -86.5t30 -64.5h-121q-14 20 -16.5 42.5t-2.5 47.5q0 35 -4 61t-15 43.5t-31.5 26t-53.5 8.5h-139v-229h-109zM455 510h155q88 0 88 84q0 24 -7.5 39.5t-19.5 24t-28 11.5t-33 3h-155v-162z" />
<glyph unicode="&#xb0;" horiz-adv-x="541" d="M66 713q0 40 15.5 77t42.5 64.5t63.5 44t78.5 16.5q43 0 80.5 -16t65 -43t43.5 -64t16 -79t-16 -79t-43.5 -64.5t-65 -43.5t-80.5 -16q-41 0 -77 15.5t-63.5 43t-43.5 64.5t-16 80zM121 713q0 -30 11.5 -57t31 -47t46 -32t56.5 -12q61 0 105 43q45 46 45 105 q0 30 -12 56.5t-32.5 46t-47.5 31t-58 11.5t-57.5 -11t-46 -30.5t-30.5 -46t-11 -57.5z" />
<glyph unicode="&#xb6;" horiz-adv-x="727" d="M0 858q0 153 94 229q90 66 248 66h389v-41h-102v-1356h-62v1356h-145v-1356h-55v805q-168 0 -263 62q-104 74 -104 235z" />
<glyph unicode="&#xb7;" horiz-adv-x="338" d="M96 449q0 30 20.5 50.5t53.5 20.5q31 0 51.5 -21.5t20.5 -49.5q0 -31 -21.5 -52.5t-50.5 -21.5q-33 0 -53.5 20.5t-20.5 53.5z" />
<glyph unicode="&#xbb;" horiz-adv-x="653" d="M82 125v149l121 95l-121 94v147l223 -170v-143zM358 127v147l125 95l-125 94v145l226 -168v-143z" />
<glyph unicode="&#xd7;" horiz-adv-x="766" d="M49 104l238 238l-238 238l94 94l238 -238l240 238l94 -94l-240 -238l240 -240l-94 -94l-240 240l-238 -238z" />
<glyph unicode="&#xf7;" horiz-adv-x="766" d="M41 274v134h684v-134h-684zM293 82q0 37 26.5 63.5t63.5 26.5t63.5 -26.5t26.5 -63.5t-26.5 -63.5t-63.5 -26.5t-63.5 26.5t-26.5 63.5zM295 600q0 37 26.5 63.5t63.5 26.5t63.5 -26.5t26.5 -63.5t-26.5 -63.5t-63.5 -26.5t-63.5 26.5t-26.5 63.5z" />
<glyph unicode="&#xe00;" horiz-adv-x="205" />
<glyph unicode="&#xe01;" horiz-adv-x="840" d="M39 592q10 59 43 104.5t83 76t113.5 46t135.5 15.5q73 0 139 -16t116 -49.5t79.5 -85.5t29.5 -124v-559h-176v547q0 37 -14 64t-39 44.5t-60 26t-77 8.5q-33 0 -62.5 -6t-53.5 -16.5t-41 -23.5t-26 -28q22 -14 42 -33t20 -40q0 -16 -8.5 -28.5t-18 -25t-18 -26.5 t-8.5 -33v-430h-177v430q0 18 10 30.5t22 23.5t22 21t10 23q0 8 -13.5 19t-29.5 21q-19 11 -43 24z" />
<glyph unicode="&#xe02;" horiz-adv-x="758" d="M49 690v129h135q110 0 157.5 -35t47.5 -110q0 -28 -11 -47t-28 -32.5t-36.5 -23.5t-36.5 -20.5t-28 -23t-11 -31.5v-252q0 -34 11.5 -56t30.5 -35t44.5 -18.5t54.5 -5.5q28 0 54 5.5t45 18.5t30.5 35t11.5 56v575h176v-577q0 -74 -29 -123t-74.5 -78.5t-102 -42 t-111.5 -12.5t-111.5 12.5t-102.5 42t-75 78.5t-29 123v268q0 25 11.5 43t28 31t36.5 22.5t36.5 18.5t28 18.5t11.5 22.5q0 12 -12.5 18t-32.5 6h-119z" />
<glyph unicode="&#xe03;" horiz-adv-x="768" d="M-2 741l104 88l64 -55l63 51q87 7 126.5 -29t39.5 -114q0 -34 -11 -58t-27 -41.5t-35.5 -31t-35.5 -26.5t-27 -27t-11 -33v-223q0 -34 11.5 -56t30.5 -35t44.5 -18.5t54.5 -5.5q28 0 54 5.5t45 18.5t30.5 35t11.5 56v577h177v-581q0 -72 -29 -120.5t-74.5 -78 t-102.5 -41.5t-112 -12q-54 0 -110.5 12t-102.5 41.5t-75 78t-29 120.5v245q0 27 12 46.5t30 34t38.5 25.5t38.5 22.5t30 24t12 30.5q0 11 -2.5 19.5t-4.5 13.5q-4 6 -7 10l-92 -78z" />
<glyph unicode="&#xe04;" horiz-adv-x="860" d="M61 0v559q0 72 33 124t86 85.5t119 49.5t131 16q67 0 133 -16t118.5 -49.5t85 -85.5t32.5 -124v-559h-176v557q0 37 -16 62t-43 41t-62 23t-72 7q-38 0 -72.5 -7t-61 -23t-42.5 -41t-16 -62v-72h249v-151h-249v-334h-177z" />
<glyph unicode="&#xe05;" horiz-adv-x="860" d="M61 0v582q0 49 17 92t50 76.5t81.5 55.5t112.5 28l108 -76l109 76q64 -6 112.5 -28t81.5 -55.5t49.5 -76.5t16.5 -92v-582h-176v594q0 34 -17.5 56t-46.5 30l-125 -86l-131 86q-28 -8 -46.5 -30t-18.5 -56v-109h249v-151h-249v-334h-177z" />
<glyph unicode="&#xe06;" horiz-adv-x="870" d="M-2 741l104 88l64 -55l63 51q87 7 126.5 -29t39.5 -114q0 -34 -11 -58t-27 -41.5t-35.5 -31t-35.5 -26.5t-27 -27t-11 -33v-141q0 -29 18.5 -63t51.5 -63t78 -49t98 -20q30 0 55 6.5t44 21t29.5 37.5t10.5 56v569h176v-567q0 -69 -20 -119t-58 -82t-92 -47.5t-121 -15.5 q-41 0 -80.5 10.5t-74.5 28t-64.5 40t-50.5 46.5v-113h-176v483q0 27 12 46.5t30 34t38.5 25.5t38.5 22.5t30 24t12 30.5q0 11 -2.5 19.5t-4.5 13.5q-4 6 -7 10l-92 -78z" />
<glyph unicode="&#xe07;" horiz-adv-x="774" d="M-4 662l147 110l207 -618h2q58 0 99 29t66 76.5t34 107.5t4 122q-9 108 -83 156.5t-226 26.5v153q114 15 201 -0.5t147.5 -56t94.5 -103.5t42 -141q6 -56 3.5 -116.5t-18 -118.5t-44.5 -110.5t-75 -92t-111 -63t-152 -23.5h-117z" />
<glyph unicode="&#xe08;" horiz-adv-x="797" d="M-16 573q8 57 38 105t78.5 82.5t114 54t145.5 19.5q87 0 159 -24t124 -71.5t80.5 -117.5t28.5 -162q0 -122 -38.5 -213t-108 -149.5t-165 -84t-209.5 -16.5l-114 450l-37 66h201l88 -354q42 6 79.5 30.5t65.5 64t44.5 92t16.5 114.5q0 52 -15.5 95t-43.5 73.5t-68 47.5 t-88 17q-74 0 -128.5 -30t-77.5 -89h-170z" />
<glyph unicode="&#xe09;" horiz-adv-x="850" d="M27 592q15 67 54.5 113.5t92.5 75t114.5 41t121.5 12.5q75 0 143.5 -16t120.5 -50t83 -85.5t31 -123.5v-559h-176v113q-21 -24 -48 -46.5t-61 -40t-74 -28t-87 -10.5q-131 0 -200.5 63.5t-69.5 200.5v203l-21 63h197v-262q0 -68 34.5 -97.5t94.5 -29.5q54 0 97 20t74 49 t47.5 63t16.5 63v223q0 38 -16 65t-43 44.5t-64 25.5t-79 8q-32 0 -63.5 -5t-58 -16.5t-47 -30t-30.5 -46.5h-184z" />
<glyph unicode="&#xe0a;" horiz-adv-x="823" d="M61 0v819h177v-678l131 -4q44 -2 86.5 9.5t75.5 35t53 60t20 84.5q0 37 -13.5 69t-37.5 55.5t-56.5 36.5t-70.5 13h-119v141h119q29 0 58 8.5t50.5 29t33.5 55t7 85.5h173q7 -45 -2.5 -85t-29.5 -72.5t-48 -56.5t-56 -38q33 -12 63.5 -35t53.5 -54t37 -69t14 -81 q0 -86 -31.5 -149t-86 -104t-128.5 -60.5t-159 -18.5z" />
<glyph unicode="&#xe0b;" horiz-adv-x="856" d="M-20 741l104 88l63 -55l64 51q87 7 126.5 -29t39.5 -114q0 -34 -8 -58t-20 -41.5t-25.5 -31t-25.5 -26.5t-20 -27t-8 -33v-324l131 -4q45 -2 87.5 9.5t75.5 35t53 60t20 84.5q0 37 -13.5 69t-37.5 55.5t-56.5 36.5t-70.5 13h-62v141h62q29 0 58 8.5t50.5 29t33.5 55 t7 85.5h172q8 -45 -1.5 -85t-29.5 -72.5t-48 -56.5t-56 -38q33 -12 63.5 -35t53.5 -54t37 -69t14 -81q0 -86 -31.5 -149t-86 -104t-128.5 -60.5t-159 -18.5l-314 4v483q0 27 9 46.5t22.5 34t29 25.5t29 22.5t22.5 24t9 30.5q0 11 -2.5 19.5t-4.5 13.5q-4 6 -7 10l-92 -78z " />
<glyph unicode="&#xe0c;" horiz-adv-x="1319" d="M39 592q10 59 43 104.5t83 76t113.5 46t135.5 15.5q73 0 139 -16t116 -49.5t79.5 -85.5t29.5 -124v-268q0 -26 13 -53t37 -49t58.5 -36t76.5 -14q24 0 45.5 5.5t37.5 19.5t25.5 37.5t9.5 60.5v557h176v-565q0 -79 -22.5 -130.5t-58.5 -81.5t-82 -42t-93 -12 q-74 0 -131 29t-92 69v-86h-176v547q0 37 -14 64t-39 44.5t-60 26t-77 8.5q-33 0 -62.5 -6t-53.5 -16.5t-41 -23.5t-26 -28q22 -14 42 -33t20 -40q0 -16 -8.5 -28.5t-18 -25t-18 -26.5t-8.5 -33v-289h106v-141h-283v430q0 18 10 30.5t22 23.5t22 21t10 23q0 8 -13.5 19 t-29.5 21q-19 11 -43 24z" />
<glyph unicode="&#xe0d;" horiz-adv-x="1319" d="M39 592q10 59 43 104.5t83 76t113.5 46t135.5 15.5q73 0 139 -16t116 -49.5t79.5 -85.5t29.5 -124v-321q0 -34 10.5 -56.5t28.5 -35.5t41.5 -18t50.5 -5q31 0 62 9t55.5 27t39.5 45t15 64v551h176v-762q0 -70 -23.5 -123t-66 -89t-103 -54t-134.5 -18h-328v135h316 q43 0 74.5 10.5t52 28t29.5 41t7 49.5q-11 -9 -27.5 -19t-40 -18.5t-55 -14t-71.5 -5.5q-55 0 -106.5 12t-91 40.5t-63.5 76.5t-24 120v318q0 37 -14 64t-39 44.5t-60 26t-77 8.5q-33 0 -62.5 -6t-53.5 -16.5t-41 -23.5t-26 -28q22 -14 42 -33t20 -40q0 -16 -8.5 -28.5 t-18 -25t-18 -26.5t-8.5 -33v-289h106v-141h-283v430q0 18 10 30.5t22 23.5t22 21t10 23q0 8 -13.5 19t-29.5 21q-19 11 -43 24z" />
<glyph unicode="&#xe0e;" horiz-adv-x="860" d="M10 0v143h72v287q0 18 10 30.5t21.5 23.5t21.5 21t10 23q0 8 -13.5 19t-29.5 21q-19 11 -43 24q10 59 43 104.5t83 76t114 46t135 15.5q73 0 139 -16t116.5 -49.5t80 -85.5t29.5 -124v-866h-160l-129 100l-125 -100h-268v137h219l176 131l111 -86v672q0 73 -53 108 t-138 35q-33 0 -62.5 -6t-53.5 -16.5t-41 -23.5t-25 -28q22 -14 41.5 -33t19.5 -40q0 -16 -8.5 -28.5t-18 -25t-18 -26.5t-8.5 -33v-430h-248z" />
<glyph unicode="&#xe0f;" horiz-adv-x="860" d="M10 0v143h72v287q0 18 10 30.5t21.5 23.5t21.5 21t10 23q0 8 -13.5 19t-29.5 21q-19 11 -43 24q10 59 43 104.5t83 76t114 46t135 15.5q73 0 139 -16t116.5 -49.5t80 -85.5t29.5 -124v-866h-160l-92 78l-103 -101l-110 103l-80 -80h-209v135h152l139 115l104 -93l109 93 l74 -56v660q0 73 -53 108t-138 35q-33 0 -62.5 -6t-53.5 -16.5t-41 -23.5t-25 -28q22 -14 41.5 -33t19.5 -40q0 -16 -8.5 -28.5t-18 -25t-18 -26.5t-8.5 -33v-430h-248z" />
<glyph unicode="&#xe10;" horiz-adv-x="797" d="M-16 -164h145l133 98l94 -86l86 86l78 -71v104h156v-270h-144l-81 67l-95 -88l-96 91l-86 -66h-190v135zM-16 573q8 57 38 105t78.5 82.5t114 54t145.5 19.5q39 0 73.5 -5t66.5 -14q15 11 27 29t12 37h186q0 -23 -8.5 -43.5t-21.5 -37.5t-29.5 -30.5t-32.5 -21.5 q56 -48 87.5 -120t31.5 -169q0 -122 -38.5 -213t-108 -149.5t-165 -84t-209.5 -16.5l-114 450l-37 66h201l88 -354q42 6 79.5 30.5t65.5 64t44.5 92t16.5 114.5q0 52 -15.5 95t-43.5 73.5t-68 47.5t-88 17q-74 0 -128.5 -30t-77.5 -89h-170z" />
<glyph unicode="&#xe11;" horiz-adv-x="903" d="M-20 741l104 88l63 -55l64 51q87 7 126.5 -29t39.5 -114q0 -34 -7 -58t-18 -41.5t-23 -31t-23 -26.5t-18 -27t-7 -33v-19q0 -14 -3 -42t-7 -57q-4 -33 -9 -71h6q2 10 7.5 36t13.5 57.5t18 62.5t21 51q27 55 63 117q28 48 57 89.5t60 72t65 48t72 17.5q59 0 97.5 -18.5 t60.5 -49.5t30.5 -71.5t8.5 -85.5v-602h-176v584q0 15 -1 31t-5 29.5t-13 22.5t-24 9q-11 0 -25.5 -13t-30 -34t-31.5 -46.5t-30 -50.5q-24 -42 -50 -93.5t-51 -104t-47.5 -104t-39.5 -95t-27 -75.5t-10 -46v-14h-177v483q0 27 8 46.5t20.5 34t27 25.5t27 22.5t20.5 24 t8 30.5q0 11 -2.5 19.5t-4.5 13.5q-4 6 -7 10l-92 -78z" />
<glyph unicode="&#xe12;" horiz-adv-x="1350" d="M31 412q0 84 26.5 154.5t76 124.5t121 90t161.5 50l114 -106l113 94h166v-528q0 -26 13 -53t37 -49t58 -36t76 -14q25 0 46.5 5.5t37.5 19.5t25.5 37.5t9.5 60.5v557h176v-565q0 -79 -22.5 -130.5t-58.5 -81.5t-82 -42t-93 -12q-74 0 -131 29t-92 69v-86h-176v639 l-101 -100l-153 129q-36 -11 -67.5 -34.5t-54.5 -57.5t-36.5 -75.5t-13.5 -88.5q0 -68 22 -125t65 -93t107.5 -46t149.5 16v-158q-131 -25 -229 -2.5t-162.5 80t-96.5 143t-32 185.5z" />
<glyph unicode="&#xe13;" horiz-adv-x="1319" d="M39 592q10 59 43 104.5t83 76t113.5 46t135.5 15.5q73 0 139 -16t116 -49.5t79.5 -85.5t29.5 -124v-297q0 -37 9.5 -60.5t25.5 -37.5t37.5 -19.5t46.5 -5.5q42 0 76 14t58 36t37 49t13 53v528h176v-819h-176v86q-35 -40 -92 -69t-131 -29q-47 0 -93 12t-82 42t-58.5 81.5 t-22.5 130.5v293q0 37 -14 64t-39 44.5t-60 26t-77 8.5q-33 0 -62.5 -6t-53.5 -16.5t-41 -23.5t-26 -28q22 -14 42 -33t20 -40q0 -16 -8.5 -28.5t-18 -25t-18 -26.5t-8.5 -33v-289h106v-141h-283v430q0 18 10 30.5t22 23.5t22 21t10 23q0 8 -13.5 19t-29.5 21q-19 11 -43 24 z" />
<glyph unicode="&#xe14;" horiz-adv-x="866" d="M31 406q0 87 31.5 162.5t87.5 131t133 87.5t168 32h354v-823h-176v680h-187q-53 0 -96.5 -22.5t-74 -60t-47.5 -86.5t-17 -101q0 -69 21 -126t63.5 -92t106 -43.5t149.5 19.5v-158q-131 -27 -228 -5.5t-161 78t-95.5 141.5t-31.5 186z" />
<glyph unicode="&#xe15;" horiz-adv-x="870" d="M31 412q0 84 26.5 154.5t76 124.5t121 90t161.5 50l114 -106l113 94h166v-819h-176v639l-101 -100l-153 129q-36 -11 -67.5 -34.5t-54.5 -57.5t-36.5 -75.5t-13.5 -88.5q0 -68 22 -125t65 -93t107.5 -46t149.5 16v-158q-131 -25 -229 -2.5t-162.5 80t-96.5 143t-32 185.5 z" />
<glyph unicode="&#xe16;" horiz-adv-x="840" d="M39 592q10 59 43 104.5t83 76t113.5 46t135.5 15.5q73 0 139 -16t116 -49.5t79.5 -85.5t29.5 -124v-559h-176v547q0 37 -14 64t-39 44.5t-60 26t-77 8.5q-33 0 -62.5 -6t-53.5 -16.5t-41 -23.5t-26 -28q22 -14 42 -33t20 -40q0 -16 -8.5 -28.5t-18 -25t-18 -26.5 t-8.5 -33v-289h106v-141h-283v430q0 18 10 30.5t22 23.5t22 21t10 23q0 8 -13.5 19t-29.5 21q-19 11 -43 24z" />
<glyph unicode="&#xe17;" horiz-adv-x="860" d="M61 0v819h177v-112q21 24 50 46t64.5 39.5t75 28t80.5 10.5q135 0 213 -66t78 -202v-563h-176v565q0 66 -40 95.5t-100 29.5q-53 0 -98 -20t-77.5 -49t-51 -63t-18.5 -62v-496h-177z" />
<glyph unicode="&#xe18;" horiz-adv-x="823" d="M45 621q2 48 28.5 87t73 67t111 43.5t141.5 15.5q69 0 133.5 -12t116 -40.5t85.5 -75t42 -114.5h-176q-7 28 -28 46.5t-50 30t-64 16.5t-69 5q-35 0 -65.5 -5t-53 -14t-36 -22t-13.5 -28q0 -16 20 -25.5t52.5 -15t74.5 -9.5t87 -8q63 -6 122 -21t104.5 -45.5t73 -81 t27.5 -128.5q0 -89 -26.5 -145t-71 -87.5t-103.5 -43t-124 -11.5h-396v401h177v-258h180q37 0 71.5 5t61 20t41.5 42t14 71q-2 34 -16 57.5t-38.5 39t-57.5 24t-72 12.5q-75 7 -144 14.5t-122 27.5t-83.5 58t-27.5 107z" />
<glyph unicode="&#xe19;" horiz-adv-x="860" d="M61 256v563h177v-565q0 -66 39.5 -95.5t99.5 -29.5q53 0 98 20t78 49t51.5 63t18.5 63v495h176v-819h-176v113q-21 -24 -50.5 -46.5t-65 -40t-75 -28t-80.5 -10.5q-68 0 -121.5 16.5t-91.5 49.5t-58 83.5t-20 118.5z" />
<glyph unicode="&#xe1a;" horiz-adv-x="860" d="M61 264v555h177v-545q0 -38 15.5 -65t42 -45t61.5 -26.5t73 -8.5t73 8.5t61.5 26.5t42.5 45t16 65v545h176v-555q0 -72 -31 -124.5t-82 -86.5t-117.5 -50.5t-138.5 -16.5q-73 0 -139.5 16.5t-117.5 50.5t-81.5 86.5t-30.5 124.5z" />
<glyph unicode="&#xe1b;" horiz-adv-x="860" d="M61 264v555h177v-545q0 -38 15.5 -65t42 -45t61.5 -26.5t73 -8.5t73 8.5t61.5 26.5t42.5 45t16 65v740h176v-750q0 -72 -31 -124.5t-82 -86.5t-117.5 -50.5t-138.5 -16.5q-73 0 -139.5 16.5t-117.5 50.5t-81.5 86.5t-30.5 124.5z" />
<glyph unicode="&#xe1c;" horiz-adv-x="1135" d="M0 819h332v-131h-121l106 -412l179 543h143l178 -543l141 543h177l-236 -819h-143l-189 565l-188 -565h-143z" />
<glyph unicode="&#xe1d;" horiz-adv-x="1135" d="M0 819h332v-131h-121l106 -412l179 543h143l178 -543l197 738h176l-291 -1014h-143l-189 565l-188 -565h-143z" />
<glyph unicode="&#xe1e;" horiz-adv-x="1135" d="M0 819h176l141 -543l179 543h143l178 -543l141 543h177l-236 -819h-143l-189 565l-188 -565h-143z" />
<glyph unicode="&#xe1f;" horiz-adv-x="1135" d="M0 819h176l141 -543l179 543h143l178 -543l197 738h176l-291 -1014h-143l-189 565l-188 -565h-143z" />
<glyph unicode="&#xe20;" horiz-adv-x="860" d="M10 0v143h72v287q0 18 10 30.5t21.5 23.5t21.5 21t10 23q0 8 -13.5 19t-29.5 21q-19 11 -43 24q10 59 43 104.5t83 76t114 46t135 15.5q73 0 139 -16t116.5 -49.5t80 -85.5t29.5 -124v-559h-176v547q0 73 -53 108t-138 35q-33 0 -62.5 -6t-53.5 -16.5t-41 -23.5t-25 -28 q22 -14 41.5 -33t19.5 -40q0 -16 -8.5 -28.5t-18 -25t-18 -26.5t-8.5 -33v-430h-248z" />
<glyph unicode="&#xe21;" horiz-adv-x="860" d="M61 0v819h177v-495q0 -29 18.5 -63t51 -63t77.5 -49t98 -20q60 0 100 29.5t40 95.5v565h176v-563q0 -68 -20 -118.5t-58 -83.5t-92 -49.5t-121 -16.5q-41 0 -80.5 10.5t-75 28t-64.5 40t-50 46.5v-113h-177z" />
<glyph unicode="&#xe22;" horiz-adv-x="870" d="M35 262q1 34 13.5 64.5t32.5 56t47 43.5t56 27q-22 5 -45 17t-41.5 31.5t-30.5 46.5t-12 62q0 73 44.5 125.5t119.5 75.5q42 12 100 13t111 -7v-143q-42 8 -78 8.5t-63 -7.5t-42.5 -24t-15.5 -41q0 -24 13 -38t34 -22t48 -10.5t55 -2.5h252v282h176v-819l-395 -8 q-186 -5 -284 62t-95 208zM213 262q0 -39 17.5 -63.5t48 -38.5t71 -19t86.5 -4l197 4v252h-230q-96 0 -143 -37t-47 -94z" />
<glyph unicode="&#xe23;" horiz-adv-x="793" d="M20 307h179q0 -54 17 -88.5t44 -54.5t61 -27.5t68 -7.5q39 0 74.5 6.5t62.5 22t43.5 41t16.5 63.5q0 32 -16 53t-41 33.5t-56 19t-61 9.5q-74 7 -141 16t-118 30.5t-81.5 62t-30.5 110.5q0 52 27.5 96t74 75.5t109 49t133.5 17.5q66 0 130.5 -13.5t116 -44.5t84.5 -81.5 t36 -123.5h-177q-3 33 -22 55.5t-46.5 37t-61 20.5t-64.5 6t-60.5 -5.5t-52.5 -16.5t-37 -26.5t-14 -35.5q0 -21 19.5 -34t50.5 -20.5t70 -11.5t79 -8q62 -6 121 -19.5t104.5 -42.5t73 -77.5t27.5 -124.5q0 -83 -32 -137.5t-84.5 -86.5t-119.5 -45t-137 -13t-135.5 13.5 t-117 49t-83 98t-33.5 160.5z" />
<glyph unicode="&#xe24;" horiz-adv-x="840" d="M39 592q10 59 43 104.5t83 76t113.5 46t135.5 15.5q73 0 139 -16t116 -49.5t79.5 -85.5t29.5 -124v-805h-176v793q0 37 -14 64t-39 44.5t-60 26t-77 8.5q-33 0 -62.5 -6t-53.5 -16.5t-41 -23.5t-26 -28q22 -14 42 -33t20 -40q0 -16 -8.5 -28.5t-18 -25t-18 -26.5 t-8.5 -33v-289h106v-141h-283v430q0 18 10 30.5t22 23.5t22 21t10 23q0 8 -13.5 19t-29.5 21q-19 11 -43 24z" />
<glyph unicode="&#xe25;" horiz-adv-x="856" d="M31 244q0 118 72 183.5t208 78.5q42 4 94 4.5t98 6.5t77.5 23t31.5 54q0 23 -14.5 41t-39.5 30t-57.5 18.5t-68.5 6.5q-35 0 -69 -7.5t-62 -22t-47 -37t-25 -52.5h-180q12 73 49 123.5t90.5 81.5t117 44.5t128.5 13.5q64 0 128.5 -12.5t116.5 -42.5t84 -79t32 -122v-580 h-177v399q-18 -10 -47.5 -16.5t-65 -11t-72.5 -7.5t-68 -4q-28 -2 -56 -8t-50.5 -19.5t-37 -34.5t-14.5 -52q0 -47 26.5 -70.5t67 -30.5t88.5 -1.5t92 16.5v-154q-84 -12 -165 -12t-144.5 24t-102 78t-38.5 150z" />
<glyph unicode="&#xe26;" horiz-adv-x="860" d="M10 0v143h72v287q0 18 10 30.5t21.5 23.5t21.5 21t10 23q0 8 -13.5 19t-29.5 21q-19 11 -43 24q10 59 43 104.5t83 76t114 46t135 15.5q73 0 139 -16t116.5 -49.5t80 -85.5t29.5 -124v-805h-176v793q0 73 -53 108t-138 35q-33 0 -62.5 -6t-53.5 -16.5t-41 -23.5t-25 -28 q22 -14 41.5 -33t19.5 -40q0 -16 -8.5 -28.5t-18 -25t-18 -26.5t-8.5 -33v-430h-248z" />
<glyph unicode="&#xe27;" horiz-adv-x="821" d="M31 266h188q26 -71 76 -104t108 -33q97 0 154 67.5t57 213.5q0 145 -57 212.5t-154 67.5q-58 0 -108 -33t-76 -104h-188q32 137 127.5 209t244.5 72q78 0 148.5 -22t124 -72.5t84.5 -131.5t31 -198q0 -118 -31 -199t-84.5 -131t-124 -72t-148.5 -22q-148 0 -244 70.5 t-128 209.5z" />
<glyph unicode="&#xe28;" horiz-adv-x="860" d="M61 0v559q0 72 33 124t86 85.5t119 49.5t131 16q34 0 68.5 -4.5t66.5 -12.5q22 8 35.5 23.5t13.5 40.5h187q0 -22 -9.5 -41.5t-24.5 -35.5t-34 -28t-37 -18q47 -34 75 -83.5t28 -115.5v-559h-176v557q0 37 -16 62t-43 41t-62 23t-72 7q-38 0 -72.5 -7t-61 -23t-42.5 -41 t-16 -62v-72h249v-151h-249v-334h-177z" />
<glyph unicode="&#xe29;" horiz-adv-x="870" d="M61 264v555h177v-545q0 -38 15.5 -65t42 -45t61.5 -26.5t73 -8.5t73 8.5t61.5 26.5t42.5 45t16 65v127h-254v179h176v-56h78v295h176v-295h61v-123h-61v-137q0 -72 -31 -124.5t-82 -86.5t-117.5 -50.5t-138.5 -16.5q-73 0 -139.5 16.5t-117.5 50.5t-81.5 86.5 t-30.5 124.5z" />
<glyph unicode="&#xe2a;" horiz-adv-x="856" d="M31 244q0 118 72 183.5t208 78.5q42 4 94 4.5t98 6.5t77.5 23t31.5 54q0 23 -14.5 41t-39.5 30t-57.5 18.5t-68.5 6.5q-35 0 -69 -7.5t-62 -22t-47 -37t-25 -52.5h-180q12 73 49 123.5t90.5 81.5t117 44.5t128.5 13.5q32 0 64 -3.5t63 -9.5q19 8 30 23t11 37h186 q0 -39 -27 -70t-61 -47q44 -31 69.5 -76t25.5 -110v-580h-177v399q-18 -10 -47.5 -16.5t-65 -11t-72.5 -7.5t-68 -4q-28 -2 -56 -8t-50.5 -19.5t-37 -34.5t-14.5 -52q0 -47 26.5 -70.5t67 -30.5t88.5 -1.5t92 16.5v-154q-84 -12 -165 -12t-144.5 24t-102 78t-38.5 150z" />
<glyph unicode="&#xe2b;" horiz-adv-x="860" d="M61 0v819h177v-276q21 22 48.5 41t60.5 33t70.5 22t76.5 8q65 0 121 -15.5t97 -48t64 -82.5t23 -120v-381h-176v367q0 67 -40 97t-100 30q-48 0 -92.5 -19t-78.5 -48t-54 -63t-20 -65v-299h-177zM307 678v141h451v-141h-451z" />
<glyph unicode="&#xe2c;" horiz-adv-x="1135" d="M0 819h178l139 -543l179 543h143l178 -543l94 359q8 28 3.5 54t-20 46t-42.5 31.5t-64 11.5h-45v123h80q57 0 92 10t55.5 25.5t29.5 36t14 41.5h176q-8 -32 -20 -63.5t-34.5 -57.5t-59 -44.5t-93.5 -23.5q76 -28 95 -83t-3 -128l-176 -614h-143l-189 563l-188 -563h-143z " />
<glyph unicode="&#xe2d;" horiz-adv-x="905" d="M31 410q0 27 3 62t11 63h328v-136h-166q1 -67 19.5 -117.5t51 -84.5t77 -51t98.5 -17t99.5 18t77.5 53t50 88t18 122t-18 121.5t-50 87.5t-77.5 53t-99.5 18q-43 0 -75 -9t-56 -24t-40 -33.5t-28 -37.5h-195q19 54 52.5 99.5t82 78.5t113.5 51.5t146 18.5q87 0 164 -24.5 t134 -76t90 -132t33 -191.5t-33 -191.5t-90 -132t-134 -76t-164 -24.5t-164 24.5t-134 76t-90.5 132t-33.5 191.5z" />
<glyph unicode="&#xe2e;" horiz-adv-x="905" d="M31 410q0 27 3 62t11 63h328v-136h-166q1 -67 19.5 -117.5t51 -84.5t77 -51t98.5 -17t99.5 18t77.5 53t50 88t18 122t-18 121.5t-50 87.5t-77.5 53t-99.5 18q-43 0 -75 -9t-56 -24t-40 -33.5t-28 -37.5h-195q19 54 52.5 99.5t82 78.5t113.5 51.5t146 18.5q70 0 129 -15 q41 24 41 62h186q0 -35 -23.5 -68t-68.5 -53q72 -50 114.5 -136t42.5 -214q0 -111 -33 -191.5t-90 -132t-134 -76t-164 -24.5t-164 24.5t-134 76t-90.5 132t-33.5 191.5z" />
<glyph unicode="&#xe2f;" horiz-adv-x="784" d="M31 641q0 63 34.5 104t88 61t117 19.5t120.5 -20.5v-131q-30 18 -63 23t-60 -0.5t-45 -20.5t-18 -37q0 -28 26.5 -46t63.5 -18q54 0 97.5 17.5t76 50t53.5 77.5t29 99h172v-819h-174v530q-20 -18 -46.5 -36t-59 -31.5t-70.5 -22t-80 -8.5q-48 0 -94.5 13t-84 39.5 t-60.5 65.5t-23 91z" />
<glyph unicode="&#xe30;" horiz-adv-x="397" d="M31 174q0 31 12 59t34 49t53 33.5t69 12.5q37 0 68 -12.5t53.5 -33.5t34.5 -49t12 -59q0 -32 -12 -60t-34.5 -49t-53.5 -33t-68 -12q-38 0 -69 12t-53 33t-34 49t-12 60zM31 645q0 31 12 59t34 49t53 33.5t69 12.5q37 0 68 -12.5t53.5 -33.5t34.5 -49t12 -59 q0 -32 -12 -59.5t-34.5 -48.5t-53.5 -33t-68 -12q-38 0 -69 12t-53 33t-34 48.5t-12 59.5zM135 174q0 -25 18 -41t46 -16t45.5 16t17.5 41t-17.5 41t-45.5 16t-46 -16t-18 -41zM135 645q0 -25 18 -41t46 -16t45.5 16t17.5 41t-17.5 41t-45.5 16t-46 -16t-18 -41z" />
<glyph unicode="&#xe31;" d="M-455 922v200h176v-90h449v-110h-625z" />
<glyph unicode="&#xe32;" horiz-adv-x="481" d="M10 674v143q85 14 160 7t130.5 -33.5t87.5 -72.5t32 -110v-608h-176v578q0 27 -16 48.5t-46 35t-73.5 17.5t-98.5 -5z" />
<glyph unicode="&#xe33;" horiz-adv-x="481" d="M-283 1030q0 25 10 46.5t27.5 37.5t42 24.5t53.5 8.5t53.5 -8.5t42.5 -24.5t28 -37.5t10 -46.5q0 -51 -37.5 -84t-96.5 -33q-29 0 -53.5 9t-42 24.5t-27.5 37t-10 46.5zM-201 1030q0 -18 15 -31.5t36 -13.5q22 0 37 13.5t15 31.5q0 19 -15 32t-37 13q-21 0 -36 -13 t-15 -32zM10 674v143q85 14 160 7t130.5 -33.5t87.5 -72.5t32 -110v-608h-176v578q0 27 -16 48.5t-46 35t-73.5 17.5t-98.5 -5z" />
<glyph unicode="&#xe34;" d="M-727 922v110h666v-110h-666z" />
<glyph unicode="&#xe35;" d="M-727 922v110h489v105h177v-215h-666z" />
<glyph unicode="&#xe36;" d="M-727 922v110h448q0 25 9.5 46.5t27 36.5t41 23.5t51.5 8.5q57 0 93.5 -31.5t36.5 -81.5q0 -49 -36.5 -80.5t-93.5 -31.5h-577zM-197 1034q0 -18 13.5 -30.5t33.5 -12.5t34 12.5t14 30.5q0 19 -14 31t-34 12t-33.5 -12t-13.5 -31z" />
<glyph unicode="&#xe37;" d="M-727 922v110h313v105h115v-105h61v105h177v-215h-666z" />
<glyph unicode="&#xe38;" d="M-319 -61h258v-267h-177v156h-81v111z" />
<glyph unicode="&#xe39;" d="M-549 -61h217v-132q0 -24 13 -35.5t34 -11.5q22 0 34.5 11.5t12.5 35.5v132h177v-132q0 -66 -56 -100.5t-162 -34.5q-112 0 -160 34.5t-48 100.5v21h-62v111z" />
<glyph unicode="&#xe3a;" d="M-264 -176q0 24 9 44.5t24.5 36.5t36 25t44.5 9t45 -9t36.5 -25t24.5 -36.5t9 -44.5t-9 -45t-24.5 -36.5t-36.5 -24.5t-45 -9t-44.5 9t-36 24.5t-24.5 36.5t-9 45z" />
<glyph unicode="&#xe3f;" horiz-adv-x="969" d="M102 0v965h342v129h74v-129h62q67 0 121.5 -15t93 -45.5t59 -76.5t20.5 -107q0 -69 -32 -120.5t-90 -80.5q80 -23 123 -87.5t43 -160.5q0 -57 -20.5 -107t-65 -86.5t-113 -57.5t-164.5 -21h-37v-129h-74v129h-342zM289 152h155v278h-155v-278zM289 567h155v246h-155v-246 zM518 152h62q72 0 112.5 36t40.5 107q0 66 -40.5 100.5t-112.5 34.5h-62v-278zM518 567h37q59 0 97 31.5t38 91.5q0 69 -35 96t-100 27h-37v-246z" />
<glyph unicode="&#xe40;" horiz-adv-x="381" d="M102 0v819h177v-819h-177z" />
<glyph unicode="&#xe41;" horiz-adv-x="680" d="M102 0v819h177v-819h-177zM401 0v819h177v-819h-177z" />
<glyph unicode="&#xe42;" horiz-adv-x="422" d="M29 1124q0 25 11 49t34.5 42t59 28.5t83.5 9.5l256 -4v-112l-190 4q-15 0 -29 -0.5t-25 -3.5t-17.5 -8.5t-6.5 -14.5q0 -15 14.5 -25.5t32.5 -25t32.5 -37t14.5 -61.5v-965h-176v934q0 37 -14.5 58.5t-32.5 39.5t-32.5 37.5t-14.5 54.5z" />
<glyph unicode="&#xe43;" horiz-adv-x="422" d="M-84 1075q-7 44 8.5 80.5t48 63t80 41t105.5 14.5q56 0 100 -12t74.5 -33t46.5 -50.5t16 -64.5q0 -38 -15 -59.5t-33 -39.5t-33 -38.5t-15 -54.5v-922h-176v938q0 39 14.5 60t32.5 36t32.5 29.5t14.5 40.5q0 28 -20 43.5t-54 15.5q-24 0 -41 -8t-27.5 -20.5t-15 -28.5 t-2.5 -31h-141z" />
<glyph unicode="&#xe44;" horiz-adv-x="422" d="M-156 1180l107 71l92 -57l74 43h90q27 0 53.5 -5t47.5 -16t34 -30t14 -47q1 -22 -8 -37t-20 -29t-20 -29.5t-9 -37.5v-1006h-176v1004q0 23 9 37.5t20.5 26t20.5 21t9 21.5q0 9 -10.5 12.5t-24.5 3.5h-14l-88 -57z" />
<glyph unicode="&#xe45;" horiz-adv-x="481" d="M10 674v143q85 14 160 7t130.5 -33.5t87.5 -72.5t32 -110v-854h-176v824q0 27 -16 48.5t-46 35t-73.5 17.5t-98.5 -5z" />
<glyph unicode="&#xe46;" horiz-adv-x="788" d="M31 592q0 46 20.5 89t59.5 76t96 52.5t131 19.5l125 -102l106 92h158v-1065h-176v856l-86 -78l-180 148q-15 -2 -28.5 -8.5t-24 -17t-17 -24t-6.5 -28.5q0 -24 12.5 -41t33.5 -27.5t49 -13.5t58 2v-145q-76 -9 -137 2.5t-104 40t-66.5 72.5t-23.5 100z" />
<glyph unicode="&#xe47;" d="M-721 1053q0 33 14 63.5t41 53.5t67 37t93 14h426v-101h-405q-45 0 -72 -15t-27 -46q0 -14 6.5 -24t12.5 -15h67l176 76l209 -84v-119l-204 86l-160 -68l-168 2q-13 8 -26.5 20.5t-24.5 30t-18 40t-7 49.5z" />
<glyph unicode="&#xe48;" d="M-238 1198v174h177v-174h-177z" />
<glyph unicode="&#xe49;" d="M-422 1288v101h133q57 0 83 -24t26 -69h219v-98h-377v35q0 55 -55 55h-29z" />
<glyph unicode="&#xe4a;" d="M-422 1198v94q0 32 11.5 56.5t31.5 41t47 25t58 8.5h14l70 -49l65 49h16q63 0 103.5 -32.5t42.5 -92.5h88v-100h-191v86q0 41 -36 41h-11l-80 -55l-83 55h-3q-20 0 -29 -12t-7 -29v-4h55v-82h-162z" />
<glyph unicode="&#xe4b;" d="M-305 1270v78h78v71h159v-71h78v-78h-78v-72h-159v72h-78z" />
<glyph unicode="&#xe4c;" d="M-313 1094v61q0 31 11.5 54.5t31 39.5t45.5 23.5t55 7.5h170v-111h-90q-29 0 -47.5 -16t-18.5 -41v-18h-157z" />
<glyph unicode="&#xe4d;" d="M-283 1030q0 25 10 46.5t27.5 37.5t42 24.5t53.5 8.5t53.5 -8.5t42.5 -24.5t28 -37.5t10 -46.5q0 -51 -37.5 -84t-96.5 -33q-29 0 -53.5 9t-42 24.5t-27.5 37t-10 46.5zM-201 1030q0 -18 15 -31.5t36 -13.5q22 0 37 13.5t15 31.5q0 19 -15 32t-37 13q-21 0 -36 -13 t-15 -32z" />
<glyph unicode="&#xe4e;" d="M-553 1034q-1 22 6 41.5t19.5 36.5t30 30.5t38.5 22.5q32 17 64 23q-13 11 -21 27.5t-8 39.5q0 19 9.5 40t27 40.5t42 36.5t54.5 29q38 14 88 21.5t96 10.5q54 4 109 3v-107q-34 1 -69 -1q-31 -2 -68 -5.5t-72 -11.5q-37 -10 -63.5 -25t-26.5 -31q-1 -19 18 -27t42 -10 q26 -3 61 -1v-95q-31 2 -62 1q-26 -1 -57 -4t-57 -11q-34 -11 -58 -29.5t-18 -40.5q3 -11 21 -14.5t42.5 0t51.5 13t49 24.5l53 -90q-32 -17 -66 -29q-29 -11 -66 -18t-75 -2q-63 8 -98 40t-37 72z" />
<glyph unicode="&#xe4f;" horiz-adv-x="963" d="M61 410q0 87 33 163t90 133t133.5 90t163.5 33t163.5 -33t133.5 -90t90 -133t33 -163t-33 -163.5t-90 -133.5t-133.5 -90t-163.5 -33t-163.5 33t-133.5 90t-90 133.5t-33 163.5zM123 410q0 -74 28.5 -139.5t77 -114t113.5 -77t139 -28.5t139.5 28.5t114 77t77 114 t28.5 139.5q0 73 -28.5 138.5t-77 114t-114 77t-139.5 28.5t-139 -28.5t-113.5 -77t-77 -114t-28.5 -138.5zM225 410q0 53 20 99.5t55 81.5t81.5 55t99.5 20t100 -20t81.5 -55t54.5 -81.5t20 -99.5t-20 -100t-54.5 -81.5t-81.5 -54.5t-100 -20t-99.5 20t-81.5 54.5t-55 81.5 t-20 100z" />
<glyph unicode="&#xe50;" horiz-adv-x="815" d="M41 307q0 66 26 124t74 101.5t116 69t151 25.5t150.5 -25.5t115.5 -69t74 -101.5t26 -124t-26 -124t-74 -101.5t-115.5 -68.5t-150.5 -25t-151 25t-116 68.5t-74 101.5t-26 124zM190 307q0 -39 15 -73t43.5 -59t68 -39.5t89.5 -14.5q49 0 89 14.5t68 39.5t43 59t15 73 t-15 73.5t-43 59.5t-68 39.5t-89 14.5q-50 0 -89.5 -14.5t-68 -39.5t-43.5 -59.5t-15 -73.5z" />
<glyph unicode="&#xe51;" horiz-adv-x="864" d="M41 326q0 68 29.5 123.5t81.5 95t121.5 61t150.5 21.5q91 0 165 -22t126 -63t80 -99.5t28 -131.5q0 -81 -38.5 -148.5t-102.5 -119.5t-147.5 -86.5t-172.5 -48.5l-65 104q79 10 147 36.5t117.5 64.5t78 86t28.5 102q0 42 -17.5 77.5t-49.5 61t-76.5 40t-98.5 14.5 q-49 0 -91 -13t-72.5 -35.5t-48 -53.5t-17.5 -68q0 -38 19 -66t44 -37q-3 9 -4.5 19.5t-1.5 25.5q0 28 12.5 53.5t33.5 45t49 30.5t59 11q33 0 61.5 -11t49 -30.5t32.5 -45t12 -53.5q0 -41 -17.5 -75.5t-49.5 -60t-76 -40t-98 -14.5t-104.5 17t-90 49.5t-63 78.5t-23.5 105z M352 262q0 -23 17.5 -40t40.5 -17t40 17t17 40t-17 40t-40 17t-40.5 -17t-17.5 -40z" />
<glyph unicode="&#xe52;" horiz-adv-x="1159" d="M-66 721l70 117q102 0 157.5 -44t55.5 -122v-457q0 -35 20.5 -56.5t65.5 -21.5h553q45 0 65.5 21.5t20.5 56.5v223q0 37 -22 55.5t-62 18.5q-15 0 -29 -5t-25 -13.5t-17.5 -19.5t-6.5 -23v-252h-155v243q0 29 -28 49.5t-73 20.5q-35 0 -63 -16.5t-37 -40.5q-1 -1 -1 -2 q0 -2 1 -2q31 0 57.5 -10t46.5 -28t31.5 -42t11.5 -52q0 -27 -11.5 -51t-31.5 -42t-46.5 -28t-57.5 -10q-30 0 -56.5 10t-46 27.5t-31 41.5t-11.5 52v111q0 47 19 85t52.5 65t79 42t98.5 15q59 0 104.5 -20.5t69.5 -51.5q11 13 27.5 26t37 23t45.5 16.5t52 6.5 q52 0 95.5 -14t74 -40t47.5 -63.5t17 -85.5v-235q0 -47 -15.5 -84t-43.5 -62.5t-67 -39t-87 -13.5h-611q-97 0 -155 52.5t-58 146.5v432q0 45 -33.5 67.5t-93.5 22.5zM377 322q0 -22 14.5 -37t36.5 -15t36.5 15t14.5 37q0 21 -14.5 36t-36.5 15t-36.5 -15t-14.5 -36z" />
<glyph unicode="&#xe53;" horiz-adv-x="997" d="M61 145v263q0 54 23 95.5t61.5 69.5t87.5 42t101 14q66 0 114.5 -23t73.5 -57q23 32 67.5 56t104.5 24q52 0 96.5 -13.5t77 -39.5t50.5 -64.5t18 -89.5v-422h-156v416q0 42 -25 63t-67 21q-38 0 -64 -22t-26 -54v-424h-156v418q0 35 -28.5 58.5t-77.5 23.5q-51 0 -85 -24 t-34 -64v-113h14q36 0 67 -12.5t54 -33.5t36 -49t13 -59q0 -33 -13 -61.5t-36 -49t-54 -32.5t-67 -12q-35 0 -66 12t-54 32.5t-36.5 49t-13.5 61.5zM174 143q0 -24 17.5 -41.5t41.5 -17.5q25 0 42.5 17.5t17.5 41.5q0 25 -17.5 42.5t-42.5 17.5q-24 0 -41.5 -17.5 t-17.5 -42.5z" />
<glyph unicode="&#xe54;" horiz-adv-x="926" d="M41 309q0 77 29 138t79 103.5t117 65t144 21.5q43 -1 71 -2.5t51.5 -3t48 -2t62.5 1.5q29 1 52.5 19.5t39.5 47.5t25 67t10 79h156q1 -71 -17 -132.5t-52 -107t-83 -73t-112 -29.5q-33 -2 -61 -1t-57 2.5t-61.5 3t-72.5 1.5q-45 1 -83.5 -12.5t-67.5 -39.5t-45.5 -63 t-16.5 -84q0 -45 15.5 -79.5t41.5 -58t60.5 -36t72.5 -12.5q45 0 78.5 5t48.5 11q-20 11 -38.5 25.5t-32.5 33.5t-22.5 41.5t-8.5 49.5q0 33 13.5 61t36 48.5t52 32t61.5 11.5q35 0 64.5 -11t51.5 -30.5t34 -46.5t12 -59t-15 -60.5t-40 -50.5q24 -15 52.5 -19t60 -9t64 -17 t63.5 -43l-88 -106q-67 32 -107.5 40.5t-60.5 8.5q-31 0 -61 -8.5t-64 -18t-73.5 -18t-88.5 -8.5q-67 0 -128 19t-107.5 59t-74.5 100.5t-28 144.5zM516 295q0 -25 17.5 -42t41.5 -17q25 0 42.5 17t17.5 42t-17.5 42t-42.5 17q-24 0 -41.5 -17t-17.5 -42z" />
<glyph unicode="&#xe55;" horiz-adv-x="926" d="M41 309q0 61 18 112t51 91t78 68t99 43q-8 11 -14.5 29.5t-6.5 39.5q0 34 14 63t39 49.5t60.5 32t77.5 11.5t77 -11.5t60 -32t39 -49.5t14 -63q0 -18 -7 -34t-15 -27h18q29 1 52.5 19.5t39.5 47.5t25 67t10 79h156q1 -71 -17 -132.5t-52 -107t-83 -73t-112 -29.5 q-33 -2 -61 -1t-57 2.5t-61.5 3t-72.5 1.5q-45 1 -83.5 -12.5t-67.5 -39.5t-45.5 -63t-16.5 -84q0 -45 15.5 -79.5t41.5 -58t60.5 -36t72.5 -12.5q45 0 78.5 5t48.5 11q-20 11 -38.5 25.5t-32.5 33.5t-22.5 41.5t-8.5 49.5q0 33 13.5 61t36 48.5t52 32t61.5 11.5 q35 0 64.5 -11t51.5 -30.5t34 -46.5t12 -59t-15 -60.5t-40 -50.5q24 -15 52.5 -19t60 -9t64 -17t63.5 -43l-88 -106q-67 32 -107.5 40.5t-60.5 8.5q-31 0 -61 -8.5t-64 -18t-73.5 -18t-88.5 -8.5q-67 0 -128 19t-107.5 59t-74.5 100.5t-28 144.5zM387 696q0 -24 20.5 -42.5 t49.5 -18.5t49 18.5t20 42.5q0 25 -20 43.5t-49 18.5t-49.5 -18.5t-20.5 -43.5zM516 295q0 -25 17.5 -42t41.5 -17q25 0 42.5 17t17.5 42t-17.5 42t-42.5 17q-24 0 -41.5 -17t-17.5 -42z" />
<glyph unicode="&#xe56;" horiz-adv-x="872" d="M-76 764l127 80q35 -23 64.5 -55t52 -68.5t37 -76t20.5 -75.5q38 29 99.5 49.5t132.5 20.5q82 0 151 -23.5t118.5 -66t77 -101.5t27.5 -131q0 -71 -30.5 -132t-84.5 -105t-127.5 -69t-158.5 -25q-82 0 -146 21.5t-107.5 56t-66 77.5t-22.5 86q0 34 13 61.5t35.5 47 t52.5 30.5t65 11q34 0 63.5 -11t51.5 -30.5t34.5 -47t12.5 -59.5q0 -64 -49 -102q12 -2 27 -4t32 -2q51 0 96.5 14.5t79.5 41t54 63.5t20 82q0 40 -18 74.5t-49 59t-71.5 38.5t-86.5 14q-78 0 -133 -24t-87 -58h-122q-6 34 -17 76.5t-32 87.5t-53.5 90t-82.5 84zM193 225 q0 -24 17 -41.5t42 -17.5t42 17.5t17 41.5q0 25 -17 42.5t-42 17.5t-42 -17.5t-17 -42.5z" />
<glyph unicode="&#xe57;" horiz-adv-x="1233" d="M61 145v263q0 54 23 95.5t61.5 69.5t87.5 42t101 14q66 0 114.5 -23t73.5 -57q23 32 67.5 56t104.5 24q52 0 96.5 -13.5t77 -39.5t50.5 -64.5t18 -89.5v-252q16 7 33 22.5t31 38t23 51.5t11 64q1 44 -2 81.5t-6 72t-4 68.5t6 71q14 69 56 121t96 84l133 -92 q-62 -29 -91.5 -67t-37.5 -73q-7 -32 -6 -64.5t5 -66t7 -68t0 -71.5q-6 -76 -33.5 -135t-69.5 -101.5t-94 -68.5t-106 -37h-107v416q0 42 -25 63t-67 21q-38 0 -64 -22t-26 -54v-424h-156v418q0 35 -28.5 58.5t-77.5 23.5q-51 0 -85 -24t-34 -64v-113h14q36 0 67 -12.5 t54 -33.5t36 -49t13 -59q0 -33 -13 -61.5t-36 -49t-54 -32.5t-67 -12q-35 0 -66 12t-54 32.5t-36.5 49t-13.5 61.5zM174 143q0 -24 17.5 -41.5t41.5 -17.5q25 0 42.5 17.5t17.5 41.5q0 25 -17.5 42.5t-42.5 17.5q-24 0 -41.5 -17.5t-17.5 -42.5z" />
<glyph unicode="&#xe58;" horiz-adv-x="934" d="M41 338q0 73 28 129.5t78 95t119 58.5t152 20q36 0 69.5 -3t65 -6.5t62 -6t61.5 -0.5q30 1 50 20t33 49t20.5 69t11.5 81h155q-6 -67 -21.5 -129.5t-44 -112t-72 -80t-106.5 -33.5q-38 -2 -72 1.5t-68 8.5t-70 9t-76 4q-48 0 -88 -12.5t-69 -35t-45.5 -54.5t-16.5 -72 q0 -33 10.5 -62t27 -53t36.5 -41.5t38 -27.5l125 151q36 -47 72 -84q15 -16 32 -31t33.5 -27t32 -19t29.5 -7q6 0 11 5q3 2 5 5q-35 16 -58.5 48.5t-23.5 78.5q0 28 12.5 54t33.5 45.5t50 31t62 11.5q31 0 60.5 -11.5t52 -32t36 -48.5t13.5 -62q0 -49 -21.5 -97t-57.5 -85.5 t-84 -60.5t-101 -23q-24 0 -49.5 9t-50 23.5t-46.5 31.5t-39 32l-76 -104q-72 9 -131 38.5t-101.5 75.5t-65.5 106t-23 130zM666 268q0 -24 17 -41.5t42 -17.5t42 17.5t17 41.5q0 25 -17 42.5t-42 17.5t-42 -17.5t-17 -42.5z" />
<glyph unicode="&#xe59;" horiz-adv-x="1036" d="M41 326q0 71 27 131t74.5 103t111 67t137.5 24q78 0 142.5 -20.5t109.5 -61.5q16 31 48.5 55.5t80.5 30.5q19 3 40 1.5t40.5 -6.5t36.5 -13.5t29 -20.5q12 39 15.5 98.5t-5.5 133.5h151q9 -69 1.5 -131.5t-23 -116.5t-37 -97t-41.5 -73l-80 12q-2 9 -8.5 20.5t-18 22 t-27 18t-36.5 7.5q-28 0 -46 -14t-26 -35q60 -90 95.5 -203.5t54.5 -249.5l-156 -20q-9 62 -21 125.5t-30 122.5t-43 110t-59 89t-79 59.5t-102 21.5q-42 0 -78.5 -15t-63.5 -41t-42.5 -60.5t-15.5 -73.5q0 -56 17.5 -91.5t33.5 -52.5q3 29 16.5 55t35.5 45.5t50.5 30.5 t61.5 11q34 0 63 -12.5t51 -33.5t34.5 -49t12.5 -59q0 -41 -16 -74.5t-44.5 -57.5t-66.5 -37t-81 -13q-77 0 -137 28.5t-101.5 76t-63.5 108t-22 125.5zM348 164q0 -25 17.5 -42.5t42.5 -17.5q24 0 41.5 17.5t17.5 42.5t-17.5 42t-41.5 17q-25 0 -42.5 -17t-17.5 -42z" />
<glyph unicode="&#xe5a;" horiz-adv-x="999" d="M31 641q0 63 34.5 104t88 61t117 19.5t120.5 -20.5v-131q-30 18 -63 23t-60 -0.5t-45 -20.5t-18 -37q0 -28 26.5 -46t63.5 -18q54 0 97.5 17.5t76 50t53.5 77.5t29 99h172v-819h-174v530q-20 -18 -46.5 -36t-59 -31.5t-70.5 -22t-80 -8.5q-48 0 -94.5 13t-84 39.5 t-60.5 65.5t-23 91zM805 0v819h133v-819h-133z" />
<glyph unicode="&#xe5b;" horiz-adv-x="1516" d="M61 416q0 78 20.5 144.5t56.5 116t85 77.5t105 28q48 0 90 -20.5t73 -56.5t48.5 -85.5t17.5 -107.5q0 -46 -11.5 -85t-32 -67t-48 -43.5t-59.5 -15.5q-29 0 -53.5 12t-42.5 32.5t-28 47.5t-10 58q0 30 10.5 57.5t28.5 47.5t41.5 32t50.5 12h7t8 -2q-9 31 -33 51.5 t-55 20.5t-57.5 -19.5t-46 -54t-31 -83t-11.5 -105.5q0 -58 13 -104.5t36.5 -79.5t56 -50.5t72.5 -17.5q47 0 88.5 26.5t75 75t57.5 116t35 148.5q8 57 23.5 75.5t44.5 18.5t56.5 -35t45.5 -100q2 13 3.5 25.5t1.5 28.5q2 34 14 47.5t37 13.5q21 0 47 -25t49 -73 q5 26 13.5 43.5t31.5 17.5q26 0 49.5 -24t44.5 -64q8 23 19 40t32 17q14 0 32 -14t38 -43q8 14 20.5 21.5t30.5 5.5l158 -19q32 -3 48 -13t16 -32q0 -37 -64 -43l-147 -18q-8 -20 -22.5 -38t-33.5 -18q-17 0 -28.5 17t-26.5 43q-8 -34 -25.5 -59t-40.5 -25q-21 0 -35 24.5 t-32 55.5q-8 -44 -27 -73.5t-47 -29.5q-14 0 -23 9t-15.5 24.5t-13 36t-15.5 43.5q-20 -75 -43.5 -106t-57.5 -31q-21 0 -35 14.5t-20 46.5q-5 20 -8.5 38.5t-10.5 35.5q-9 -34 -19 -62.5t-23 -53.5t-28.5 -48t-35.5 -45q-51 -57 -115.5 -90t-130.5 -33q-64 0 -117 26.5 t-91.5 75t-59.5 116t-21 149.5zM358 453q0 -25 13.5 -41.5t31.5 -16.5q20 0 35 16.5t15 41.5q0 24 -15 40.5t-35 16.5q-18 0 -31.5 -16.5t-13.5 -40.5z" />
<glyph unicode="&#x2000;" horiz-adv-x="799" />
<glyph unicode="&#x2001;" horiz-adv-x="1599" />
<glyph unicode="&#x2002;" horiz-adv-x="799" />
<glyph unicode="&#x2003;" horiz-adv-x="1599" />
<glyph unicode="&#x2004;" horiz-adv-x="533" />
<glyph unicode="&#x2005;" horiz-adv-x="399" />
<glyph unicode="&#x2006;" horiz-adv-x="266" />
<glyph unicode="&#x2007;" horiz-adv-x="266" />
<glyph unicode="&#x2008;" horiz-adv-x="199" />
<glyph unicode="&#x2009;" horiz-adv-x="319" />
<glyph unicode="&#x200a;" horiz-adv-x="88" />
<glyph unicode="&#x200c;" />
<glyph unicode="&#x200d;" />
<glyph unicode="&#x2010;" horiz-adv-x="543" d="M66 295v145h409v-145h-409z" />
<glyph unicode="&#x2011;" horiz-adv-x="543" d="M66 295v145h409v-145h-409z" />
<glyph unicode="&#x2012;" horiz-adv-x="543" d="M66 295v145h409v-145h-409z" />
<glyph unicode="&#x2013;" horiz-adv-x="766" d="M41 274v134h684v-134h-684z" />
<glyph unicode="&#x2014;" horiz-adv-x="1532" d="M41 274v134h1450v-134h-1450z" />
<glyph unicode="&#x2018;" horiz-adv-x="440" d="M92 772q0 28 8.5 60.5t27 66t49 67t75.5 64.5l82 -33q-30 -20 -51 -40t-34 -38t-20 -32t-8 -23q26 1 49 -7.5t40.5 -24t27.5 -37t10 -47.5q0 -25 -9 -47t-25 -38.5t-38.5 -26t-48.5 -9.5q-63 0 -99 39.5t-36 105.5z" />
<glyph unicode="&#x2019;" horiz-adv-x="440" d="M92 909q0 25 9 47t25 38.5t38.5 26t48.5 9.5q63 0 99 -39.5t36 -105.5q0 -29 -8.5 -61t-27 -65.5t-49 -67t-75.5 -64.5l-82 32q30 20 51 40.5t34 38.5t19.5 32t8.5 23q-26 -1 -49 7.5t-40.5 24t-27.5 37t-10 47.5z" />
<glyph unicode="&#x201c;" horiz-adv-x="758" d="M92 772q0 28 8.5 60.5t27 66t49 67t75.5 64.5l82 -33q-30 -20 -51 -40t-34 -38t-20 -32t-8 -23q26 1 49 -7.5t40.5 -24t27.5 -37t10 -47.5q0 -25 -9 -47t-25 -38.5t-38.5 -26t-48.5 -9.5q-63 0 -99 39.5t-36 105.5zM410 772q0 28 8 60.5t27 66t49.5 67t74.5 64.5l82 -33 q-30 -20 -50.5 -40t-34 -38t-20 -32t-7.5 -23q26 1 49 -7.5t40.5 -24t27.5 -37t10 -47.5q0 -25 -9 -47t-25.5 -38.5t-38.5 -26t-48 -9.5q-63 0 -99 39.5t-36 105.5z" />
<glyph unicode="&#x201d;" horiz-adv-x="758" d="M92 909q0 25 9 47t25 38.5t38.5 26t48.5 9.5q63 0 99 -39.5t36 -105.5q0 -29 -8.5 -61t-27 -65.5t-49 -67t-75.5 -64.5l-82 32q30 20 51 40.5t34 38.5t19.5 32t8.5 23q-26 -1 -49 7.5t-40.5 24t-27.5 37t-10 47.5zM410 909q0 25 9 47t25 38.5t38 26t48 9.5 q63 0 99.5 -39.5t36.5 -105.5q0 -29 -8.5 -61t-27 -65.5t-49 -67t-75.5 -64.5l-82 32q30 20 50.5 40.5t34 38.5t20 32t8.5 23q-26 -1 -49.5 7.5t-40.5 24t-27 37t-10 47.5z" />
<glyph unicode="&#x2022;" horiz-adv-x="737" d="M61 410q0 64 24 120t66 97.5t98 65.5t120 24t120 -24t97.5 -65.5t65.5 -97.5t24 -120t-24 -120t-65.5 -98t-97.5 -66t-120 -24t-120 24t-98 66t-66 98t-24 120z" />
<glyph unicode="&#x2026;" horiz-adv-x="1143" d="M82 98q0 22 8.5 42t23.5 35t34.5 23.5t41.5 8.5t42 -8.5t35 -23.5t23.5 -35t8.5 -42t-8.5 -41.5t-23.5 -34.5t-35 -23.5t-42 -8.5t-41.5 8.5t-34.5 23.5t-23.5 34.5t-8.5 41.5zM463 98q0 22 8.5 42t23.5 35t34.5 23.5t41.5 8.5t42 -8.5t35 -23.5t23.5 -35t8.5 -42 t-8.5 -41.5t-23.5 -34.5t-35 -23.5t-42 -8.5t-41.5 8.5t-34.5 23.5t-23.5 34.5t-8.5 41.5zM844 98q0 22 8.5 42t23.5 35t34.5 23.5t41.5 8.5t42 -8.5t35 -23.5t23.5 -35t8.5 -42t-8.5 -41.5t-23.5 -34.5t-35 -23.5t-42 -8.5t-41.5 8.5t-34.5 23.5t-23.5 34.5t-8.5 41.5z" />
<glyph unicode="&#x202f;" horiz-adv-x="319" />
<glyph unicode="&#x205f;" horiz-adv-x="399" />
<glyph unicode="&#x25fc;" horiz-adv-x="700" d="M0 0v700h700v-700h-700z" />
<glyph unicode="&#xf700;" horiz-adv-x="797" d="M-16 573q8 57 38 105t78.5 82.5t114 54t145.5 19.5q39 0 73.5 -5t66.5 -14q15 11 27 29t12 37h186q0 -23 -8.5 -43.5t-21.5 -37.5t-29.5 -30.5t-32.5 -21.5q56 -48 87.5 -120t31.5 -169q0 -122 -38.5 -213t-108 -149.5t-165 -84t-209.5 -16.5l-114 450l-37 66h201 l88 -354q42 6 79.5 30.5t65.5 64t44.5 92t16.5 114.5q0 52 -15.5 95t-43.5 73.5t-68 47.5t-88 17q-74 0 -128.5 -30t-77.5 -89h-170z" />
<glyph unicode="&#xf701;" d="M-956 922v110h624v-110h-624z" />
<glyph unicode="&#xf702;" d="M-944 922v110h448v105h177v-215h-625z" />
<glyph unicode="&#xf703;" d="M-944 922v110h407q0 25 9.5 46.5t27 36.5t41 23.5t51.5 8.5q57 0 93 -31.5t36 -81.5q0 -49 -36 -80.5t-93 -31.5h-536zM-455 1034q0 -18 13.5 -30.5t33.5 -12.5t34 12.5t14 30.5q0 19 -14 31t-34 12t-33.5 -12t-13.5 -31z" />
<glyph unicode="&#xf704;" d="M-944 922v110h272v105h115v-105h61v105h177v-215h-625z" />
<glyph unicode="&#xf705;" d="M-516 922v215h176v-215h-176z" />
<glyph unicode="&#xf706;" d="M-709 1022v113h148q63 0 92 -26.5t29 -76.5h243v-110h-419v39q0 29 -15.5 45t-46.5 16h-31z" />
<glyph unicode="&#xf707;" d="M-895 922v104q0 36 12.5 63t35 45.5t52 27.5t64.5 9h14l78 -53l74 53h18q34 0 63.5 -9t51 -26.5t34 -43.5t13.5 -60h96v-110h-211v96q0 45 -41 45h-10l-90 -62l-92 62h-4q-22 0 -31.5 -13.5t-9.5 -31.5v-4h61v-92h-178z" />
<glyph unicode="&#xf708;" d="M-666 1014v86h99v92h176v-92h98v-86h-98v-92h-176v92h-99z" />
<glyph unicode="&#xf709;" d="M-647 922v67q0 35 13 61t35 43.5t51 26t61 8.5h188v-122h-100q-32 0 -52 -18t-20 -46v-20h-176z" />
<glyph unicode="&#xf70a;" d="M-238 922v215h177v-215h-177z" />
<glyph unicode="&#xf70b;" d="M-465 1022v113h148q63 0 91.5 -26.5t28.5 -76.5h244v-110h-420v39q0 29 -15 45t-46 16h-31z" />
<glyph unicode="&#xf70c;" d="M-659 922v104q0 36 12.5 63t34.5 45.5t51.5 27.5t64.5 9h15l78 -53l73 53h19q69 0 114 -36t47 -103h97v-110h-211v96q0 45 -41 45h-10l-91 -62l-92 62h-4q-21 0 -31 -13.5t-10 -31.5v-4h62v-92h-178z" />
<glyph unicode="&#xf70d;" d="M-434 1014v86h98v92h176v-92h99v-86h-99v-92h-176v92h-98z" />
<glyph unicode="&#xf70e;" d="M-389 922v67q0 35 13 61t35 43.5t51 26t61 8.5h188v-122h-100q-32 0 -52 -18t-20 -46v-20h-176z" />
<glyph unicode="&#xf70f;" horiz-adv-x="1319" d="M39 592q10 59 43 104.5t83 76t113.5 46t135.5 15.5q73 0 139 -16t116 -49.5t79.5 -85.5t29.5 -124v-309q0 -35 13.5 -58.5t35 -37.5t48.5 -20.5t55 -6.5t55 6.5t48.5 20.5t34.5 37.5t13 58.5v569h176v-581q0 -73 -30.5 -122t-78.5 -78t-106 -41.5t-112 -12.5 q-55 0 -113 12.5t-106 41.5t-78.5 78t-30.5 122v309q0 37 -14 64t-39 44.5t-60 26t-77 8.5q-33 0 -62.5 -6t-53.5 -16.5t-41 -23.5t-26 -28q22 -14 42 -33t20 -40q0 -16 -8.5 -28.5t-18 -25t-18 -26.5t-8.5 -33v-289h106v-141h-283v430q0 18 10 30.5t22 23.5t22 21t10 23 q0 8 -13.5 19t-29.5 21q-19 11 -43 24z" />
<glyph unicode="&#xf710;" d="M-668 922v200h176v-90h510v-110h-686z" />
<glyph unicode="&#xf711;" d="M-541 1030q0 25 10 46.5t27.5 37.5t42 24.5t53.5 8.5t53.5 -8.5t42.5 -24.5t28 -37.5t10 -46.5q0 -51 -37.5 -84t-96.5 -33q-29 0 -53.5 9t-42 24.5t-27.5 37t-10 46.5zM-459 1030q0 -18 15 -31.5t36 -13.5q22 0 37 13.5t15 31.5q0 19 -15 32t-37 13q-21 0 -36 -13 t-15 -32z" />
<glyph unicode="&#xf712;" d="M-907 1053q0 33 13.5 63.5t40.5 53.5t67.5 37t93.5 14h426v-101h-406q-45 0 -71.5 -15t-26.5 -46q0 -14 6 -24t12 -15h68l176 76l209 -84v-119l-205 86l-160 -68l-167 2q-13 8 -26.5 20.5t-24.5 30t-18 40t-7 49.5z" />
<glyph unicode="&#xf713;" d="M-496 1198v174h177v-174h-177z" />
<glyph unicode="&#xf714;" d="M-659 1288v101h133q57 0 82.5 -24t25.5 -69h219v-98h-376v35q0 55 -56 55h-28z" />
<glyph unicode="&#xf715;" d="M-659 1198v94q0 32 11.5 56.5t31.5 41t46.5 25t57.5 8.5h14l70 -49l66 49h16q63 0 103 -32.5t42 -92.5h88v-100h-190v86q0 41 -37 41h-10l-80 -55l-84 55h-2q-20 0 -29.5 -12t-7.5 -29v-4h55v-82h-161z" />
<glyph unicode="&#xf716;" d="M-563 1270v78h78v71h159v-71h78v-78h-78v-72h-159v72h-78z" />
<glyph unicode="&#xf717;" d="M-571 1094v61q0 31 11.5 54.5t31 39.5t45.5 23.5t55 7.5h170v-111h-90q-29 0 -47.5 -16t-18.5 -41v-18h-157z" />
<glyph unicode="&#xf718;" d="M-319 -358h258v-267h-177v156h-81v111z" />
<glyph unicode="&#xf719;" d="M-549 -358h217v-131q0 -25 13 -36.5t34 -11.5q22 0 34.5 11.5t12.5 36.5v131h177v-131q0 -67 -56 -101.5t-162 -34.5q-112 0 -160 34.5t-48 101.5v20h-62v111z" />
<glyph unicode="&#xf71a;" d="M-291 -473q0 24 9 44.5t24.5 36.5t36.5 25t45 9t44.5 -9t36.5 -25t25 -36.5t9 -44.5t-9 -45t-25 -36.5t-36.5 -24.5t-44.5 -9t-45 9t-36.5 24.5t-24.5 36.5t-9 45z" />
<glyph unicode="&#xf71b;" />
<glyph unicode="&#xf71c;" />
<glyph unicode="&#xf71d;" />
<glyph unicode="&#xf880;" />
<glyph horiz-adv-x="481" d="M-541 1030q0 25 10 46.5t27.5 37.5t42 24.5t53.5 8.5t53.5 -8.5t42.5 -24.5t28 -37.5t10 -46.5q0 -51 -37.5 -84t-96.5 -33q-29 0 -53.5 9t-42 24.5t-27.5 37t-10 46.5zM-459 1030q0 -18 15 -31.5t36 -13.5q22 0 37 13.5t15 31.5q0 19 -15 32t-37 13q-21 0 -36 -13 t-15 -32zM10 674v143q85 14 160 7t130.5 -33.5t87.5 -72.5t32 -110v-608h-176v578q0 27 -16 48.5t-46 35t-73.5 17.5t-98.5 -5z" />
<glyph d="M-655 1034q-1 22 6 41.5t19.5 36.5t30 30.5t38.5 22.5q15 8 31.5 14t31.5 9q-12 11 -20 27.5t-8 39.5q0 19 9.5 40t27 40.5t42 36.5t54.5 29q38 14 88 21.5t96 10.5q54 4 109 3v-107q-34 1 -69 -1q-31 -2 -68 -5.5t-72 -11.5q-37 -10 -63.5 -25t-26.5 -31 q-1 -19 17.5 -27t41.5 -10q26 -3 61 -1v-95q-31 2 -62 1q-26 -1 -57 -4t-57 -11q-17 -5 -32 -12.5t-25.5 -16.5t-15.5 -19.5t-2 -21.5t21 -14.5t42.5 0t51.5 13t48 24.5l54 -90q-32 -17 -66 -29q-29 -11 -66 -18t-75 -2q-63 8 -98 40t-37 72z" />
<glyph />
<glyph />
<glyph d="M-944 922v110h272v105h115v-105h61v105h177v-215h-625zM-586 1198v174h176v-174h-176z" />
<glyph d="M-942 973v110h706v-110h-706z" />
<glyph d="M-942 973v110h530v105h176v-215h-706z" />
</font>
</defs>
</svg>
