<?xml version="1.0" standalone="no"?>
<!DOCTYPE svg PUBLIC "-//W3C//DTD SVG 1.1//EN" "http://www.w3.org/Graphics/SVG/1.1/DTD/svg11.dtd" >
<svg xmlns="http://www.w3.org/2000/svg">
<metadata></metadata>
<defs>
<font id="kittithada_bold_75regular" horiz-adv-x="0" >
<font-face units-per-em="2048" ascent="1638" descent="-410" />
<missing-glyph horiz-adv-x="512" />
<glyph unicode="&#xe37;&#xe48;" d="M-758 922v143h305v102h109v-102h61v102h201v-245h-676zM-365 1229v205h201v-205h-201z" />
<glyph unicode="&#xd;" horiz-adv-x="2048" />
<glyph unicode=" "  horiz-adv-x="512" />
<glyph unicode="&#x09;" horiz-adv-x="512" />
<glyph unicode="&#xa0;" horiz-adv-x="512" />
<glyph unicode="!" horiz-adv-x="369" d="M80 0v209h211v-209h-211zM86 698v267h199v-267l-54 -409h-94z" />
<glyph unicode="&#x22;" horiz-adv-x="616" d="M111 530v435h145v-435h-145zM360 530v435h144v-435h-144z" />
<glyph unicode="#" horiz-adv-x="750" d="M45 268v121h125l25 168h-111v121h125l39 268h129l-39 -268h141l35 268h129l-35 -268h99v-121h-115l-23 -168h97v-121h-115l-37 -268h-129l37 268h-137l-39 -268h-129l39 268h-111zM299 389h141l23 168h-139z" />
<glyph unicode="$" horiz-adv-x="799" d="M33 322h184q0 -149 143 -177v265l-28 8q-271 71 -271 278q0 129 93 209q83 74 206 80v107h78v-107q301 -30 301 -307h-186q-6 118 -115 139v-231q8 -2 24 -5.5t42 -11.5q66 -17 113.5 -41t78.5 -53q70 -70 70 -188q0 -131 -82 -213q-45 -45 -106 -68.5t-140 -28.5v-114 h-78v117q-72 6 -129 29t-102 65q-99 91 -96 248zM246 713q0 -64 114 -105v213q-114 -12 -114 -108zM438 141q142 14 142 121q0 45 -35.5 76t-106.5 51v-248z" />
<glyph unicode="%" horiz-adv-x="1253" d="M82 698q0 58 14.5 107.5t43 84.5t71 55t98.5 20q215 0 215 -273q0 -254 -223 -254q-219 0 -219 260zM217 694q0 -155 86 -155q88 0 88 155q0 170 -82 170q-92 0 -92 -170zM299 -31l551 1008h115l-549 -1008h-117zM729 248q0 58 14 106t42 82t70 53t97 19q217 0 217 -266 q0 -117 -53 -185q-57 -75 -168 -75q-219 0 -219 266zM862 246q0 -164 86 -164q88 0 88 162q0 164 -84 164q-90 0 -90 -162z" />
<glyph unicode="&#x26;" horiz-adv-x="915" d="M43 270q0 91 53.5 160.5t159.5 120.5q-90 110 -90 205q0 96 74 157q76 64 176 64q56 0 104 -15.5t83 -45.5t55 -73t20 -98q0 -152 -170 -241l123 -152q12 23 21 51.5t14 63.5h163q-12 -136 -90 -238l191 -229h-230l-79 96q-111 -114 -269 -114q-67 0 -123.5 20t-98 57.5 t-64.5 90.5t-23 120zM221 266q0 -25 11.5 -48t30.5 -40.5t44.5 -28t52.5 -10.5q85 0 162 86l-166 201q-135 -65 -135 -160zM336 762q0 -54 78 -144q98 66 98 138q0 18 -7 35t-19 29.5t-28 20t-34 7.5t-34 -6.5t-28 -18t-19 -27.5t-7 -34z" />
<glyph unicode="'" horiz-adv-x="373" d="M115 530v435h145v-435h-145z" />
<glyph unicode="(" horiz-adv-x="410" d="M72 412q0 339 176 616h158q-73 -137 -108.5 -291t-35.5 -325q0 -172 35.5 -326t108.5 -291h-158q-88 140 -132 292.5t-44 324.5z" />
<glyph unicode=")" horiz-adv-x="410" d="M0 -205q72 137 107.5 291t35.5 326q0 171 -35.5 325t-107.5 291h158q88 -139 132 -292t44 -324q0 -172 -44 -324.5t-132 -292.5h-158z" />
<glyph unicode="*" horiz-adv-x="551" d="M25 743l45 121l149 -67l-10 168h129l-10 -168l153 67l41 -121l-162 -45l107 -125l-107 -77l-88 143l-90 -145l-110 79l114 125z" />
<glyph unicode="+" horiz-adv-x="741" d="M51 268v146h246v245h145v-245h248v-146h-248v-248h-145v248h-246z" />
<glyph unicode="," horiz-adv-x="367" d="M76 -127q21 4 39 16t31 29t20 38.5t6 43.5h-90v209h203v-209q0 -45 -15.5 -83.5t-43.5 -67.5t-66.5 -48t-83.5 -26v98z" />
<glyph unicode="-" horiz-adv-x="543" d="M70 287v164h401v-164h-401z" />
<glyph unicode="." horiz-adv-x="367" d="M82 0v209h203v-209h-203z" />
<glyph unicode="/" horiz-adv-x="494" d="M-16 -23l374 1010h152l-375 -1010h-151z" />
<glyph unicode="0" horiz-adv-x="741" d="M27 477q0 488 342 488q346 0 346 -488q0 -495 -346 -495q-342 0 -342 495zM215 477q0 -338 154 -338q155 0 155 338q0 330 -155 330q-154 0 -154 -330z" />
<glyph unicode="1" horiz-adv-x="741" d="M98 616v142q243 -3 271 188h153v-946h-188v616h-236z" />
<glyph unicode="2" horiz-adv-x="741" d="M27 0q-6 168 118 289q8 8 68 52t172 126q66 48 98.5 94.5t32.5 91.5q0 68 -35.5 108t-95.5 40q-87 0 -127 -70q-37 -58 -31 -145h-180q-9 165 82 272t256 107q132 0 225 -78q95 -83 95 -217q0 -63 -22 -118t-67 -101q-20 -23 -66 -57.5t-118 -82.5q-121 -80 -162 -145 h443v-166h-686z" />
<glyph unicode="3" horiz-adv-x="741" d="M25 319h178q6 -180 164 -180q33 0 60.5 11t48 30.5t31.5 47t11 61.5q0 94 -72 123q-20 8 -55 12t-86 4v135q197 -15 197 119q0 28 -10.5 51.5t-28.5 39.5t-42.5 25t-51.5 9q-68 0 -106 -46t-38 -120h-178q2 73 26 133t66 102.5t100.5 65.5t129.5 23q122 0 213 -68 q100 -73 100 -195q0 -154 -133 -192v-4q37 -9 68 -28.5t53.5 -47t34.5 -62.5t12 -75q0 -145 -101 -227q-101 -84 -247 -84q-79 0 -143 22.5t-109 66t-69 106t-23 142.5z" />
<glyph unicode="4" horiz-adv-x="741" d="M23 217v176l403 553h170v-571h123v-158h-123v-217h-180v217h-393zM178 375h238v321h-4z" />
<glyph unicode="5" horiz-adv-x="741" d="M25 279h188q6 -62 48 -101t104 -39q36 0 65.5 14.5t51 39.5t33 58.5t11.5 70.5q0 39 -11 71.5t-32 56.5t-51 37t-67 13q-90 0 -142 -76h-170l82 522h527v-158h-388l-30 -215l2 -2q72 72 184 72q67 0 120 -24t90 -67t57 -101.5t20 -128.5q0 -147 -101 -244 q-101 -96 -247 -96q-144 0 -238 75q-53 41 -78.5 95.5t-27.5 126.5z" />
<glyph unicode="6" horiz-adv-x="741" d="M29 471q0 201 84 336q99 158 282 158q61 0 113.5 -17.5t92.5 -50.5t65 -81t32 -109h-180q-4 24 -14.5 44.5t-27 36t-37.5 24.5t-46 9q-91 0 -141 -104q-19 -38 -28 -84.5t-11 -100.5l2 -2q73 105 213 105q62 0 114.5 -22.5t91 -63.5t60 -97.5t21.5 -123.5 q0 -147 -92 -248q-45 -50 -104.5 -74t-131.5 -24q-193 0 -285 155q-73 125 -73 334zM231 315q0 -35 11 -66.5t31 -56t48 -39t62 -14.5q65 0 104 56q37 47 37 116q0 37 -9.5 70t-27.5 57.5t-44 39t-60 14.5q-36 0 -64.5 -13.5t-48 -37.5t-29.5 -56.5t-10 -69.5z" />
<glyph unicode="7" horiz-adv-x="741" d="M53 768v178h635v-166q-69 -60 -124.5 -149.5t-100.5 -208.5q-38 -110 -58 -214.5t-22 -207.5h-201q25 427 305 768h-434z" />
<glyph unicode="8" horiz-adv-x="741" d="M16 276q0 190 177 234v2q-138 40 -138 195q0 60 25 108.5t76 83.5q45 32 98.5 49t116.5 17q156 0 245 -93q36 -37 53 -76.5t17 -84.5q0 -149 -137 -201q176 -44 176 -231q0 -72 -27.5 -127t-81.5 -97q-97 -73 -243 -73q-150 0 -248 71q-109 80 -109 223zM205 287 q0 -37 13.5 -67t36 -51t53 -32.5t65.5 -11.5q34 0 64 11.5t51.5 32.5t34 50.5t12.5 65.5q0 33 -12.5 60.5t-34.5 48t-51.5 31.5t-63.5 11q-36 0 -67 -10.5t-53.5 -29.5t-35 -47t-12.5 -62zM227 690q0 -61 45 -94q40 -31 99 -31q60 0 100.5 32.5t40.5 92.5q0 131 -143 131 q-30 0 -56 -9t-45 -26t-30 -41t-11 -55z" />
<glyph unicode="9" horiz-adv-x="741" d="M27 618q0 148 90 246q91 101 237 101q193 0 285 -156q74 -127 74 -334q0 -199 -84 -336q-100 -157 -283 -157q-62 0 -114.5 17t-92 50t-64.5 81t-32 110h180q8 -48 42 -81.5t83 -33.5q93 0 141 104q19 39 28 85t11 100l-2 2q-74 -105 -213 -105q-62 0 -114.5 22.5 t-90.5 63.5t-59.5 97t-21.5 124zM217 635q0 -73 35 -123q39 -57 106 -57q36 0 64.5 13.5t48 37.5t29.5 56t10 69q0 34 -11 66t-31 56.5t-48 39t-62 14.5q-32 0 -57.5 -14t-44.5 -38t-29 -55t-10 -65z" />
<glyph unicode=":" horiz-adv-x="367" d="M82 0v209h203v-209h-203zM82 479v207h203v-207h-203z" />
<glyph unicode=";" horiz-adv-x="367" d="M76 -127q21 4 39 16t31 29t20 38.5t6 43.5h-90v209h203v-209q0 -45 -15.5 -83.5t-43.5 -67.5t-66.5 -48t-83.5 -26v98zM82 479v207h203v-207h-203z" />
<glyph unicode="&#x3c;" horiz-adv-x="741" d="M51 262v160l639 272v-155l-452 -197l452 -197v-155z" />
<glyph unicode="=" horiz-adv-x="741" d="M51 125v143h639v-143h-639zM51 414v145h639v-145h-639z" />
<glyph unicode="&#x3e;" horiz-adv-x="741" d="M51 -10v155l451 197l-451 197v155l639 -272v-160z" />
<glyph unicode="?" horiz-adv-x="741" d="M43 657q0 74 23.5 134.5t66 104t101.5 67.5t131 24q166 0 260 -86q73 -73 73 -174q0 -110 -63 -182q0 -1 -115 -101q-63 -50 -63 -116v-39h-181v61q0 89 56 154l102 96q53 53 53 109q0 120 -116 120q-33 0 -59 -13t-43 -36t-25.5 -54.5t-5.5 -68.5h-195zM256 0v209h211 v-209h-211z" />
<glyph unicode="@" horiz-adv-x="1081" d="M49 483q0 215 150 359q151 145 364 145q191 0 330 -115q139 -113 139 -297t-127 -299q-98 -92 -190 -92q-96 0 -99 76h-2q-46 -78 -147 -78q-85 0 -150 68q-61 70 -61 164q0 134 80 235q86 109 215 109q118 0 158 -94l20 73h113l-86 -350q-22 -88 12 -88q58 0 109 72 q51 73 51 176q0 156 -107 248q-101 86 -260 86q-171 0 -278 -115q-105 -114 -105 -287q0 -191 113 -295q107 -98 287 -98t290 111h113q-145 -220 -412 -220q-226 0 -368 132q-152 138 -152 374zM393 432q0 -54 29.5 -87.5t77.5 -33.5q70 0 118 68q48 63 48 135q0 25 -8.5 46 t-22.5 37t-33.5 25t-40.5 9q-70 0 -119 -64q-49 -66 -49 -135z" />
<glyph unicode="A" horiz-adv-x="911" d="M-10 0l360 965h215l357 -965h-217l-74 215h-348l-76 -215h-217zM332 373h246l-119 356h-2z" />
<glyph unicode="B" horiz-adv-x="942" d="M92 0v965h443q313 0 313 -240q0 -137 -129 -201q172 -48 172 -243q0 -139 -103 -213q-89 -68 -231 -68h-465zM301 166h231q152 0 152 127q0 137 -152 137h-231v-264zM301 573h215q127 0 127 117q0 111 -135 111h-207v-228z" />
<glyph unicode="C" horiz-adv-x="991" d="M51 479q0 220 127 365q125 143 342 143q82 0 150 -22.5t125 -67.5q60 -48 94 -113.5t43 -146.5h-201q-5 37 -23.5 69t-47 54.5t-64.5 35.5t-76 13q-66 0 -115.5 -25.5t-85.5 -76.5q-29 -45 -44 -102t-15 -126q0 -68 15 -123t44 -100q71 -100 201 -100q192 0 219 211h201 q-8 -90 -41.5 -162t-88 -123t-128.5 -78t-162 -27q-214 0 -344 148q-125 137 -125 354z" />
<glyph unicode="D" horiz-adv-x="991" d="M92 0v965h414q196 0 309 -119q123 -126 123 -359q0 -218 -104 -348q-115 -139 -326 -139h-416zM301 178h191q100 0 163 66q74 73 74 223q0 319 -272 319h-156v-608z" />
<glyph unicode="E" horiz-adv-x="868" d="M92 0v965h721v-179h-512v-206h469v-164h-469v-238h512v-178h-721z" />
<glyph unicode="F" horiz-adv-x="791" d="M92 0v965h670v-179h-461v-223h404v-164h-404v-399h-209z" />
<glyph unicode="G" horiz-adv-x="1014" d="M51 479q0 220 127 365q125 143 342 143q157 0 266 -88q119 -94 136 -252h-199q-31 162 -203 162q-66 0 -115.5 -25.5t-85.5 -76.5q-29 -45 -44 -102t-15 -126q0 -68 15 -123t44 -100q71 -100 201 -100q212 0 228 209h-213v157h403v-522h-133l-23 109q-99 -132 -262 -132 q-225 0 -352 148q-117 135 -117 354z" />
<glyph unicode="H" horiz-adv-x="991" d="M92 0v965h209v-371h389v371h209v-965h-209v416h-389v-416h-209z" />
<glyph unicode="I" horiz-adv-x="397" d="M94 0v965h209v-965h-209z" />
<glyph unicode="J" horiz-adv-x="748" d="M18 276v84h189v-45q0 -159 127 -159q115 0 115 157v652h206v-662q0 -326 -319 -326q-132 0 -217 70q-101 79 -101 229z" />
<glyph unicode="K" horiz-adv-x="967" d="M92 0v965h209v-400l375 400h262l-371 -381l406 -584h-262l-281 428l-129 -131v-297h-209z" />
<glyph unicode="L" horiz-adv-x="793" d="M92 0v965h209v-787h467v-178h-676z" />
<glyph unicode="M" horiz-adv-x="1212" d="M92 0v965h293l225 -666h2l213 666h295v-965h-196v686h-2l-234 -686h-166l-231 680h-2v-680h-197z" />
<glyph unicode="N" horiz-adv-x="991" d="M92 0v965h209l399 -650h2v650h197v-965h-211l-397 647h-2v-647h-197z" />
<glyph unicode="O" horiz-adv-x="1038" d="M51 479q0 220 127 365q125 143 342 143q109 0 194.5 -36.5t151.5 -108.5q123 -141 123 -363q0 -216 -123 -354q-66 -74 -151.5 -111t-194.5 -37q-214 0 -344 148q-125 137 -125 354zM260 479q0 -68 15 -123t44 -100q71 -100 201 -100q132 0 201 100q59 89 59 223 q0 137 -59 228q-35 51 -85 76.5t-116 25.5t-115.5 -25.5t-85.5 -76.5q-29 -45 -44 -102t-15 -126z" />
<glyph unicode="P" horiz-adv-x="887" d="M92 0v965h426q167 0 256 -99q76 -82 76 -215q0 -132 -76 -215q-89 -98 -256 -98h-217v-338h-209zM301 502h166q180 0 180 149q0 150 -180 150h-166v-299z" />
<glyph unicode="Q" horiz-adv-x="1038" d="M51 479q0 220 127 365q125 143 342 143q109 0 194.5 -36.5t151.5 -108.5q123 -141 123 -363q0 -215 -123 -356l119 -109l-98 -104l-135 123q-100 -56 -232 -56q-214 0 -344 148q-125 137 -125 354zM260 479q0 -68 15 -123t44 -100q71 -100 201 -100q71 0 86 12l-90 84 l96 104l111 -100q29 43 43 98.5t14 124.5q0 137 -59 228q-35 51 -85 76.5t-116 25.5t-115.5 -25.5t-85.5 -76.5q-29 -45 -44 -102t-15 -126z" />
<glyph unicode="R" horiz-adv-x="963" d="M92 0v965h512q65 0 117.5 -20.5t89 -56.5t56.5 -85t20 -105q0 -179 -152 -241v-2q128 -31 142 -226l6 -116q5 -41 12 -68.5t18 -44.5h-206q-17 39 -23 109l-12 122q-6 39 -17.5 67t-30.5 45.5t-46 25.5t-64 8h-213v-377h-209zM301 528h231q146 0 146 138q0 135 -146 135 h-231v-273z" />
<glyph unicode="S" horiz-adv-x="864" d="M33 314v8h200q0 -92 64 -138q60 -43 147 -43q185 0 185 121q0 67 -84 105q-17 8 -63 20t-124 31q-292 71 -292 278q0 138 110 217q98 74 244 74q162 0 264 -72q117 -80 117 -237h-203q-9 145 -188 145q-58 0 -97 -26q-47 -33 -47 -84q0 -54 66 -82q23 -11 76 -26.5 t137 -35.5q72 -17 124.5 -41t86.5 -53q75 -69 75 -188q0 -140 -100 -221q-107 -89 -295 -89q-172 0 -280 84q-123 91 -123 253z" />
<glyph unicode="T" horiz-adv-x="813" d="M16 786v179h783v-179h-289v-786h-207v786h-287z" />
<glyph unicode="U" horiz-adv-x="987" d="M88 365v600h209v-600q0 -209 197 -209q54 0 92 12t62 37.5t35 65t11 94.5v600h207v-600q0 -388 -407 -388q-406 0 -406 388z" />
<glyph unicode="V" horiz-adv-x="844" d="M-10 965h217l213 -680h2l215 680h217l-317 -965h-236z" />
<glyph unicode="W" horiz-adv-x="1257" d="M4 965h209l149 -660h3l163 660h201l160 -664h2l153 664h209l-254 -965h-211l-159 659h-4l-156 -659h-215z" />
<glyph unicode="X" horiz-adv-x="889" d="M-8 0l334 506l-308 459h236l190 -308l191 308h235l-307 -459l334 -506h-235l-218 344l-217 -344h-235z" />
<glyph unicode="Y" horiz-adv-x="887" d="M-12 965h231l227 -400l222 400h231l-352 -596v-369h-209v373z" />
<glyph unicode="Z" horiz-adv-x="868" d="M31 0v168l516 618h-484v179h760v-168l-516 -619h529v-178h-805z" />
<glyph unicode="[" horiz-adv-x="444" d="M92 -205v1233h352v-149h-161v-932h161v-152h-352z" />
<glyph unicode="\" horiz-adv-x="494" d="M-16 987h151l375 -1010h-152z" />
<glyph unicode="]" horiz-adv-x="444" d="M0 -53h162v932h-162v149h350v-1233h-350v152z" />
<glyph unicode="^" horiz-adv-x="799" d="M70 426l241 520h176l242 -520h-162l-168 379l-168 -379h-161z" />
<glyph unicode="_" horiz-adv-x="676" d="M0 -102h676v-88h-676v88z" />
<glyph unicode="`" horiz-adv-x="344" d="M-66 977h213l127 -193h-133z" />
<glyph unicode="a" horiz-adv-x="764" d="M43 190q0 180 233 213q76 11 115 16t41 7q68 18 68 70q0 94 -123 94q-113 0 -125 -109h-186q9 236 317 236q307 0 307 -205v-391q0 -100 25 -121h-193q-14 22 -14 68q-79 -86 -232 -86q-51 0 -94 13t-74 39.5t-48 65.5t-17 90zM231 199q0 -90 115 -90q154 0 154 161v72 q-24 -22 -97 -31q-45 -8 -73.5 -14t-42.5 -12q-56 -26 -56 -86z" />
<glyph unicode="b" horiz-adv-x="817" d="M72 0v965h188v-347h4q32 50 87 74.5t130 24.5q116 0 195 -88q92 -103 92 -279q0 -179 -92 -280q-40 -45 -90.5 -66.5t-110.5 -21.5q-160 0 -221 104h-2v-86h-180zM254 348q0 -48 9.5 -86t29.5 -67q45 -70 125 -70q78 0 123 70q20 31 30.5 69t10.5 84q0 48 -11 89.5 t-32 71.5t-51.5 47t-69.5 17q-40 0 -70.5 -17t-51.5 -47t-31.5 -71.5t-10.5 -89.5z" />
<glyph unicode="c" horiz-adv-x="768" d="M51 340q0 83 24 152t69.5 119t111 78t147.5 28q67 0 122 -17t100 -49q97 -73 106 -200h-186q-20 122 -142 122q-84 0 -127 -73q-36 -65 -36 -154q0 -87 34 -147q44 -74 125 -74q131 0 152 141h184q-9 -68 -36.5 -121t-70.5 -89t-101 -55t-128 -19q-77 0 -139.5 24.5 t-112.5 75.5q-96 104 -96 258z" />
<glyph unicode="d" horiz-adv-x="817" d="M43 356q0 76 20 137.5t58 112.5q82 111 227 111q143 0 209 -96h2v344h186v-965h-178v88h-2q-63 -106 -213 -106q-149 0 -231 114q-38 53 -58 117.5t-20 142.5zM231 350q0 -46 10.5 -84t30.5 -69q47 -72 127 -72q166 0 166 227q0 221 -166 221q-168 0 -168 -223z" />
<glyph unicode="e" horiz-adv-x="768" d="M39 348q0 160 98 264q102 105 254 105q172 0 264 -127q75 -99 75 -245q0 -20 -1 -42h-502q6 -178 172 -178q27 0 50.5 7.5t42 20.5t31 30t18.5 36h176q-59 -237 -326 -237q-80 0 -145 26.5t-111 74.5t-71 115.5t-25 149.5zM227 424h312q-16 149 -152 149q-78 0 -125 -53 q-32 -41 -35 -96z" />
<glyph unicode="f" horiz-adv-x="455" d="M0 571v127h113v56q0 47 16 86t46 66.5t73.5 43t99.5 15.5q34 0 61.5 -1t47.5 -3v-144q-23 2 -42 3t-36 1q-76 0 -76 -78v-45h135v-127h-135v-571h-190v571h-113z" />
<glyph unicode="g" horiz-adv-x="817" d="M51 371q0 73 20 136.5t58.5 110t93.5 73t125 26.5q148 0 207 -105h4v86h180v-653q0 -309 -362 -309q-59 0 -109 12.5t-92 38.5q-98 62 -104 172h188q24 -96 143 -96q156 0 156 174v88h-4q-59 -105 -209 -105q-146 0 -223 103q-72 93 -72 248zM240 375q0 -85 34 -142 q40 -67 121 -67q76 0 123 59q41 53 41 133q0 215 -164 215q-38 0 -66.5 -15t-48.5 -42t-30 -63t-10 -78z" />
<glyph unicode="h" horiz-adv-x="793" d="M72 0v965h188v-351h4q65 103 205 103t203 -78q51 -66 51 -209v-430h-191v395q0 172 -122 172q-150 0 -150 -200v-367h-188z" />
<glyph unicode="i" horiz-adv-x="346" d="M78 0v698h190v-698h-190zM78 805v160h190v-160h-190z" />
<glyph unicode="j" horiz-adv-x="389" d="M-27 -82q31 -6 54 -6q82 0 82 61v725h190v-729q0 -59 -12 -100t-41 -66.5t-76.5 -37t-118.5 -11.5q-47 0 -78 6v158zM109 805v160h190v-160h-190z" />
<glyph unicode="k" horiz-adv-x="768" d="M88 0v965h191v-519l241 252h223l-260 -256l289 -442h-227l-187 305l-79 -84v-221h-191z" />
<glyph unicode="l" horiz-adv-x="346" d="M78 0v965h190v-965h-190z" />
<glyph unicode="m" horiz-adv-x="1210" d="M76 0v698h180v-94h2q64 113 213 113q148 0 201 -115q50 115 211 115q252 0 252 -250v-467h-191v399q0 84 -18 117q-25 51 -97 51q-129 0 -129 -174v-393h-190v395q0 90 -12 117q-22 55 -103 55q-48 0 -86 -35q-43 -46 -43 -122v-410h-190z" />
<glyph unicode="n" horiz-adv-x="793" d="M72 0v698h180v-96h4q59 115 213 115q254 0 254 -287v-430h-191v395q0 172 -122 172q-150 0 -150 -198v-369h-188z" />
<glyph unicode="o" horiz-adv-x="817" d="M51 348q0 84 25.5 152t72.5 116t112.5 74.5t146.5 26.5t147 -26.5t113 -74.5t72.5 -116t25.5 -152q0 -83 -25.5 -150.5t-72.5 -115.5t-113 -74t-147 -26t-146.5 25.5t-112.5 72.5t-72.5 115t-25.5 153zM240 348q0 -223 168 -223q170 0 170 223q0 225 -170 225 q-168 0 -168 -225z" />
<glyph unicode="p" horiz-adv-x="817" d="M72 -246v944h180v-88h2q64 107 209 107q155 0 237 -113q39 -51 57.5 -116t18.5 -146q0 -75 -18.5 -137t-57.5 -113q-82 -110 -227 -110t-209 96h-4v-324h-188zM254 348q0 -223 168 -223q166 0 166 223q0 92 -39 154q-47 71 -129 71q-166 0 -166 -225z" />
<glyph unicode="q" horiz-adv-x="817" d="M43 344q0 79 20 143.5t58 116.5q82 113 231 113q152 0 213 -107h2v88h178v-944h-186v326h-4q-64 -98 -217 -98q-114 0 -197 79q-98 100 -98 283zM231 348q0 -223 166 -223q168 0 168 221q0 93 -37 154q-45 73 -127 73q-85 0 -131 -69q-39 -59 -39 -156z" />
<glyph unicode="r" horiz-adv-x="518" d="M72 0v698h180v-129h2q62 146 213 146q11 0 23 -1t24 -3v-179q-12 4 -28.5 5.5t-36.5 1.5q-189 0 -189 -228v-311h-188z" />
<glyph unicode="s" horiz-adv-x="715" d="M39 231h178q6 -122 145 -122q125 0 125 90q0 39 -49 63q-20 9 -53.5 18.5t-83.5 18.5q-246 46 -246 203q0 109 92 168q41 23 91 35t112 12q289 0 307 -221h-180q-9 94 -129 94q-104 0 -104 -66q0 -45 67 -69q16 -7 52.5 -15.5t95.5 -19.5q217 -43 217 -195 q0 -125 -98 -190q-85 -53 -216 -53q-138 0 -221 55q-99 64 -102 194z" />
<glyph unicode="t" horiz-adv-x="471" d="M8 571v127h115v211h188v-211h142v-127h-142v-346q0 -56 25 -71q16 -11 55 -11q33 0 62 7v-152q-50 -6 -115 -6q-215 0 -215 170v409h-115z" />
<glyph unicode="u" horiz-adv-x="793" d="M72 268v430h188v-401q0 -164 123 -164q149 0 149 197v368h191v-698h-180v86h-4q-64 -104 -213 -104q-142 0 -203 79q-26 32 -38.5 84t-12.5 123z" />
<glyph unicode="v" horiz-adv-x="696" d="M6 698h193l149 -485h2l148 485h192l-233 -698h-215z" />
<glyph unicode="w" horiz-adv-x="1087" d="M8 698h199l129 -475l119 475h182l119 -475h2l123 475h198l-215 -698h-198l-121 473h-4l-117 -473h-199z" />
<glyph unicode="x" horiz-adv-x="717" d="M0 0l252 369l-229 329h210l125 -184l125 184h211l-229 -329l252 -369h-211l-148 225l-147 -225h-211z" />
<glyph unicode="y" horiz-adv-x="696" d="M-8 698h198l158 -473h2l150 473h205l-285 -786q-59 -158 -246 -158q-60 0 -115 6v162q20 -5 37.5 -7.5t34.5 -2.5q111 0 111 86q0 11 -2 22t-7 23z" />
<glyph unicode="z" horiz-adv-x="694" d="M31 0v145l368 410h-348v143h588v-143l-367 -410h392v-145h-633z" />
<glyph unicode="{" horiz-adv-x="477" d="M20 352v119q20 0 40 6.5t38 20.5q23 17 34 41t11 53v254q0 51 17.5 88.5t52.5 60.5q25 17 55.5 25t65.5 8h143v-151h-67q-78 0 -78 -99v-205q0 -138 -131 -159v-4q23 -2 43 -10.5t37 -22.5q51 -41 51 -115v-217q0 -98 78 -98h67v-152h-143q-35 0 -65.5 8t-55.5 25 q-70 46 -70 149v265q0 56 -45 86q-36 24 -78 24z" />
<glyph unicode="|" horiz-adv-x="301" d="M78 -23v1010h143v-1010h-143z" />
<glyph unicode="}" horiz-adv-x="477" d="M0 -53h68q77 0 77 98v217q0 75 52 115q17 14 36.5 22.5t42.5 10.5v4q-131 21 -131 159v205q0 99 -77 99h-68v151h143q35 0 65.5 -8t55.5 -25q35 -23 52.5 -60.5t17.5 -88.5v-254q0 -29 11 -53t34 -41q18 -14 38 -20.5t40 -6.5v-119q-42 0 -78 -24q-45 -30 -45 -86v-265 q0 -103 -70 -149q-25 -17 -55.5 -25t-65.5 -8h-143v152z" />
<glyph unicode="~" horiz-adv-x="799" d="M88 344q65 115 168 115q62 0 152 -45q45 -23 78 -34t53 -11q71 0 116 96l56 -125q-71 -117 -168 -117q-61 0 -154 45q-89 47 -125 47q-78 0 -121 -98z" />
<glyph unicode="&#xa4;" horiz-adv-x="840" d="M8 164l148 145q-62 83 -62 193q0 114 62 188l-148 150l76 71l145 -145q79 59 193 59q55 0 105.5 -16t82.5 -43l150 145l71 -71l-145 -150q59 -79 59 -188q0 -114 -59 -193l145 -145l-71 -76l-150 148q-15 -13 -36 -23.5t-47 -20.5q-53 -18 -105 -18q-110 0 -193 62 l-145 -148zM197 502q0 -94 63 -164q65 -68 162 -68q92 0 158 68q63 63 63 164q0 46 -16.5 87t-45.5 72t-70 49.5t-89 18.5q-96 0 -160 -67q-65 -73 -65 -160z" />
<glyph unicode="&#xa9;" horiz-adv-x="1081" d="M23 483q0 224 155 367q150 137 363 137t362 -137q156 -143 156 -367q0 -225 -156 -368q-150 -138 -362 -138t-363 138q-155 143 -155 368zM160 483q0 -170 108 -284q110 -113 273 -113q160 0 270 113q111 112 111 284q0 170 -113 283q-112 115 -268 115q-161 0 -273 -115 q-108 -116 -108 -283zM268 485q0 67 20 123t57.5 96t91 62t120.5 22q48 0 89.5 -14t73.5 -41t53 -66t28 -89h-105q-21 102 -139 102q-37 0 -66 -14t-49.5 -39.5t-31.5 -61t-11 -78.5q0 -41 11.5 -76t32.5 -61.5t50.5 -41.5t65.5 -15q125 0 137 106h109q-7 -49 -29 -89 t-55 -68t-74.5 -43t-87.5 -15q-65 0 -118.5 23t-91.5 63t-59.5 95t-21.5 120z" />
<glyph unicode="&#xab;" horiz-adv-x="592" d="M57 276v183l209 170v-166l-121 -94l121 -99v-164zM328 276v183l209 170v-166l-121 -94l121 -99v-164z" />
<glyph unicode="&#xac;" horiz-adv-x="741" d="M42 297v90h656v-268h-82v178h-574z" />
<glyph unicode="&#xad;" horiz-adv-x="741" d="M51 268v146h639v-146h-639z" />
<glyph unicode="&#xae;" horiz-adv-x="1081" d="M23 483q0 224 155 367q150 137 363 137t362 -137q156 -143 156 -367q0 -225 -156 -368q-150 -138 -362 -138t-363 138q-155 143 -155 368zM160 483q0 -170 108 -284q110 -113 273 -113q160 0 270 113q111 112 111 284q0 170 -113 283q-112 115 -268 115q-161 0 -273 -115 q-108 -116 -108 -283zM340 201v567h213q221 0 221 -168q0 -142 -147 -151l149 -248h-117l-137 241h-71v-241h-111zM451 530h100q111 0 111 80q0 70 -115 70h-96v-150z" />
<glyph unicode="&#xb0;" horiz-adv-x="541" d="M66 713q0 40 15.5 77t42.5 64.5t63.5 44t78.5 16.5q43 0 80.5 -16t65 -43t43.5 -64t16 -79t-16 -79t-43.5 -64.5t-65 -43.5t-80.5 -16q-41 0 -77 15.5t-63.5 43t-43.5 64.5t-16 80zM121 713q0 -30 11.5 -57t31 -47t46 -32t56.5 -12q61 0 105 43q45 46 45 105 q0 30 -12 56.5t-32.5 46t-47.5 31t-58 11.5t-57.5 -11t-46 -30.5t-30.5 -46t-11 -57.5z" />
<glyph unicode="&#xb6;" horiz-adv-x="727" d="M0 858q0 153 94 229q90 66 248 66h389v-41h-102v-1356h-62v1356h-145v-1356h-55v805q-168 0 -263 62q-104 74 -104 235z" />
<glyph unicode="&#xb7;" horiz-adv-x="338" d="M96 449q0 30 20.5 50.5t53.5 20.5q31 0 51.5 -21.5t20.5 -49.5q0 -31 -21.5 -52.5t-50.5 -21.5q-33 0 -53.5 20.5t-20.5 53.5z" />
<glyph unicode="&#xbb;" horiz-adv-x="592" d="M55 106v164l121 99l-121 94v166l209 -170v-183zM326 106v164l120 99l-120 94v166l209 -170v-183z" />
<glyph unicode="&#xd7;" horiz-adv-x="741" d="M49 125l217 217l-217 217l103 103l217 -218l219 220l102 -105l-219 -217l219 -219l-102 -103l-219 220l-217 -220z" />
<glyph unicode="&#xf7;" horiz-adv-x="741" d="M51 268v146h639v-146h-639zM258 59q0 24 9 44.5t25 36t36 24t43 8.5q24 0 44.5 -8.5t35.5 -24t23.5 -36t8.5 -44.5q0 -22 -8.5 -42.5t-23.5 -36t-35.5 -24.5t-44.5 -9q-23 0 -43 9t-36 24.5t-25 36t-9 42.5zM258 625q0 24 9 44.5t25 35.5t36 23.5t43 8.5q48 0 80 -32 t32 -80q0 -23 -8.5 -43t-23.5 -36t-35.5 -25t-44.5 -9q-23 0 -43 9t-36 25t-25 36t-9 43z" />
<glyph unicode="&#xe00;" horiz-adv-x="205" />
<glyph unicode="&#xe01;" horiz-adv-x="872" d="M82 0v666q126 168 354 168q78 0 143 -19t112 -55.5t73.5 -89.5t26.5 -121v-549h-201v535q0 30 -12 54t-33.5 41t-51 26.5t-63.5 9.5q-101 0 -147 -60v-606h-201z" />
<glyph unicode="&#xe02;" horiz-adv-x="805" d="M41 324q0 42 12.5 81t38.5 76q23 34 51 60t62 43l-117 135l166 115l190 -246q-206 -99 -206 -264q0 -70 38 -115q46 -55 119 -55q28 0 51 9.5t40 26t26.5 38.5t9.5 46v545h201v-536q0 -128 -94 -213q-93 -84 -234 -84q-152 0 -254 96q-100 94 -100 242z" />
<glyph unicode="&#xe03;" horiz-adv-x="815" d="M-2 707l102 122q43 -22 66 -55l57 45h180v-258q-155 -94 -155 -237q0 -70 39 -115q45 -55 119 -55q27 0 50.5 9.5t40 26t26 38.5t9.5 46v545h201v-536q0 -128 -94 -213q-92 -84 -233 -84q-154 0 -254 96q-101 94 -101 242q0 83 51 157q23 34 51 60t62 43v80l-74 -54 q-9 11 -18.5 20t-20.5 17q-48 40 -104 60z" />
<glyph unicode="&#xe04;" horiz-adv-x="893" d="M82 0v539q0 65 25.5 117t76.5 94q107 84 262 84q157 0 261 -84t104 -211v-539h-201v551q0 51 -44.5 83t-119.5 32q-74 0 -118.5 -32t-44.5 -83v-68h225v-164h-225v-319h-201z" />
<glyph unicode="&#xe05;" horiz-adv-x="918" d="M82 0v549q0 116 68 188q70 83 206 97l103 -84l104 84q66 -7 117 -30t88 -65q68 -77 68 -190v-549h-201v553q0 77 -68 98l-102 -94l-115 94q-67 -21 -67 -98v-70h249v-164h-249v-319h-201z" />
<glyph unicode="&#xe06;" horiz-adv-x="885" d="M-6 707l102 122q41 -21 66 -55l57 45h187v-215q0 -40 -58 -86q-55 -43 -55 -80v-147q0 -56 55 -98q58 -43 119 -43q30 0 55 9t42.5 25t27.5 37.5t10 46.5v551h201v-575q0 -60 -20 -109t-62 -84q-74 -65 -178 -65q-161 0 -250 116v-102h-201v449q0 43 60 88q59 43 59 77 v50l-74 -54q-9 11 -18.5 20t-20.5 17q-48 40 -104 60z" />
<glyph unicode="&#xe07;" horiz-adv-x="811" d="M-8 819h201l149 -647q110 -3 170 66q55 61 55 163q0 250 -272 238v182q15 2 30 2h29q416 0 416 -422q0 -94 -32.5 -170t-93.5 -129.5t-148.5 -82.5t-198.5 -29q-26 0 -55 1.5t-58 6.5z" />
<glyph unicode="&#xe08;" horiz-adv-x="827" d="M-6 674q81 80 178 120t213 40q179 0 291 -115q110 -113 110 -293q0 -185 -120 -307q-128 -125 -351 -125h-30.5t-32.5 2l-74 344h-90v164h254l68 -332q37 7 69.5 31t56.5 59t38 77.5t14 86.5q0 99 -62 164q-69 72 -178 72q-145 0 -233 -113z" />
<glyph unicode="&#xe09;" horiz-adv-x="842" d="M29 305v164h258v-209q0 -106 106 -106q66 0 117 45q53 45 53 98v225q0 63 -42.5 103.5t-114.5 40.5q-135 0 -168 -117h-189q11 69 44.5 124t88.5 93q51 34 108.5 51t123.5 17q146 0 241 -74q105 -80 105 -209v-469l28 -82h-225v102q-77 -116 -221 -116q-109 0 -172 57 q-78 69 -78 195v67h-63z" />
<glyph unicode="&#xe0a;" horiz-adv-x="809" d="M82 45v774h201v-655q35 -13 92 -10q43 1 78 15.5t60 38.5t38.5 56.5t13.5 69.5q0 208 -246 258l248 237l187 -75l-156 -140q168 -94 168 -288q0 -150 -100 -238q-104 -97 -291 -100q-69 -2 -142.5 13t-150.5 44z" />
<glyph unicode="&#xe0b;" horiz-adv-x="838" d="M-23 707l103 122q20 -11 36.5 -24.5t28.5 -30.5l58 45h180v-203q0 -46 -35 -90q-17 -20 -26 -39.5t-9 -37.5v-285q37 -13 93 -10q43 1 78 15.5t60 38.5t38.5 56.5t13.5 69.5q0 191 -205 258l205 237l188 -75l-145 -148q158 -93 158 -280q0 -146 -101 -238 q-106 -97 -290 -100q-70 -2 -143 13t-150 44v408q0 43 41 84q41 44 41 77v50l-74 -54q-17 21 -39 37q-50 40 -105 60z" />
<glyph unicode="&#xe0c;" horiz-adv-x="1362" d="M82 0v666q126 168 354 168q78 0 143 -19t112 -55.5t73.5 -89.5t26.5 -121v-244q0 -69 55 -115q51 -40 110 -40q123 0 123 120v549h201v-577q0 -62 -18 -109.5t-50 -80t-76 -49.5t-96 -17q-154 0 -249 116v-102h-201v535q0 30 -12 54t-33.5 41t-51 26.5t-63.5 9.5 q-101 0 -147 -60v-442h127v-164h-328z" />
<glyph unicode="&#xe0d;" horiz-adv-x="1364" d="M82 0v666q126 168 354 168q78 0 143 -19t112 -55.5t73.5 -89.5t26.5 -121v-57q0 -111 149 -111q63 0 102 31.5t39 85.5v321h201v-530q0 -65 -26 -121t-73.5 -97t-113.5 -64t-147 -23q-190 0 -336 73l82 154q51 -32 104.5 -49t110.5 -17q183 0 198 134q-73 -58 -188 -58 q-303 0 -303 256v58q0 30 -12 54t-33.5 41t-51 26.5t-63.5 9.5q-101 0 -147 -60v-442h127v-164h-328z" />
<glyph unicode="&#xe0e;" horiz-adv-x="893" d="M20 0v164h82v502q126 168 355 168q78 0 143 -19t112 -55.5t73 -89.5t26 -121v-856h-184l-138 110l-143 -110h-326v164h283l193 129l114 -88v637q0 30 -12 54t-33 41t-50.5 26.5t-63.5 9.5q-100 0 -148 -60v-606h-283z" />
<glyph unicode="&#xe0f;" horiz-adv-x="893" d="M20 0v164h82v502q126 168 355 168q78 0 143 -19t112 -55.5t73 -89.5t26 -121v-856h-193l-79 74l-103 -107l-102 107l-78 -74h-236v164h199l127 106l90 -98l90 98l84 -72v644q0 30 -12 54t-33 41t-50.5 26.5t-63.5 9.5q-100 0 -148 -60v-606h-283z" />
<glyph unicode="&#xe10;" horiz-adv-x="834" d="M-6 674q81 80 178 120t213 40q97 0 168 -33l63 90l191 -74l-105 -129q84 -111 84 -262q0 -185 -120 -307q-128 -125 -351 -125h-30.5t-32.5 2l-74 344h-90v164h254l68 -332q37 7 69.5 31t56.5 59t38 77.5t14 86.5q0 99 -62 164q-69 72 -178 72q-145 0 -233 -113zM27 -143 h206l105 84l90 -86l90 88l74 -64v80l-31 57h230v-323h-197l-72 67l-92 -98l-102 100l-74 -69h-227v164z" />
<glyph unicode="&#xe11;" horiz-adv-x="922" d="M-14 707l102 122q41 -21 66 -55l57 45h180v-203q0 -48 -41 -92q-39 -42 -39 -75v-50q0 -17 -2.5 -51.5t-7.5 -85.5h4q11 32 31 84.5t49 124.5l170 352q74 2 127.5 -9.5t88.5 -39.5t52 -75t17 -115v-584h-201v586q0 39 -14 39l-293 -625h-219v453q0 21 11 42.5t34 41.5 q45 42 45 77v50l-74 -54q-17 21 -39 37q-50 41 -104 60z" />
<glyph unicode="&#xe12;" horiz-adv-x="1405" d="M41 393q3 159 94 281q95 122 227 155l105 -84l86 76q278 -21 278 -280v-236q0 -68 56 -115q51 -40 110 -40q123 0 123 120v549h201v-577q0 -62 -18 -109.5t-50 -80t-76 -49.5t-96 -17q-154 0 -250 116v-102h-200v555q0 67 -51 82l-107 -100l-119 98q-107 -90 -110 -242 q-3 -95 30 -153q35 -66 101 -66q49 0 94 45l115 -133q-88 -96 -215 -96q-76 0 -137 28.5t-104 81t-65.5 127t-21.5 166.5z" />
<glyph unicode="&#xe13;" horiz-adv-x="1362" d="M82 0v666q126 168 354 168q78 0 143 -19t112 -55.5t73.5 -89.5t26.5 -121v-279q0 -120 122 -120q31 0 60.5 11.5t53 31.5t38 48.5t14.5 63.5v514h201v-819h-201v102q-95 -116 -250 -116q-51 0 -93 15.5t-74 47.5q-72 70 -72 193v293q0 30 -12 54t-33.5 41t-51 26.5 t-63.5 9.5q-101 0 -147 -60v-442h127v-164h-328z" />
<glyph unicode="&#xe14;" horiz-adv-x="899" d="M41 393q3 181 125 309q122 132 299 132q251 0 352 -183v-651h-201v602q-33 55 -143 55q-49 0 -90.5 -20t-73.5 -62q-32 -40 -47.5 -85.5t-17.5 -96.5q-2 -48 6.5 -86t25.5 -67q38 -66 107 -66q57 0 100 41l107 -139q-89 -86 -211 -86q-82 0 -145.5 28t-106.5 80.5 t-65 127t-21 167.5z" />
<glyph unicode="&#xe15;" horiz-adv-x="913" d="M41 393q3 159 94 281q95 122 227 155l105 -84l86 76q278 -21 278 -280v-541h-200v555q0 67 -51 82l-107 -100l-119 98q-107 -90 -110 -242q-3 -95 30 -153q35 -66 101 -66q49 0 94 45l115 -133q-88 -96 -215 -96q-76 0 -137 28.5t-104 81t-65.5 127t-21.5 166.5z" />
<glyph unicode="&#xe16;" horiz-adv-x="872" d="M82 0v666q126 168 354 168q78 0 143 -19t112 -55.5t73.5 -89.5t26.5 -121v-549h-201v535q0 30 -12 54t-33.5 41t-51 26.5t-63.5 9.5q-101 0 -147 -60v-442h127v-164h-328z" />
<glyph unicode="&#xe17;" horiz-adv-x="874" d="M82 0v819h201v-102q88 117 249 117q106 0 179 -64q82 -73 82 -195v-575h-201v551q0 25 -10 47t-27.5 38t-42.5 25t-55 9q-59 0 -119 -43q-55 -43 -55 -99v-528h-201z" />
<glyph unicode="&#xe18;" horiz-adv-x="797" d="M51 596q0 103 107 170q101 65 239 65q67 0 125.5 -17.5t104.5 -50.5t76 -79.5t40 -103.5h-204q-23 86 -160 86q-54 0 -89.5 -16.5t-35.5 -41.5q0 -20 42.5 -36t129.5 -27q319 -40 319 -285q0 -140 -112 -209q-97 -63 -266 -63q-150 0 -293 55v287l196 51v-217 q23 -5 47 -7.5t50 -2.5q34 0 66.5 8t57 23t39.5 36.5t15 48.5q0 98 -164 113q-330 35 -330 213z" />
<glyph unicode="&#xe19;" horiz-adv-x="874" d="M82 244v575h201v-551q0 -25 10 -46.5t27.5 -37.5t42.5 -25t55 -9q62 0 117 43q57 42 57 98v528h201v-819h-201v102q-90 -116 -250 -116q-104 0 -178 65q-42 35 -62 84t-20 109z" />
<glyph unicode="&#xe1a;" horiz-adv-x="872" d="M82 281v538h201v-538q0 -127 153 -127q154 0 154 127v538h201v-538q0 -66 -24.5 -120t-70.5 -93t-112 -60.5t-148 -21.5t-147.5 21.5t-111.5 60.5t-70.5 93t-24.5 120z" />
<glyph unicode="&#xe1b;" horiz-adv-x="872" d="M82 281v538h201v-538q0 -127 153 -127q154 0 154 127v690h201v-690q0 -66 -24.5 -120t-70.5 -93t-112 -60.5t-148 -21.5t-147.5 21.5t-111.5 60.5t-70.5 93t-24.5 120z" />
<glyph unicode="&#xe1c;" horiz-adv-x="1098" d="M0 819h334v-162h-101l84 -329l170 491h121l174 -491l133 491h181l-230 -819h-141l-178 518l-176 -518h-140z" />
<glyph unicode="&#xe1d;" horiz-adv-x="1098" d="M0 819h334v-162h-101l84 -329l170 491h121l174 -491l172 643h181l-271 -971h-139l-178 516l-176 -516h-140z" />
<glyph unicode="&#xe1e;" horiz-adv-x="1098" d="M0 819h190l127 -491l170 491h121l174 -491l133 491h181l-230 -819h-141l-178 518l-176 -518h-140z" />
<glyph unicode="&#xe1f;" horiz-adv-x="1098" d="M0 819h190l127 -491l170 491h121l174 -491l172 643h181l-271 -971h-139l-178 516l-176 -516h-140z" />
<glyph unicode="&#xe20;" horiz-adv-x="893" d="M20 0v164h82v502q126 168 355 168q78 0 143 -19t112 -55.5t73 -89.5t26 -121v-549h-201v535q0 30 -12 54t-33 41t-50.5 26.5t-63.5 9.5q-100 0 -148 -60v-606h-283z" />
<glyph unicode="&#xe21;" horiz-adv-x="874" d="M82 0v819h201v-528q0 -56 55 -98q58 -43 119 -43q30 0 55 9t42.5 25t27.5 37.5t10 46.5v551h201v-575q0 -60 -20 -109t-62 -84q-74 -65 -179 -65q-160 0 -249 116v-102h-201z" />
<glyph unicode="&#xe22;" horiz-adv-x="860" d="M41 268q0 137 152 181q-136 33 -136 153q0 93 82 160q83 67 199 67q86 0 162 -28v-166q-26 15 -56 23t-65 8q-115 0 -115 -68t144 -68q23 0 46 3t46 8v-174h-90q-164 0 -164 -103q0 -25 13.5 -45.5t37.5 -34.5t57 -22t72 -8q94 0 152 43v622h200v-674 q-127 -157 -352 -157q-91 0 -161.5 20t-123.5 62q-100 76 -100 198z" />
<glyph unicode="&#xe23;" horiz-adv-x="805" d="M33 289h196q10 -131 174 -131q30 0 58 7.5t49 20.5t34 31t13 39q0 71 -158 86q-344 38 -344 221q0 118 103 195q48 38 107 57t128 19q317 0 369 -261h-201q-5 19 -20 36t-37 30t-49.5 20t-57.5 7t-55.5 -6.5t-44 -17t-29 -25t-10.5 -29.5q0 -49 176 -70q74 -8 129 -22.5 t90 -34.5q105 -59 105 -182q0 -134 -111 -218q-99 -75 -252 -75q-152 0 -252 75q-107 84 -110 228z" />
<glyph unicode="&#xe24;" horiz-adv-x="872" d="M82 0v666q126 168 354 168q78 0 143 -19t112 -55.5t73.5 -89.5t26.5 -121v-856h-201v842q0 30 -12 54t-33.5 41t-51 26.5t-63.5 9.5q-101 0 -147 -60v-442h127v-164h-328z" />
<glyph unicode="&#xe25;" horiz-adv-x="887" d="M41 270q0 62 26.5 114t75 89t118.5 57.5t157 20.5q54 0 101 -9.5t85 -29.5v82q-37 72 -158 72q-142 0 -176 -105h-213q26 132 144 205q107 68 252 68q138 0 239 -62q45 -29 73.5 -63t39.5 -76v-633h-201v291q-59 80 -192 80q-36 0 -66.5 -7.5t-52.5 -22t-34.5 -34 t-12.5 -43.5q0 -37 29.5 -61.5t74.5 -24.5q58 0 99 29l104 -144q-88 -73 -225 -73q-65 0 -117.5 22t-90.5 60t-58.5 89t-20.5 109z" />
<glyph unicode="&#xe26;" horiz-adv-x="893" d="M20 0v164h82v502q126 168 355 168q78 0 143 -19t112 -55.5t73 -89.5t26 -121v-856h-201v842q0 30 -12 54t-33 41t-50.5 26.5t-63.5 9.5q-100 0 -148 -60v-606h-283z" />
<glyph unicode="&#xe27;" horiz-adv-x="801" d="M41 317h197q39 -155 159 -155q84 0 125 76q37 67 37 172q0 54 -9 98t-28 76q-41 75 -123 75q-126 0 -159 -157h-199q12 79 41.5 141t75.5 104.5t106 64.5t133 22q86 0 153.5 -29.5t114 -85t71 -134t24.5 -175.5q0 -98 -24.5 -176t-71 -133.5t-114 -85t-153.5 -29.5 q-73 0 -133 21.5t-106 63.5t-75.5 103.5t-41.5 142.5z" />
<glyph unicode="&#xe28;" horiz-adv-x="893" d="M82 0v539q0 65 25.5 117t76.5 94q107 84 262 84q81 0 140 -21l59 78l191 -74l-91 -104q66 -78 66 -174v-539h-201v551q0 51 -44.5 83t-119.5 32q-74 0 -118.5 -32t-44.5 -83v-68h225v-164h-225v-319h-201z" />
<glyph unicode="&#xe29;" horiz-adv-x="893" d="M82 281v538h201v-538q0 -127 153 -127q154 0 154 127v81h-203v185l82 -21h121v293h201v-293h90v-164h-90v-81q0 -66 -24.5 -120t-70.5 -93t-112 -60.5t-148 -21.5t-147.5 21.5t-111.5 60.5t-70.5 93t-24.5 120z" />
<glyph unicode="&#xe2a;" horiz-adv-x="891" d="M41 270q0 62 26.5 114t75 89t118.5 57.5t157 20.5q54 0 101 -9.5t85 -29.5v82q-37 72 -158 72q-142 0 -176 -105h-213q26 132 144 205q107 68 252 68q42 0 75.5 -6t61.5 -17l57 80l191 -70l-84 -104q38 -43 51 -84v-633h-201v291q-59 80 -192 80q-36 0 -66.5 -7.5 t-52.5 -22t-34.5 -34t-12.5 -43.5q0 -37 29.5 -61.5t74.5 -24.5q58 0 99 29l104 -144q-88 -73 -225 -73q-65 0 -117.5 22t-90.5 60t-58.5 89t-20.5 109z" />
<glyph unicode="&#xe2b;" horiz-adv-x="868" d="M82 0v819h197v-239l309 249l200 -51l-190 -157q188 -41 188 -213v-408h-194v352q0 143 -131 158l-182 -152v-358h-197z" />
<glyph unicode="&#xe2c;" horiz-adv-x="1098" d="M0 819h199l125 -467l159 467h129l166 -471l53 213q2 8 3.5 14.5t1.5 14.5q0 65 -68 65h-47v164h76q97 0 112 55l27 89h203l-41 -146q-26 -86 -127 -115q57 -32 57 -106q0 -11 -1.5 -22.5t-4.5 -22.5l-156 -551h-147l-172 502l-170 -502h-146z" />
<glyph unicode="&#xe2d;" horiz-adv-x="946" d="M41 410q0 14 1 29t3 32h414v-164h-195q53 -133 207 -133q51 0 93 17t72 48.5t46 74.5t16 96q0 51 -16 94t-45.5 74t-71.5 48t-94 17q-139 0 -197 -111h-217q102 302 414 302q190 0 309 -119q60 -60 90.5 -135.5t30.5 -169.5q0 -185 -121 -306q-119 -118 -309 -118 q-192 0 -311 118q-119 119 -119 306z" />
<glyph unicode="&#xe2e;" horiz-adv-x="946" d="M41 410q0 14 1 29t3 32h414v-164h-195q53 -133 207 -133q51 0 93 17t72 48.5t46 74.5t16 96q0 51 -16 94t-45.5 74t-71.5 48t-94 17q-139 0 -197 -111h-217q102 302 414 302q94 0 170 -31l66 88l192 -72l-100 -125q51 -57 76.5 -127.5t25.5 -156.5q0 -185 -121 -306 q-119 -118 -309 -118q-192 0 -311 118q-119 119 -119 306z" />
<glyph unicode="&#xe2f;" horiz-adv-x="817" d="M23 610q0 47 21 87t57.5 69.5t86.5 46t109 16.5q78 0 166 -34v-154q-56 27 -133 27q-107 0 -107 -58q0 -57 109 -57q60 0 110.5 21.5t94.5 64.5v180h198v-819h-198v457q-101 -70 -218 -70q-140 0 -223 70q-73 64 -73 153z" />
<glyph unicode="&#xe30;" horiz-adv-x="422" d="M51 102v228h201v-84h129v-144h-330zM51 489v228h201v-84h129v-144h-330z" />
<glyph unicode="&#xe31;" d="M-481 922v245h200v-102h445v-143h-645z" />
<glyph unicode="&#xe32;" horiz-adv-x="623" d="M33 602v184q48 23 97 35.5t103 12.5q75 0 132 -23t95.5 -64.5t58.5 -98.5t20 -126v-522h-191v504q0 147 -153 147q-86 0 -162 -49z" />
<glyph unicode="&#xe33;" horiz-adv-x="621" d="M-328 1047q0 28 11 52.5t30.5 43t46 29t58.5 10.5q31 0 58 -10.5t46 -29t30 -43t11 -52.5q0 -29 -11 -53.5t-30 -43t-46 -29t-58 -10.5q-32 0 -58.5 10.5t-46 29t-30.5 43t-11 53.5zM-238 1047q0 -20 16.5 -36t39.5 -16t39 16t16 36t-16 35.5t-39 15.5t-39.5 -15.5 t-16.5 -35.5zM33 602v184q48 23 97 35.5t103 12.5q75 0 132 -23t95.5 -64.5t58.5 -98.5t20 -126v-522h-191v504q0 147 -153 147q-86 0 -162 -49z" />
<glyph unicode="&#xe34;" d="M-758 922v143h676v-143h-676z" />
<glyph unicode="&#xe35;" d="M-758 922v143h475v102h201v-245h-676z" />
<glyph unicode="&#xe36;" d="M-758 922v143h441q6 51 42.5 84t92.5 33q30 0 55 -10t43.5 -28t28.5 -42t10 -51q0 -28 -10 -51.5t-28.5 -41t-43.5 -27t-55 -9.5h-576zM-233 1051q0 -52 51 -52t51 52q0 51 -51 51t-51 -51z" />
<glyph unicode="&#xe37;" d="M-758 922v143h305v102h109v-102h61v102h201v-245h-676z" />
<glyph unicode="&#xe38;" d="M-365 -82h283v-276h-201v153h-82v123z" />
<glyph unicode="&#xe39;" d="M-602 -82h237v-141q22 -10 41 -10q41 0 41 32v119h201v-143q0 -70 -76 -109q-32 -17 -71.5 -26t-87.5 -9q-146 0 -222 78v86h-63v123z" />
<glyph unicode="&#xe3a;" d="M-315 -205q0 25 10.5 47t28.5 39t42 27t52 10q27 0 51.5 -10t42.5 -27t28.5 -39t10.5 -47q0 -24 -10.5 -46.5t-28.5 -39.5t-42.5 -27t-51.5 -10q-28 0 -52 10t-42 27t-28.5 39.5t-10.5 46.5z" />
<glyph unicode="&#xe3f;" horiz-adv-x="942" d="M92 0v965h338v127h78v-127h27q313 0 313 -240q0 -137 -129 -201q172 -48 172 -243q0 -139 -103 -213q-89 -68 -231 -68h-49v-137h-78v137h-338zM301 166h129v264h-129v-264zM301 573h129v228h-129v-228zM508 166h24q152 0 152 127q0 137 -152 137h-24v-264zM508 573h8 q127 0 127 117q0 111 -135 111v-228z" />
<glyph unicode="&#xe40;" horiz-adv-x="406" d="M102 0v819h201v-819h-201z" />
<glyph unicode="&#xe41;" horiz-adv-x="750" d="M102 0v819h201v-819h-201zM446 0v819h201v-819h-201z" />
<glyph unicode="&#xe42;" horiz-adv-x="446" d="M-6 1112q0 127 196 127h291v-154h-211q-57 0 -57 -12q0 -3 9.5 -10.5t22.5 -18t27 -23t23 -24.5q14 -20 21.5 -44t7.5 -50v-903h-201v895q0 57 -66 117q-63 57 -63 100z" />
<glyph unicode="&#xe43;" horiz-adv-x="446" d="M-88 1036q0 56 19.5 101.5t54 77t82 48.5t102.5 17q56 0 102.5 -16t79.5 -44t51.5 -66t18.5 -81q0 -46 -49 -98q-49 -49 -49 -96v-879h-201v899q0 59 49 105q51 44 51 73q0 58 -59 58q-74 0 -74 -99h-178z" />
<glyph unicode="&#xe44;" horiz-adv-x="406" d="M-143 1151l114 119l123 -113l123 100l209 -213q-123 -92 -123 -208v-836h-201v817q0 114 117 221l-26 27l-121 -107z" />
<glyph unicode="&#xe45;" horiz-adv-x="643" d="M33 602v184q48 23 97 35.5t103 12.5q153 0 242 -91q84 -90 84 -221v-829h-190v811q0 34 -13 61.5t-36.5 46.5t-55.5 29t-69 10q-86 0 -162 -49z" />
<glyph unicode="&#xe46;" horiz-adv-x="840" d="M33 385v174q0 128 67.5 199t192.5 71l100 -77l103 77q260 0 260 -270v-866h-201v895q0 69 -45 76l-111 -89l-125 89q-45 -8 -45 -76v-41h136v-162h-332z" />
<glyph unicode="&#xe47;" d="M-698 922v88q0 47 15.5 86.5t45 68t73 44.5t99.5 16h383v-103h-377q-48 0 -74 -24.5t-26 -55.5h74l108 60l105 -60h127v-120h-138l-94 55l-98 -55h-223z" />
<glyph unicode="&#xe48;" d="M-283 1229v205h201v-205h-201z" />
<glyph unicode="&#xe49;" d="M-412 1339v111h111q104 0 104 -88v-4h228v-129h-389v90q0 20 -19 20h-35z" />
<glyph unicode="&#xe4a;" d="M-446 1229v98q0 123 139 123h45l72 -49l65 49h45q133 0 133 -111v-12h105v-98h-258v94q0 13 -13 23l-77 -64l-91 64q-6 -5 -9 -10t-3 -13v-57l19 -37h-172z" />
<glyph unicode="&#xe4b;" d="M-356 1307v112h92v78h160v-78h92v-112h-92v-78h-160v78h-92z" />
<glyph unicode="&#xe4c;" d="M-307 1147v57q0 129 145 129h146v-121h-60q-51 0 -51 -43v-22h-180z" />
<glyph unicode="&#xe4d;" d="M-328 1047q0 28 11 52.5t30.5 43t46 29t58.5 10.5q31 0 58 -10.5t46 -29t30 -43t11 -52.5q0 -29 -11 -53.5t-30 -43t-46 -29t-58 -10.5q-32 0 -58.5 10.5t-46 29t-30.5 43t-11 53.5zM-238 1047q0 -20 16.5 -36t39.5 -16t39 16t16 36t-16 35.5t-39 15.5t-39.5 -15.5 t-16.5 -35.5z" />
<glyph unicode="&#xe4e;" d="M-571 1057q0 28 14.5 53.5t39.5 44.5t58 31.5t70 15.5q-53 23 -53 76q0 39 21.5 72.5t61 57.5t96 38t126.5 14q28 0 55.5 -1.5t56.5 -6.5v-119q-51 15 -110 15q-35 0 -65.5 -5t-53 -14.5t-36 -23t-13.5 -29.5q0 -40 80 -31v-106q-64 6 -133 -13q-78 -21 -78 -59 q0 -33 57 -33q51 0 101 29l57 -98q-82 -43 -168 -43q-40 0 -74 9.5t-58.5 27t-38 42.5t-13.5 56z" />
<glyph unicode="&#xe4f;" horiz-adv-x="983" d="M72 410q0 174 123 297q122 122 297 122q174 0 296 -122q123 -123 123 -297t-123 -297q-122 -123 -296 -123q-176 0 -297 123q-123 123 -123 297zM133 410q0 -148 105 -254q106 -105 254 -105q147 0 251 105q107 106 107 254t-107 252q-103 106 -251 106t-254 -106 q-105 -105 -105 -252zM236 410q0 107 73 180q76 76 183 76t180 -76q76 -73 76 -180q0 -106 -76 -183q-73 -73 -180 -73t-183 73q-73 77 -73 183z" />
<glyph unicode="&#xe50;" horiz-adv-x="836" d="M51 315q0 135 103 232q101 98 264 98q161 0 264 -98q102 -96 102 -232q0 -68 -24.5 -124.5t-75.5 -104.5q-103 -100 -266 -100q-82 0 -148 24.5t-118 75.5q-101 95 -101 229zM246 315q0 -32 12.5 -60t35 -50t54 -34.5t68.5 -12.5t68.5 12.5t54.5 34.5t36 50t13 60 q0 31 -13 59.5t-36 50t-54.5 34t-68.5 12.5t-68.5 -12.5t-54 -34t-35 -50t-12.5 -59.5z" />
<glyph unicode="&#xe51;" horiz-adv-x="891" d="M51 332q0 139 119 227q57 43 123.5 64.5t144.5 21.5q170 0 285 -92q117 -89 117 -238q0 -164 -140 -284q-130 -112 -321 -140l-76 121q77 9 140.5 32.5t108.5 59t70 82t25 101.5q0 42 -15 77t-42 60t-65 39t-85 14q-40 0 -75 -11.5t-61.5 -32t-42 -47t-15.5 -56.5 q0 -58 28 -80q-2 31 9.5 58.5t32.5 47.5t50.5 31.5t63.5 11.5q33 0 62 -11.5t50 -30.5t33.5 -45t12.5 -54q0 -41 -17.5 -76t-49 -60.5t-76 -40.5t-99.5 -15q-118 0 -207 73q-88 76 -88 193zM375 256q0 -49 55 -49t55 49q0 47 -55 47t-55 -47z" />
<glyph unicode="&#xe52;" horiz-adv-x="1161" d="M-41 764l156 117q78 -48 117.5 -111.5t39.5 -144.5v-389q0 -82 90 -82h521v270q0 54 -41 68l-123 -101l-141 101q-50 0 -50 -39q54 -7 84.5 -45t30.5 -89q0 -28 -12 -52.5t-33 -43t-49.5 -29t-61.5 -10.5t-61 10.5t-48.5 29t-32 43t-11.5 52.5v99q0 56 21 100.5t58 74.5 t87.5 43.5t109.5 8.5l103 -78l104 78q120 6 193 -61q67 -64 67 -166v-418h-792q-203 0 -203 156v450q0 43 -29 86q-34 53 -94 72zM440 322q0 -46 49 -46q50 0 50 46q0 45 -50 45q-49 0 -49 -45z" />
<glyph unicode="&#xe53;" horiz-adv-x="952" d="M82 160v221q0 237 272 264l123 -84l125 84q268 -24 268 -264v-381h-196v365q0 77 -68 98l-123 -94l-135 94q-67 -21 -67 -98v-41q34 -3 63 -17.5t50.5 -36.5t33.5 -50.5t12 -59.5q0 -35 -14 -65.5t-38.5 -54t-57.5 -37t-70 -13.5q-39 0 -71.5 13t-56.5 35.5t-37 54 t-13 67.5zM203 160q0 -58 57 -58q66 0 66 58q0 57 -66 57q-57 0 -57 -57z" />
<glyph unicode="&#xe54;" horiz-adv-x="961" d="M51 307q-2 72 27 132t86 108q109 92 270 92h232q50 0 65 61q12 43 12 144h195q3 -371 -242 -371h-262q-39 0 -73.5 -11.5t-60 -33.5t-40.5 -52.5t-14 -68.5q1 -33 15 -59.5t38 -45t54.5 -28.5t64.5 -10q26 0 47.5 1.5t38.5 6.5q-35 41 -35 102q0 31 13.5 59t36.5 48.5 t53.5 32.5t64.5 12t64.5 -12t53 -32t35.5 -46.5t13 -56.5q0 -60 -29 -101q120 -21 180 -72l-112 -135q-51 28 -94.5 42t-81.5 14q-16 0 -43.5 -4.5t-65.5 -12.5t-75 -12t-72 -4q-148 0 -248 78q-108 86 -111 235zM578 279q0 -50 59 -50q57 0 57 50q0 51 -57 51 q-59 0 -59 -51z" />
<glyph unicode="&#xe55;" horiz-adv-x="961" d="M51 309q-1 53 16 101.5t50 88t81 68t109 41.5q-20 27 -20 68q0 34 14 64t39.5 52.5t61 35t77.5 12.5q43 0 78.5 -11t61 -32t39.5 -50t14 -65q0 -28 -10 -45h14q104 0 104 207h191q0 -83 -19 -151.5t-54 -117t-85 -75.5t-111 -27h-239q-46 0 -87 -11.5t-71 -32.5 t-46.5 -51.5t-14.5 -68.5q1 -33 15 -60t38 -45.5t55 -29t66 -10.5q26 0 47.5 1.5t38.5 6.5q-35 41 -35 102q0 31 13.5 59t36.5 48.5t53.5 32.5t64.5 12t64.5 -12t53 -32t35.5 -46.5t13 -56.5q0 -60 -29 -101l84 -16q29 -9 52.5 -21.5t43.5 -27.5l-112 -142q-51 28 -94.5 42 t-81.5 14q-16 0 -43.5 -4.5t-65.5 -12.5t-75 -12t-72 -4q-147 0 -246 80q-110 85 -113 235zM416 678q0 -55 63 -55q64 0 64 55t-64 55q-63 0 -63 -55zM578 279q0 -50 59 -50q57 0 57 50q0 51 -57 51q-59 0 -59 -51z" />
<glyph unicode="&#xe56;" horiz-adv-x="897" d="M-106 735l153 109q152 -97 217 -254q92 55 205 55q163 0 270 -92q107 -88 107 -234q0 -145 -117 -239q-57 -48 -128.5 -71t-156.5 -23q-148 0 -247 75q-93 72 -93 164q0 34 13.5 64.5t37.5 53t56.5 35.5t69.5 13t68.5 -13t55 -34.5t37 -50.5t13.5 -60q0 -21 -5 -40.5 t-16 -36.5h10q42 0 80 12t66 33.5t44.5 51.5t16.5 66q0 34 -14.5 63.5t-40 51t-60.5 33.5t-77 12q-54 0 -103.5 -18t-97.5 -53l-133 30q-21 99 -78 168q-47 55 -153 129zM221 233q0 -49 58 -49q59 0 59 49q0 50 -59 50q-58 0 -58 -50z" />
<glyph unicode="&#xe57;" horiz-adv-x="1186" d="M82 160v221q0 237 272 264l103 -84l104 84q268 -24 268 -264v-227q44 0 64 12t20 55v404q0 81 40 144.5t118 111.5l156 -117q-60 -19 -94 -72q-29 -43 -29 -86v-405q0 -46 -16 -83t-45.5 -63.5t-70.5 -40.5t-91 -14h-248v365q0 77 -68 98l-102 -94l-115 94 q-67 -21 -67 -98v-41q34 -3 63 -17.5t50.5 -36.5t33.5 -50.5t12 -59.5q0 -35 -14 -65.5t-38.5 -54t-57.5 -37t-70 -13.5q-39 0 -71.5 13t-56.5 35.5t-37 54t-13 67.5zM203 160q0 -58 57 -58q66 0 66 58q0 57 -66 57q-57 0 -57 -57z" />
<glyph unicode="&#xe58;" horiz-adv-x="987" d="M51 307q0 153 133 248q128 90 316 90q60 0 113 -3t98 -11q20 38 35 93t24 124l188 -27q-30 -224 -159 -381q-78 20 -147 30.5t-132 10.5q-61 0 -111.5 -13.5t-86.5 -36.5t-56 -55t-20 -69q0 -79 67 -119l140 123l180 -145l16 8q-39 21 -39 94q0 28 12.5 54.5t34 46 t50.5 31.5t63 12t63.5 -10.5t52 -29.5t36 -45t14.5 -57q6 -133 -174 -219l-150 -71l-153 114l-115 -112q-63 15 -115 42.5t-90 69.5q-88 89 -88 213zM715 262q0 -49 55 -49t55 49q0 51 -55 51q-23 0 -39 -15.5t-16 -35.5z" />
<glyph unicode="&#xe59;" horiz-adv-x="1008" d="M47 330q0 141 103 227q100 88 256 88q60 0 111.5 -15.5t96.5 -47.5q54 75 160 75q66 0 111 -26q25 84 4 200h190q2 -14 2 -26.5v-26.5q0 -234 -131 -368l-63 18q-22 55 -78 55q-53 0 -66 -32q53 -75 91 -183.5t61 -255.5l-186 -20q-14 112 -34 196t-46 140 q-71 151 -215 151q-37 0 -68.5 -12t-54 -32t-35 -48t-12.5 -59q0 -54 28 -105q7 27 23 49.5t38.5 38t50 24.5t58.5 9q38 0 70 -13.5t55.5 -36.5t37 -53t13.5 -63q0 -40 -18.5 -73.5t-50 -58t-73 -38.5t-87.5 -14q-147 0 -246 100q-48 51 -72 109.5t-24 126.5zM383 174 q0 -49 57 -49q58 0 58 49q0 53 -58 53q-57 0 -57 -53z" />
<glyph unicode="&#xe5a;" horiz-adv-x="1057" d="M23 610q0 47 21 87t57.5 69.5t86.5 46t109 16.5q78 0 166 -34v-154q-56 27 -133 27q-107 0 -107 -58q0 -57 109 -57q60 0 110.5 21.5t94.5 64.5v180h198v-248q28 11 54 28t49 40v180h137v-819h-137v457q-22 -16 -48 -28t-55 -23v-406h-198v457q-101 -70 -218 -70 q-140 0 -223 70q-73 64 -73 153z" />
<glyph unicode="&#xe5b;" horiz-adv-x="1577" d="M61 414q0 78 20 143t60 119q42 54 91 80t108 26q51 0 95 -20.5t76.5 -57t50.5 -87t18 -109.5q0 -46 -12.5 -85t-34 -67.5t-51.5 -44.5t-64 -16q-31 0 -57.5 11.5t-46 32t-31 49t-11.5 61.5q0 31 11 59.5t30.5 50t46 34.5t56.5 13h-4q-16 45 -70 45q-30 0 -55 -17.5 t-42.5 -49t-27.5 -75.5t-10 -97q0 -50 13.5 -93t37 -75t55.5 -50t70 -18q94 0 166 96q72 98 90 248q12 103 80 103q47 0 94 -97v2q0 74 64 74q40 0 92 -88q15 51 49 51q44 0 92 -82q22 54 53 54q14 0 31.5 -15.5t40.5 -44.5q31 32 49 29l178 -17q74 -6 74 -55q0 -46 -74 -55 l-159 -17q-14 -26 -29.5 -39.5t-34.5 -13.5q-21 0 -51 51q-31 -73 -70 -73q-24 0 -63 73q-17 -48 -36 -72t-42 -24q-17 0 -33 23t-33 69q-39 -116 -102 -116q-55 0 -82 116q-33 -131 -123 -215q-101 -92 -233 -92q-135 0 -224 101q-86 101 -86 264zM369 453q0 -52 47 -52 q49 0 49 52q0 51 -49 51q-47 0 -47 -51z" />
<glyph unicode="&#x2000;" horiz-adv-x="799" />
<glyph unicode="&#x2001;" horiz-adv-x="1599" />
<glyph unicode="&#x2002;" horiz-adv-x="799" />
<glyph unicode="&#x2003;" horiz-adv-x="1599" />
<glyph unicode="&#x2004;" horiz-adv-x="533" />
<glyph unicode="&#x2005;" horiz-adv-x="399" />
<glyph unicode="&#x2006;" horiz-adv-x="266" />
<glyph unicode="&#x2007;" horiz-adv-x="266" />
<glyph unicode="&#x2008;" horiz-adv-x="199" />
<glyph unicode="&#x2009;" horiz-adv-x="319" />
<glyph unicode="&#x200a;" horiz-adv-x="88" />
<glyph unicode="&#x200c;" />
<glyph unicode="&#x200d;" />
<glyph unicode="&#x2010;" horiz-adv-x="543" d="M70 287v164h401v-164h-401z" />
<glyph unicode="&#x2011;" horiz-adv-x="543" d="M70 287v164h401v-164h-401z" />
<glyph unicode="&#x2012;" horiz-adv-x="543" d="M70 287v164h401v-164h-401z" />
<glyph unicode="&#x2013;" horiz-adv-x="741" d="M51 268v146h639v-146h-639z" />
<glyph unicode="&#x2014;" horiz-adv-x="1483" d="M51 268v146h1381v-146h-1381z" />
<glyph unicode="&#x2018;" horiz-adv-x="336" d="M72 530v207q0 46 14 85.5t39.5 69t61 48.5t77.5 25v-88q-90 -35 -90 -138h90v-209h-192z" />
<glyph unicode="&#x2019;" horiz-adv-x="336" d="M72 530v88q90 35 90 138h-90v209h192v-207q0 -46 -14.5 -85.5t-40 -69t-60.5 -48.5t-77 -25z" />
<glyph unicode="&#x201c;" horiz-adv-x="623" d="M72 530v207q0 46 14 85.5t39.5 69t61 48.5t77.5 25v-88q-90 -35 -90 -138h90v-209h-192zM358 530v207q0 46 14.5 85.5t40 69t61 48.5t77.5 25v-88q-90 -35 -90 -138h90v-209h-193z" />
<glyph unicode="&#x201d;" horiz-adv-x="623" d="M72 530v88q90 35 90 138h-90v209h192v-207q0 -46 -14.5 -85.5t-40 -69t-60.5 -48.5t-77 -25zM358 530v88q91 35 91 138h-91v209h193v-207q0 -46 -14.5 -85.5t-40 -69t-61 -48.5t-77.5 -25z" />
<glyph unicode="&#x2022;" horiz-adv-x="758" d="M72 410q0 127 90 217t217 90t217 -90q90 -92 90 -217q0 -127 -90 -217q-89 -91 -217 -91t-217 91q-45 45 -67.5 99.5t-22.5 117.5z" />
<glyph unicode="&#x2026;" horiz-adv-x="1102" d="M82 0v209h203v-209h-203zM449 0v209h202v-209h-202zM815 0v209h203v-209h-203z" />
<glyph unicode="&#x202f;" horiz-adv-x="319" />
<glyph unicode="&#x205f;" horiz-adv-x="399" />
<glyph unicode="&#x25fc;" horiz-adv-x="700" d="M0 0v700h700v-700h-700z" />
<glyph unicode="&#xf700;" horiz-adv-x="834" d="M-6 674q81 80 178 120t213 40q97 0 168 -33l63 90l191 -74l-105 -129q84 -111 84 -262q0 -185 -120 -307q-128 -125 -351 -125h-30.5t-32.5 2l-74 344h-90v164h254l68 -332q37 7 69.5 31t56.5 59t38 77.5t14 86.5q0 99 -62 164q-69 72 -178 72q-145 0 -233 -113z" />
<glyph unicode="&#xf701;" d="M-958 922v143h614v-143h-614z" />
<glyph unicode="&#xf702;" d="M-958 922v143h413v102h201v-245h-614z" />
<glyph unicode="&#xf703;" d="M-961 922v143h379q7 51 43.5 84t92.5 33q30 0 55 -10t43 -28t28.5 -42t10.5 -51q0 -28 -10.5 -51.5t-28.5 -41t-43 -27t-55 -9.5h-515zM-498 1051q0 -52 52 -52q51 0 51 52q0 51 -51 51q-52 0 -52 -51z" />
<glyph unicode="&#xf704;" d="M-958 922v143h243v102h109v-102h61v102h201v-245h-614z" />
<glyph unicode="&#xf705;" d="M-565 922v245h200v-245h-200z" />
<glyph unicode="&#xf706;" d="M-596 1044v123h123q117 0 117 -98v-4h366v-143h-547v100q0 22 -20 22h-39z" />
<glyph unicode="&#xf707;" d="M-831 922v110q0 135 154 135h49l80 -53l73 53h50q149 0 149 -123v-12h238v-110h-410v104q0 8 -3 15t-9 12l-88 -72l-101 72q-12 -9 -12 -25v-65l21 -41h-191z" />
<glyph unicode="&#xf708;" d="M-729 1008v125h102v86h201v-86h102v-125h-102v-86h-201v86h-102z" />
<glyph unicode="&#xf709;" d="M-565 962v64q0 143 162 143h161v-133h-65q-58 0 -58 -49v-25h-200z" />
<glyph unicode="&#xf70a;" d="M-283 922v245h201v-245h-201z" />
<glyph unicode="&#xf70b;" d="M-471 1044v123h123q117 0 117 -98v-4h251v-143h-432v100q0 22 -20 22h-39z" />
<glyph unicode="&#xf70c;" d="M-692 922v110q0 135 153 135h50l79 -53l74 53h49q150 0 150 -123v-12h114v-110h-286v104q0 8 -3 15t-10 12l-88 -72l-100 72q-12 -9 -12 -25v-65l20 -41h-190z" />
<glyph unicode="&#xf70d;" d="M-467 1008v125h102v86h181v-86h102v-125h-102v-86h-181v86h-102z" />
<glyph unicode="&#xf70e;" d="M-358 922v63q0 143 161 143h162v-133h-65q-58 0 -58 -49v-24h-200z" />
<glyph unicode="&#xf70f;" horiz-adv-x="1378" d="M82 0v666q126 168 354 168q78 0 143 -19t112 -55.5t73.5 -89.5t26.5 -121v-270q0 -29 12 -52t32 -39t47.5 -25t59.5 -9q33 0 62 9t50 25t33.5 39t12.5 52v540h196v-549q0 -129 -102 -207q-103 -77 -252 -77t-252 77q-100 78 -100 207v265q0 30 -12 54t-33.5 41t-51 26.5 t-63.5 9.5q-101 0 -147 -60v-442h127v-164h-328z" />
<glyph unicode="&#xf710;" d="M-651 922v245h200v-102h465v-143h-665z" />
<glyph unicode="&#xf711;" d="M-592 1047q0 28 11 52.5t30.5 43t46 29t58.5 10.5q31 0 58 -10.5t46 -29t30 -43t11 -52.5q0 -29 -11 -53.5t-30 -43t-46 -29t-58 -10.5q-32 0 -58.5 10.5t-46 29t-30.5 43t-11 53.5zM-502 1047q0 -20 16.5 -36t39.5 -16t39 16t16 36t-16 35.5t-39 15.5t-39.5 -15.5 t-16.5 -35.5z" />
<glyph unicode="&#xf712;" d="M-877 922v88q0 47 15.5 86.5t45.5 68t73.5 44.5t99.5 16h383v-103h-377q-48 0 -74 -24.5t-26 -55.5h73l109 60l104 -60h127v-120h-137l-94 55l-98 -55h-224z" />
<glyph unicode="&#xf713;" d="M-545 1229v205h201v-205h-201z" />
<glyph unicode="&#xf714;" d="M-633 1339v111h111q104 0 104 -88v-4h228v-129h-390v90q0 20 -18 20h-35z" />
<glyph unicode="&#xf715;" d="M-631 1229v98q0 123 139 123h46l71 -49l66 49h45q133 0 133 -111v-12h104v-98h-258v94q0 8 -3 13t-9 10l-78 -64l-90 64q-6 -5 -9 -10t-3 -13v-57l18 -37h-172z" />
<glyph unicode="&#xf716;" d="M-629 1307v112h92v78h181v-78h92v-112h-92v-78h-181v78h-92z" />
<glyph unicode="&#xf717;" d="M-569 1147v57q0 129 145 129h145v-121h-59q-51 0 -51 -43v-22h-180z" />
<glyph unicode="&#xf718;" d="M-365 -369h283v-276h-201v153h-82v123z" />
<glyph unicode="&#xf719;" d="M-602 -369h237v-141q22 -10 41 -10q41 0 41 33v118h201v-143q0 -70 -76 -109q-66 -34 -159 -34q-147 0 -222 77v86h-63v123z" />
<glyph unicode="&#xf71a;" d="M-348 -492q0 25 10.5 47t28.5 39t42 27t52 10t52 -10t42 -27t28.5 -39t10.5 -47q0 -24 -10.5 -46.5t-28.5 -39t-42 -26.5t-52 -10t-52 10t-42 26.5t-28.5 39t-10.5 46.5z" />
<glyph unicode="&#xf71d;" />
<glyph unicode="&#xf880;" />
<glyph horiz-adv-x="623" d="M-592 1047q0 28 11 52.5t30.5 43t46 29t58.5 10.5q31 0 58 -10.5t46 -29t30 -43t11 -52.5q0 -29 -11 -53.5t-30 -43t-46 -29t-58 -10.5q-32 0 -58.5 10.5t-46 29t-30.5 43t-11 53.5zM-502 1047q0 -20 16.5 -36t39.5 -16t39 16t16 36t-16 35.5t-39 15.5t-39.5 -15.5 t-16.5 -35.5zM33 602v184q48 23 97 35.5t103 12.5q75 0 132 -23t95.5 -64.5t58.5 -98.5t20 -126v-522h-191v504q0 147 -153 147q-86 0 -162 -49z" />
<glyph d="M-702 1057q0 28 14.5 53.5t39.5 44.5t58 31.5t70 15.5q-53 23 -53 76q0 39 21.5 72.5t61 57.5t96 38t126.5 14q28 0 55.5 -1.5t56.5 -6.5v-119q-51 15 -110 15q-35 0 -65.5 -5t-53 -14.5t-36 -23t-13.5 -29.5q0 -40 80 -31v-106q-64 6 -133 -13q-78 -21 -78 -59 q0 -33 57 -33q51 0 100 29l58 -98q-83 -43 -168 -43q-40 0 -74 9.5t-58.5 27t-38 42.5t-13.5 56z" />
<glyph />
<glyph />
<glyph d="M-958 922v143h243v102h109v-102h61v102h201v-245h-614zM-627 1229v205h201v-205h-201z" />
<glyph d="M-907 922v143h676v-143h-676z" />
<glyph d="M-905 922v143h475v102h201v-245h-676z" />
</font>
</defs>
</svg>
